<mxfile modified="2023-04-26T22:47:33.664Z" host="app.diagrams.net" agent="Mozilla/5.0 (Windows NT 10.0; Win64; x64) AppleWebKit/537.36 (KHTML, like Gecko) Chrome/112.0.0.0 Safari/537.36" etag="H4Z_YrhLzBbhnAt_pnDr" version="21.1.2" type="github" pages="5">
  <diagram id="Io6qqEz0VGG8lpBbTZHO" name="Diagrama HL">
    <mxGraphModel dx="1687" dy="936" grid="1" gridSize="10" guides="1" tooltips="1" connect="1" arrows="1" fold="1" page="1" pageScale="1" pageWidth="1654" pageHeight="1169" math="0" shadow="0">
      <root>
        <mxCell id="0" />
        <mxCell id="1" parent="0" />
        <mxCell id="idVqmQN0-lgMuyCXY8RU-2" value="Integración con RTP" style="shape=umlFrame;whiteSpace=wrap;html=1;width=160;height=30;" parent="1" vertex="1">
          <mxGeometry x="310" y="580" width="1120" height="410" as="geometry" />
        </mxCell>
        <mxCell id="idVqmQN0-lgMuyCXY8RU-8" value="AWS Cloud" style="points=[[0,0],[0.25,0],[0.5,0],[0.75,0],[1,0],[1,0.25],[1,0.5],[1,0.75],[1,1],[0.75,1],[0.5,1],[0.25,1],[0,1],[0,0.75],[0,0.5],[0,0.25]];outlineConnect=0;gradientColor=none;html=1;whiteSpace=wrap;fontSize=12;fontStyle=0;shape=mxgraph.aws4.group;grIcon=mxgraph.aws4.group_aws_cloud_alt;strokeColor=#232F3E;fillColor=none;verticalAlign=top;align=left;spacingLeft=30;fontColor=#232F3E;dashed=0;labelBackgroundColor=none;container=0;pointerEvents=0;collapsible=0;recursiveResize=0;" parent="1" vertex="1">
          <mxGeometry x="440" y="630" width="400" height="320" as="geometry" />
        </mxCell>
        <mxCell id="E_kv2T5svfEyYxgCmkpt-10" style="edgeStyle=orthogonalEdgeStyle;rounded=0;orthogonalLoop=1;jettySize=auto;html=1;" parent="1" edge="1">
          <mxGeometry relative="1" as="geometry">
            <mxPoint x="714.4736842105267" y="821" as="sourcePoint" />
            <mxPoint x="534.0526315789475" y="821" as="targetPoint" />
            <Array as="points">
              <mxPoint x="714" y="880" />
              <mxPoint x="534" y="880" />
            </Array>
          </mxGeometry>
        </mxCell>
        <mxCell id="E_kv2T5svfEyYxgCmkpt-2" value="On-Premise" style="sketch=0;outlineConnect=0;gradientColor=none;html=1;whiteSpace=wrap;fontSize=12;fontStyle=0;shape=mxgraph.aws4.group;grIcon=mxgraph.aws4.group_on_premise;strokeColor=#000000;fillColor=none;verticalAlign=top;align=left;spacingLeft=30;fontColor=#858B94;dashed=0;" parent="1" vertex="1">
          <mxGeometry x="990" y="630" width="380" height="320" as="geometry" />
        </mxCell>
        <mxCell id="lWc6h3PrkDKyiJHSp3HH-1" value="Integración con AT&amp;amp;T" style="shape=umlFrame;whiteSpace=wrap;html=1;width=160;height=20;movable=1;resizable=1;rotatable=1;deletable=1;editable=1;locked=0;connectable=1;" parent="1" vertex="1">
          <mxGeometry x="370" y="110" width="910" height="330" as="geometry" />
        </mxCell>
        <mxCell id="mbKo5V_DVtGHA1E1RYWK-1" value="WhatsApp API" style="html=1;strokeColor=#82b366;fillColor=#d5e8d4;labelPosition=center;verticalLabelPosition=middle;verticalAlign=top;align=center;fontSize=12;outlineConnect=0;spacingTop=-6;sketch=0;shape=mxgraph.sitemap.cloud;" parent="1" vertex="1">
          <mxGeometry x="602" y="225.5" width="162.85" height="95" as="geometry" />
        </mxCell>
        <mxCell id="mbKo5V_DVtGHA1E1RYWK-2" value="" style="sketch=0;pointerEvents=1;shadow=0;dashed=0;html=1;strokeColor=none;labelPosition=center;verticalLabelPosition=bottom;verticalAlign=top;align=center;fillColor=#505050;shape=mxgraph.mscae.intune.user_group" parent="1" vertex="1">
          <mxGeometry x="402" y="238" width="67.56" height="50" as="geometry" />
        </mxCell>
        <mxCell id="mbKo5V_DVtGHA1E1RYWK-9" value="" style="shape=image;verticalLabelPosition=bottom;labelBackgroundColor=default;verticalAlign=top;aspect=fixed;imageAspect=0;image=data:image/jpeg,/9j/4AAQSkZJRgABAQAAAQABAAD/2wCEAAkGBw8RERIQEA8SFhUQEBIVERMSDhAWEhYRGBEWGBUVFRUYHSggGBomHRYVITEhJSkrLi4uFx8zODUsNyktLisBCgoKDg0OGxAQGy0mICItLS0yLS0tLS44NTAtLS0tLjArLy0tLTAvLi0tLy0tLTUtLS0tLy0tLS8vLTYvLTMtLf/AABEIAOEA4AMBIgACEQEDEQH/xAAbAAEAAQUBAAAAAAAAAAAAAAAAAgEDBAYHBf/EAEEQAAIBAgIHBAYIBQIHAAAAAAABAgMRBCEFBhIxQVFxImGBkRMyUqGxwQcUQmKC0eHwI3KSorIzUxUkQ3PC0vH/xAAaAQEAAwEBAQAAAAAAAAAAAAAAAwQFBgIB/8QAMxEAAgEDAQUHBAEDBQAAAAAAAAECAwQRMRIhQVFxBWGRscHR8BNCgaHhIjJSFBUjQ1P/2gAMAwEAAhEDEQA/AO4gAAAAAAAAAAAAAAAo2RdRAEwWXWRH6wgDIBj/AFhElXQBeBbVRElIAkAAAAAAAAAAAAAAAAAAAAAAAACMpFidVvJZsAvSqJFl1r5JX6FVQvnJ+C3F6MUtyALCpze9pe9klhlxbfiXwAWlQh7K8cyXoo+yvJEwAQ9FH2V5Ig6EPZ8rovAAxnhVwk17yLhUW6z6bzLABiRxHB5PvL8aiZWcU8mrmPPDtZwfg/kwDKTKmJTr8Hk+TMmMrgEgAAAAAAAAAAAAAACE52E52LMIueb3fEAok59y5/kZEIpZIkAARk0lduyW9s8fS+nqVC8V26nsp5Lq+HTeahpDSdau/wCJPLhBZQX59Xcr1LiMN2rKle9p0t2r5e7+PuNuxmsuHp5Rbm/u+r/U8vK542I1rry9SEYLrtS88l7jXwU53NSXHHQzJ31aWjx099T0KumsVLfXl+HZXwsY7x9Z76s31nL8zHBE5SerZWdSb1b8WZEdIVluq1F0m/zMilpvFR3VpP8Am2Zf5JnngKclxYVSa0k/FmxYbW2qv9SmpLnF7L+afuPbwWsGHq2W3syf2Zq3k93vNCBNG5qLV56lqnfVo6vPX318zqgOd6N0zXoWUZbUfYl6tu7jHwNw0XpiliFaLtNLOEt/Vc1+8i5SuI1N2j+aGnQu4Vd2j5e3Pz7jPq0VLf4PijGvKDtLdwfAziE4pqzWTJy0UpzuXDBknTfc9z+TMqnO4BcAAAAAAAAAIyZIxq0uC3sAoltu3Bb/AMjJSI04WViYANS0/rHvpYeXdKovhH8/LmNa9N2vh6T7qkl/in8fLmapco3Fx9sfEyr28abp0/y/RFbi5S4uUTJyVuLlLi4GStxcpcXAyVuLlLi4GStxcpcXAyVuVjNxalFtNO6admnzTI3Fwfcm6av6wKralVaU/sy3Kfd3P4+42Q5Nc3bVjTfpl6Ko/wCJFZN/bj/7Lj58zQt7ja/plrwNizvHL/jnrwfP5++uuwTgmmnuZhxbhLZfg+aM8s4mjtLvWa6lw0i5CVyRh4WrwMtAFQAAAAAQqSsWqEbtyfRfMpiJcFxyL8I2SXIAkeNrHpX0FLsvtzuod3N+HxaPZOZad0h9YrSnfsrs0/5Fx8c34kFxV2I7tWU72v8ASp7tXp6v5xaMPaKXIAyjny5CMpNRim3J2SW9s2vCan3inWqtSf2YpWXdfiXdTdFqMPTzXandQvwjub6v4dTaS/Qt4uO1Pia9pZRcduos50Rp+O1RUYOVGcpSir7Mku13J8GaqmdaOb6z4H0OImkuzPtR6N5rwd/Cx4uqMYpSiR39rGmlOCwtH7+55txchcXKZmE7i5C4uATuLkLi4BO4uQuLgE7kqVWUJKcXaUWnFrg0Wri4B03Q+kY4ilGosnumuU1vXz6NHoHPtUdIejrqDfZrWi+6S9V/LxOgmtQqfUhnidHa1/rU1J66MwcTHZmpLdLf1MqlK6I4mntRa48OvAsYOpdExZM0AAApIqQqPIAs0859F7zJMfDL1nzdvL/6ZAB4utWL9FhptetO0I+L7X9qkc6ubRr9iLzpUvZhKT6ydl/i/M1W5l3U9qpjkYHaFTarY5bvVkrh3eS3vd1I3JQqbMlL2Wn5O5XKL0OtYeioRjCO6EVFdErIugG4dbjG4Gua6YHboKol2qLv+F2Uvk/A2MxNJVoQo1JVPVUXtLmnls+N7eJ4qRUoNMirQU6covkcruLkEVuYxy+SVxcjcXB9JXFyNxcAlcXI3FwCVxcjcXAJX5Po0dS0Ri/TUKdXjKPa/mTtJeaZyu5u+oeJvSnTf2JKS/lkn84vzLVpPE8c/Q0OzamKrjzXl/GTajz4rZqSXfdeOZ6BgY3KcXzTXk/1NI3DNiyRbpPIuAAtVnkXSziNwAwq7K8fiXi3Q9VdC4Ac01trbWLq/d2Irwgr+9s8e5nawyviq/8A3GvLIwLmNU3zfVnLVnmpJ9782VuLlLi54Izp+reN9Nh6cuKWzLntRyz6qz8T1TnepmlfRVvRTfYq2Xcp/ZfjuOiGtQqbcEzpLSt9WknxW5/O8HOdZ9PfWJ7FN/woPL78ub7uS8enRjmOs2iXhqzUV/DqXlB8Fzj4fCxFduWxu04+hX7Sc1SWzpx9PxnX8I8q4uUuLmcYZW4uUuLgFbi5S4uAVuLlLi4BW4uUuLgFbmzahVbV6kPapt+KkrfFmsXPe1If/NR74S/xJaDxUj1LFo8V4dToxh6RWUX975MzDF0j6i/mRrnSk8O8i+Y+F3GQACziNxeLVZZADD+quhdLGEfZtyb+N/mXwDlWskbYuuvv384p/M8657mvFDZxcpf7kYS8oqP/AIngXMaosTa7zl7iOzVmu9+ZO4uQuLnghJ3Oh6paa+sU9io/4tNZ33yhuUuvB+HM5zcvYPFTo1I1abtKDuuT5p809xLRqunLPAsW1w6M9rhx+c1wOxmBpXR0MRSlSnxzi+MZLdJfvmR0NpSGJpqpDJ7pxvnGXFP5Pieia26S5pnR/wBNSPNNHIdIYKpQqOlUVmtz4SjwlF8UzHudT0zomliobFRWavsTXrRfdzXNHOdL6IrYWWzUjk32Zr1Jfk+5/qZdag6bytDAurSVF5W+Pl199DCuLkQQFMlcXNh1U1fVe9Wsn6JXUUm1tyzvms9ld3Hoz1dI6k0pZ4ebh92W1KHnvXvJo29SUdpItQs604bcV+9/Xp+ehpNxcyNI6Nr4d2rU3HPKW+D6SWXhvMUhaaeGVmmnhrDJXFyIB8JXNh1EjfFdKcn8vma4bb9HlK9StU9mEI/1Nt/4oloLNSJZs1mvDr5bzezD0i+yu+S+ZmGFpF+oucm/Jfqa50pdwu4yCzh1kXgAQqImUYBjYV5yXR/v3GUYjezNPnk/H9oywDS/pFwvZpVl9lyhLxW1H4S8zSbnWdOYFYihUpcZRvH+ZNOPvSOR34NWa3p70+TMy7jieeZgdpU9mrtf5ea19CdxcjcXKpnkri5G4uAZ2iNK1MNUVSm+6cW+zOPJ/J8PNPp+idKUsTTVSm+6UX60ZezJczkVzJ0bpGrQqKpSlZ8U84yXKS4osUK7pvD0LtpeOg8PfHl6o7GWa1GE4uE4qUZKzjJJprvTPJ0BrBRxKST2als6befe4vivfzPcNOMlJZWhvwnGpHai8pmm6V1Jg7yw09l+xJtx8Jb143PJ0ZqliZ1VGvBwpxfbltxd1yjZ73z4e46QCGVrTbzgqy7PoOW1jHctPnTBao0owjGEIpRikopbkluRdALBdLdWnGScZJNNWaaTTXemalrBqnR9HOtRbg4wlJw3waSbaV3eL93cbieVrNiFTwtab9hxXWb2V/kRVYRlF7SILinTnTe2tEzlVxcimLmOcsSudF1EwuxhVN76spP8Keyvg34nPMJh5VakKUPWqSUVluu977lv8DsOGoRpwjCK7MIqMeiVkXLOGZOXI1Oy6eZufJY8fZF88/Fu9RL2V73+0egeZh+1Jy5v3cPcaJuGfSWRcKJFQAAADGxULouUKm1FPz6kqiMXDtqbjwln0aAM05trzor0Vb08V2KzbfJVLdpePrefI6SeJrb6P6nWdRXSird07pRa8WveQ3EFOD7t5VvKSqUmnw3+HzecruLkbi5kHMEri5G4uASuLkbi4BNNppp2ad007NPg0+BtGiNdatO0a69JFfbulNLrufjZmqXFz3CcoPMWS0q06T2oPHzidb0brBhcRlTqraf2Jdmd+ST3+Fz1jhrPTwOsGLpZU68rL7MrSjbkk72XkW4Xv+S8DTpdq/8ApHw9n7nXwc8oa/V1/qUKcu+MpR/MnU1/qtdnDQT5yqSa8kif/VUuf6Lf+42/N+D9jfKtSMU5Skkoq7baSS5tvcc51v1iWIapUv8AShK+1u2p7r25LO3PyPI0rprE4l/xajaveMFkl+Fb+ubPPuVK1y5rZjuRnXfaH1VsQ3LjzfsSuLkbnpaB0TPFVlSjdJZ1J+zHnbm9y/JMrJNvCKEIuclGOrNl+j7RV9rFSXONLrmptfDzN6LOHoRpwjTgrRhFRilwS3F42KVNU47KOot6Ko01BfHxMTH1LRst88vDj++8phKdkWHL0k9rgso9OZn042JCYuAAAAAAjNljDx7Unyy/P5FyvLIphY2iu/MAvGm/SRjNmjTop51ZSl+GCV1/cn4G5HLNfcZ6TGSgnlRhGPde15P+634SvdSxTffuKPaNTYoPv3fPxk18FLi5lHOFQQ2yVwfMlbi5S4uD6VuLlLi4BW4uUuLgFbi5S4uAVuLlLnpaD0HXxcrU1aCfbqSXYj3W+1LuXjbefYxcnhHqEZTlsxWWY+jsDVxFRUqUbyl/TGPGUnwS/eZ1bQeiKeFpKnDNvOcms5S59y5LgNC6Ho4WnsUlm/Xm/Wk+bfy3I9Q1KFD6e96nQWdkqK2pf3P9dPV8QYOOr/8ATjvfrdy/UvYrEqC5ye5fN9xjYWi73ebebZYL5ewtKyMpFIxJAAAAAAowDGxLvlzdjJSMZZzXdmZQBbq1FGLlJ2UU233JXZyX/hGNxVSdWOGn/Ek5Nu0Y5ybycrJpX4HXgQ1aKqYy9yKtzaqvhSbSXL4znWE+j+tLOrWhDujFzlbxaSfme9hNScFDOUZTf3pyS/pjbLrc2cHyNvTjw8d58hY28Ptz13+Z570RhXTdL0FPYe+Kilnzus79+807TGocleWEldf7U2lLopvJ+NurOgg9TowmsNEla2pVViS+fPwcPxeFqUpbFWnKEuUotX6c13osncMRQhUi41IRlF74ySafgzwMdqXgql2qcoN8YVJfCV0vBFSdnL7X6GVU7Kmv7JJ9d38eRy8G9V/o9X2MV4So3fmpfIxJfR/iOGIpvrGa+TIXbVVwKrsLhfb+17moA3CH0fV+OIprpCb/ACMzD/R7Ff6mJlJco0kvfJv4BW1V8BGwuH9vi17mhGVo/R1fEPZo0pTzs7Lsrq3kvFnTMBqjgqWapbTXGcpP+3d7j3acFFKMUkluSSSXRE8LN/c/At0uypf9kvD3fszSdDaiRVp4qW2/9qN1H8Ur3fRW8TdKNGMIqEIqMYq0YxSSS5JLcXQXIU4wWIo1aNvTorEFj5zBjYnFKGW+T3L5vuLNbG37NPP73Dw5kaGGzu8297Z7JiNGi5Palm2ehCFhCFiYAAAAAAAIVGTLdUAt4Ves+bt5GQY3plFWs305liWKqP1Ypdc2AegWqleEd8ku6+fkYLp1JetN+dl5InTwSXAAnPHx+zFv3L3luWJqy3JR8Lv3/kZEMOi6qSAMCnUqxzb2u5/LkZNPGQe/svv3eZfdNFmph0wDJB531dx9VtdGSVaquT6r8gDPBgrGy40/KX6Ffr33JeaAM0GF9f8AuPzRF42fCmvGX6AGeRlJLe0urMB1a0uKXRfmRWFbzk2+ruAX6uOisopyfkvMx5KdT1nlyW79TKp4ZIvxgkAWKOHSMiMSQAAAAAAAAAABRoqAC06RVUkXAARUStioAAAAAAAKNEXBEwAWnSRT0CLwALPoEVVJF0AEFBEkioAAAAAAAAAAAAAAAAAAAAAAAAAAAAAAAAAAAAAAAAAAAAAAAAAAAAAAAAAAP//Z;" parent="1" vertex="1">
          <mxGeometry x="522" y="208" width="49.78" height="50" as="geometry" />
        </mxCell>
        <mxCell id="mbKo5V_DVtGHA1E1RYWK-11" value="" style="endArrow=classic;startArrow=classic;html=1;rounded=0;" parent="1" edge="1">
          <mxGeometry width="50" height="50" relative="1" as="geometry">
            <mxPoint x="482" y="272" as="sourcePoint" />
            <mxPoint x="592" y="272" as="targetPoint" />
          </mxGeometry>
        </mxCell>
        <mxCell id="mbKo5V_DVtGHA1E1RYWK-17" value="" style="endArrow=classic;startArrow=classic;html=1;rounded=0;" parent="1" edge="1">
          <mxGeometry width="50" height="50" relative="1" as="geometry">
            <mxPoint x="795" y="272.5" as="sourcePoint" />
            <mxPoint x="905" y="272.5" as="targetPoint" />
          </mxGeometry>
        </mxCell>
        <mxCell id="mbKo5V_DVtGHA1E1RYWK-25" style="edgeStyle=orthogonalEdgeStyle;rounded=0;orthogonalLoop=1;jettySize=auto;html=1;entryX=0;entryY=0.5;entryDx=0;entryDy=0;" parent="1" source="mbKo5V_DVtGHA1E1RYWK-18" target="mbKo5V_DVtGHA1E1RYWK-19" edge="1">
          <mxGeometry relative="1" as="geometry" />
        </mxCell>
        <mxCell id="mbKo5V_DVtGHA1E1RYWK-26" style="edgeStyle=orthogonalEdgeStyle;rounded=0;orthogonalLoop=1;jettySize=auto;html=1;" parent="1" source="mbKo5V_DVtGHA1E1RYWK-18" target="mbKo5V_DVtGHA1E1RYWK-22" edge="1">
          <mxGeometry relative="1" as="geometry" />
        </mxCell>
        <mxCell id="mbKo5V_DVtGHA1E1RYWK-27" style="edgeStyle=orthogonalEdgeStyle;rounded=0;orthogonalLoop=1;jettySize=auto;html=1;entryX=0;entryY=0.5;entryDx=0;entryDy=0;" parent="1" source="mbKo5V_DVtGHA1E1RYWK-18" target="mbKo5V_DVtGHA1E1RYWK-23" edge="1">
          <mxGeometry relative="1" as="geometry" />
        </mxCell>
        <mxCell id="mbKo5V_DVtGHA1E1RYWK-28" style="edgeStyle=orthogonalEdgeStyle;rounded=0;orthogonalLoop=1;jettySize=auto;html=1;entryX=0;entryY=0.5;entryDx=0;entryDy=0;" parent="1" source="mbKo5V_DVtGHA1E1RYWK-18" target="mbKo5V_DVtGHA1E1RYWK-24" edge="1">
          <mxGeometry relative="1" as="geometry" />
        </mxCell>
        <mxCell id="mbKo5V_DVtGHA1E1RYWK-18" value="WhatsApp Manager" style="rounded=1;whiteSpace=wrap;html=1;fillColor=#dae8fc;strokeColor=#6c8ebf;fontStyle=1" parent="1" vertex="1">
          <mxGeometry x="952" y="248" width="100" height="50" as="geometry" />
        </mxCell>
        <mxCell id="mbKo5V_DVtGHA1E1RYWK-19" value="RTP" style="rounded=1;whiteSpace=wrap;html=1;" parent="1" vertex="1">
          <mxGeometry x="1102" y="186" width="70" height="30" as="geometry" />
        </mxCell>
        <mxCell id="mbKo5V_DVtGHA1E1RYWK-20" value="" style="shape=image;verticalLabelPosition=bottom;labelBackgroundColor=default;verticalAlign=top;aspect=fixed;imageAspect=0;image=data:image/png,iVBORw0KGgoAAAANSUhEUgAAAT4AAACfCAMAAABX0UX9AAAA1VBMVEX///8JJzAAgv8BZuYAausAcvAAHikCJS73+PkAIixVZmwAFSEAGSQAHykADBt9i48zSVCRm5/a3+Dw8/QHLTYAff85TlUAEyABffoAfP8BdfO+xskAYuoAXOUAFCAAbe21u77P1dedp6vm8vwAZOjw+P2Qm59ufYLd6/qQvvgSMTrk6OlKXWODkJSnsbQABRhgn/Kszvh8sfXN4vlzgoe+2fklPkbL0dNfb3RPnPklgO8Td+yy0fk9lPsmjPtLmvptp/OaxPgVhvuGuPY2hu4AAABbovoN9YhIAAALW0lEQVR4nO2baUPiyhJAg0JCyCIjQgBxwhIEWURkU1EH1Ov//0kvSVc66SU4jnDfc16d+XCvZgGOXV3VlUZREARBEARBEARBEARBEARBEARBEARBEARBEARBEARBEARBEARBEARBEARBEARBEARBEOT/m26nu/N4Pv8vvZHvR2d6/7DOrR9uph3p8e7j5un5+fnX1exffmPfgf7GvfC8Y/9f48K9EQ11bo9q5erRUbVcLj9Nd97qpACc7H7J01F04rcf07dewzuO8BqNDRfE22r5iFKtPe0agYWflur/s1S7tfM1/fMCVFX7tL4S4bOXHYj+w8Uxy8V6kTjeva8dMVRr2/S7FdQMwRrtetFzG07Tzj6r79TUNE3XJ8NPXncYZnXvmMdrXNHjnefyEU9tk3o7qi9jN3e8atH6c32qFmCffvK6gzDLivaCAbiB49ReuVYrU5G197T7xfr0YvqrXkeD74/0kb/O/4K+vpuw54n+8mCvXH3fTreblyiOa7cpN4z1ZezrtFfND7S/Ql/3wcuCLz/n5rwLj/N3X4bRRuqZ/PQFRmAtJQEn9OmDtOn98mfmr9B308gSfZ63mXU6/cVNnIMvXhXllYy2RK7obmAAVvvSOyb0ZZxL+asOz7S/Qt+jby/05z1Excjsjebhi+kC7D0mL7olvyz/kt4yqU8z5NnxxMj8Dfq69WzIsfeWqPQ2cR0jj1MYf/LwTerLmD3ZKacJe99Z36ZB9Hlrpk5+Zf3VXvnrfpH570W2RAZ9GglPR/YZ70xyyhf1/bfrvr6XBbhpLPbn+kEq1ij9Khl+V8KRSJ+2JLlVldTOK1K0aBUtTV++1byc93on1ytZ7hlaH+jLt67Hvd78snlYwTegryEsIuL4rUvHGGSUquQQ0aeP2g75kOfCGZXw46uFtiHXd3oyMGzD9HHss7vE9aVlJaAIw7ZYAYpz5vL5wAkvN2y10gx+cxmeWUzJY39KP+u6YehKcsAbzb/lhXhU6b7wCZkC+orKUof/4WiSwWec/pDqG/YcQ49nRtUe0fgvTSzdJ8raeoRRiC8v9Rwzriktu7jyM5UTnOV80MP4LBvPDch6kg5AJxdV0g/Sa6/I8HsWj1B9oMnha2cS1X5Skeq71s0Mi2pGdyg5GSlWrO98YHDH7LYyDm9p7ldfdx3ac70b2dHHRlRNS9sDXcjJ4tCk+pRRGKTagB1dJKg1ayjVN55oGR5tAmH3sb5rW+cPapP2QfQ9NkCfvP30AOHr5aT905sw+ZY3woFYH6SIn8ycUyIpOSioJfpO4qWwZVlUxaRNrv1IXzMhX9NokFf0A+i7yZLYlVe/21o0+TWkoxMKajGvxPqUnkk+RzIBkopZD4akqK89gU9sGoPR3WipGpAl7FVwuPSPHRAt+BwbmEB6P6WznuVPgGdnOkyD5M+wX300dh9lRzvVoyr1J0seeYheYegm9MHHMRKJcUh+FTYTBH3Rx9fNHmm1Di81UqRYxeCkfDOkDTrazYgVuT5qgulOpd0q5UvD8/lZPBXuV9+skcsF+tbSx0PvfmzG2UNW2L6T6BUaLwl9fsoL37gR186kYiZHBX0jUg9bgxU9f1ghmSTZvBmmlM1tiHxr0IzPndvaQfRdebmA7EZ2cBqGJl37yspjckr1if99Ul+JtAbMu+jgKlkM8vrOSehqZ0kveVIlasv4T5iyaIuaYNaS8XrtaIfQd++G+qSxC2UdbUNnJdljBo0rfvAm9UGazUyi2ncEFXP4A6+PHMw4K+Z+ENGJ8jtFH3RgWfvx7/erL18P7eVcWV7dlMnIevLSs0c0+fFtK0Yf1M5WhfwUVcxkZuP0QSPBnHM3PDHZEZymD+yLjwhgib1Xff0ssfcmORa1qRZ9b0f2+FUVe1kKrw+Ekc+UJzKjNgynr00yqspPaURronyU6yuR3+oV4Y0OSQmzV30LMvW5snH1HIop3yvKbVA8Z+Vrj1eSO/h2DKsPxoQeTl1kbqeFDKePnCl5PrcklSK1Jdd3TuYJYZFD77xXfVPIHEIzirZDg5qkuw57+dmsJHtsa9LCmdPXgqVbmyYSWkaz+mDml3z8O5UNSrm+SxL7sgZtYf/6XknwZsWW5wyayZvgh+lFIM8fgOIcSUJcaGdx+mDm0bSSMg7Hh06jkNUH5YjRPOWZh0dMuniR6+uZ7Osm39L+9d2CPnFSe4KUSny9+cMvbGoJUT6TVy68PiiUjZNSomIOYfWdworDsHmILZXmDrk+iP07ReQA+m5An/C8ZwuhC1E9g4Z0VsgeHaKPb7rw+pQxiaoz8iESB1h9rWjBlkLcF5Drg4Utn7fDt3QAfaTsc3l9HdJIjheztKHP52jQ98K/V14fTHkZqCvi+o3VR3dtfE2fzNEB9L0TfUJB/F7mHgN13GMYflz26P6mPrqYCkMw0dlk9a2+lT4YfXzwTqELn5jRthcQvtxI/d3Rp+SLcRMu+ZnlwSvOfWxbZffcp/5bcx/oYzsmnSNJI+UBHolwTf3+7+qLaucM23zhUwcsOtrnKdC1nFwfKW8kVfNB9G0gdbCLBtiSwRZzC5o9mMbzrFYN+CjzBsB6KqMxSwpWH0yRsrKXQ64PMpQqeTZ3wLqPmdCuog1AbB/gJvLHhPo01CfsNZDpW9k62VPGNJ65VQeZvJKTYwpyfU1YdYhP9g6hD1Yd7n3id7DWFbYPdNysJPvehvqEnX4yfUrvbBBQZIYGp48MH03/8OEs6Juw+oYw+sTJrzTY/5p3RkZfrh6n3v4RKVrK9/zJWxq+ieL5JYxd4VmlVF+ebKdl266cvhYZPtLKjSFql3LjrAL9LmFPMOyo2au+rm8uV6/XXbro7b9AySfZOvUr2o/QoN3lR5fo47v1Un1S+H4f6cfw/b6AFjMi89CEHbMnQW/R4pMH9BL23i6tE+Dzz17K1dRn351o8qP+Out6qG93u3QnvD7a7+T3xTQNtg0jfwA/hOfnP9ltSefmQbrN22w4+ny2fvz2yUwmDd2A6QX197To5rvTNVwsnP3n+qJHPbrGhOWwZ2sOE9GkOxB2cZLAk5WMU4gHa37sHOZZR7ce4Vafn+ukCqn6dZz8azEbmn29xvqh7vllo39p1RVaDl/Qt4LKWXfu6ATWmofbDiZJVVEdaY6JpxL8J9rxa2pjcn3rchBvY93zc97XLBVI4jCknPadjTe6HStcgQRVt3+huEvjC/qUy/g57/Lu5HI8LwwMiL1koiip4MmwlqNRZRmt55rR5ZppDoqV4sAMd8toh3jOq3RfcoK8atqO5WCy85L2iL6s+KDpK/qUHl2f6KppGKZFdw1MkgXJCd1uoFuWrplRrTiOuzYa3UukZ0aH2GWgLFzRnuyRJNBP+HNDf/WspNX/JX1KT7LHJbidzXz20oDZyhJ3E+Zi30GbNC8PscfFzwfEX5UK3PVtoeDbRw1Wn/smeX7+NX1K21BFA86Aq/FWZtJfYofVeMLtEbKc5mF2WPksqm5i8NWOZLsxEnRvGl4cvK53L9+cGyzPrN/R5wRn6tz+vtOCbSZHoKbagx/Cn6k1cOKTkgu986WTEKjblVZQNwcvZOxdn9LZ5FwSvuVaeSPPuUkWbw26AFnLh2pBO/PRZJ0Pjh9qcObZgHez6mm2owY7IS3TsbXCtWyPSGk88E8KvnpoOsy8mG8vnfBq/2KjGDYgxlbwOtb+9fkRefX0UnfrL09X8q9p8Cxu39Y5N/fwPk356nTpt7/vmE89s3T+ozeqVCqFXvs8fQezf1JhNLqbCzugW+3g6lGv3WJe6EBffO32+/3dXyPnzu/0O9/+O7gIgiAIgiAIgiAIgiAIgiAIgiAIgiAIgiAIgiAIgiAIgiAIgiAIgiAIgiAIgiAIgiAI8pfzH+U1JYfqLz76AAAAAElFTkSuQmCC;clipPath=inset(20.67% 8.67% 24.67% 9.67%);" parent="1" vertex="1">
          <mxGeometry x="702" y="288" width="59.76" height="20" as="geometry" />
        </mxCell>
        <mxCell id="mbKo5V_DVtGHA1E1RYWK-22" value="Mi AT&amp;amp;T" style="rounded=1;whiteSpace=wrap;html=1;" parent="1" vertex="1">
          <mxGeometry x="1102" y="236" width="70" height="30" as="geometry" />
        </mxCell>
        <mxCell id="mbKo5V_DVtGHA1E1RYWK-23" value="e-commerce" style="rounded=1;whiteSpace=wrap;html=1;" parent="1" vertex="1">
          <mxGeometry x="1102" y="286" width="70" height="30" as="geometry" />
        </mxCell>
        <mxCell id="mbKo5V_DVtGHA1E1RYWK-24" value="Salesforce" style="rounded=1;whiteSpace=wrap;html=1;" parent="1" vertex="1">
          <mxGeometry x="1102" y="336" width="70" height="30" as="geometry" />
        </mxCell>
        <mxCell id="E_kv2T5svfEyYxgCmkpt-11" value="" style="edgeStyle=orthogonalEdgeStyle;rounded=0;orthogonalLoop=1;jettySize=auto;html=1;endArrow=none;endFill=0;" parent="1" source="idVqmQN0-lgMuyCXY8RU-8" target="E_kv2T5svfEyYxgCmkpt-1" edge="1">
          <mxGeometry relative="1" as="geometry" />
        </mxCell>
        <mxCell id="E_kv2T5svfEyYxgCmkpt-12" value="" style="edgeStyle=orthogonalEdgeStyle;rounded=0;orthogonalLoop=1;jettySize=auto;html=1;endArrow=none;endFill=0;" parent="1" source="E_kv2T5svfEyYxgCmkpt-1" target="E_kv2T5svfEyYxgCmkpt-2" edge="1">
          <mxGeometry relative="1" as="geometry" />
        </mxCell>
        <mxCell id="E_kv2T5svfEyYxgCmkpt-1" value="VPN" style="sketch=0;outlineConnect=0;fontColor=#232F3E;gradientColor=none;fillColor=#4D27AA;strokeColor=none;dashed=0;verticalLabelPosition=bottom;verticalAlign=top;align=center;html=1;fontSize=12;fontStyle=0;aspect=fixed;pointerEvents=1;shape=mxgraph.aws4.vpn_connection;" parent="1" vertex="1">
          <mxGeometry x="880" y="751" width="70" height="78" as="geometry" />
        </mxCell>
        <mxCell id="E_kv2T5svfEyYxgCmkpt-9" style="edgeStyle=orthogonalEdgeStyle;rounded=0;orthogonalLoop=1;jettySize=auto;html=1;" parent="1" edge="1">
          <mxGeometry relative="1" as="geometry">
            <mxPoint x="534.4736842105262" y="736" as="sourcePoint" />
            <mxPoint x="714.0526315789475" y="736" as="targetPoint" />
            <Array as="points">
              <mxPoint x="534" y="690" />
              <mxPoint x="714" y="690" />
            </Array>
          </mxGeometry>
        </mxCell>
        <mxCell id="E_kv2T5svfEyYxgCmkpt-16" value="" style="shape=image;html=1;verticalAlign=top;verticalLabelPosition=bottom;labelBackgroundColor=#ffffff;imageAspect=0;aspect=fixed;image=https://cdn0.iconfinder.com/data/icons/phosphor-regular-vol-4/256/robot-128.png" parent="1" vertex="1">
          <mxGeometry x="730" y="713.5" width="40" height="40" as="geometry" />
        </mxCell>
        <mxCell id="E_kv2T5svfEyYxgCmkpt-20" value="RTP&lt;br&gt;Campaign Manager" style="rounded=0;whiteSpace=wrap;html=1;fillColor=#dae8fc;strokeColor=#6c8ebf;strokeWidth=2;" parent="1" vertex="1">
          <mxGeometry x="1080" y="737.5" width="129.55" height="95" as="geometry" />
        </mxCell>
        <mxCell id="E_kv2T5svfEyYxgCmkpt-22" value="" style="dashed=0;outlineConnect=0;html=1;align=center;labelPosition=center;verticalLabelPosition=bottom;verticalAlign=top;shape=mxgraph.webicons.sms;fillColor=#86D466;gradientColor=#42B418" parent="1" vertex="1">
          <mxGeometry x="1288" y="697.75" width="46.5" height="46.5" as="geometry" />
        </mxCell>
        <mxCell id="E_kv2T5svfEyYxgCmkpt-24" value="" style="sketch=0;outlineConnect=0;fontColor=#232F3E;gradientColor=none;fillColor=#666666;strokeColor=none;verticalLabelPosition=bottom;verticalAlign=top;align=center;html=1;fontSize=12;fontStyle=0;aspect=fixed;pointerEvents=1;shape=mxgraph.aws4.iot_analytics_channel;rotation=-180;" parent="1" vertex="1">
          <mxGeometry x="1230" y="764" width="35" height="42" as="geometry" />
        </mxCell>
        <mxCell id="mbKo5V_DVtGHA1E1RYWK-16" value="" style="aspect=fixed;html=1;points=[];align=center;image;fontSize=12;image=img/lib/azure2/networking/Web_Application_Firewall_Policies_WAF.svg;" parent="1" vertex="1">
          <mxGeometry x="934" y="258" width="30" height="30" as="geometry" />
        </mxCell>
        <mxCell id="E_kv2T5svfEyYxgCmkpt-31" value="Robot&lt;br style=&quot;border-color: var(--border-color); text-align: left;&quot;&gt;&lt;span style=&quot;border-color: var(--border-color); text-align: left;&quot;&gt;2way&lt;/span&gt;" style="ellipse;whiteSpace=wrap;html=1;aspect=fixed;fillColor=#e1d5e7;strokeColor=#9673a6;direction=west;" parent="1" vertex="1">
          <mxGeometry x="676" y="742.5" width="73.5" height="73.5" as="geometry" />
        </mxCell>
        <mxCell id="E_kv2T5svfEyYxgCmkpt-32" value="WhatsApp&lt;br style=&quot;border-color: var(--border-color); color: rgb(35, 47, 62); text-align: right;&quot;&gt;&lt;span style=&quot;color: rgb(35, 47, 62); text-align: right;&quot;&gt;Manager&lt;/span&gt;" style="ellipse;whiteSpace=wrap;html=1;aspect=fixed;fillColor=#d5e8d4;strokeColor=#82b366;direction=west;" parent="1" vertex="1">
          <mxGeometry x="500.03" y="744.25" width="71.75" height="71.75" as="geometry" />
        </mxCell>
        <mxCell id="E_kv2T5svfEyYxgCmkpt-33" value="" style="ellipse;whiteSpace=wrap;html=1;aspect=fixed;fillColor=#d5e8d4;strokeColor=#82b366;direction=west;" parent="1" vertex="1">
          <mxGeometry x="500.03" y="1020" width="30" height="30" as="geometry" />
        </mxCell>
        <mxCell id="E_kv2T5svfEyYxgCmkpt-34" value="Applicación para la administración y configuración de Interacciones con WhatsApp" style="text;html=1;strokeColor=none;fillColor=none;align=left;verticalAlign=middle;whiteSpace=wrap;rounded=0;" parent="1" vertex="1">
          <mxGeometry x="538.03" y="1020" width="321.97" height="30" as="geometry" />
        </mxCell>
        <mxCell id="E_kv2T5svfEyYxgCmkpt-35" value="" style="ellipse;whiteSpace=wrap;html=1;aspect=fixed;fillColor=#e1d5e7;strokeColor=#9673a6;direction=west;" parent="1" vertex="1">
          <mxGeometry x="502" y="1070" width="30" height="30" as="geometry" />
        </mxCell>
        <mxCell id="E_kv2T5svfEyYxgCmkpt-36" value="Robot para aplicar las reglas de flujo de cada campaña o promoción para tomar decisiones durante la interacción con el usuario final" style="text;html=1;strokeColor=none;fillColor=none;align=left;verticalAlign=middle;whiteSpace=wrap;rounded=0;" parent="1" vertex="1">
          <mxGeometry x="540" y="1070" width="310" height="30" as="geometry" />
        </mxCell>
        <mxCell id="E_kv2T5svfEyYxgCmkpt-37" value="" style="shape=image;html=1;verticalAlign=top;verticalLabelPosition=bottom;labelBackgroundColor=#ffffff;imageAspect=0;aspect=fixed;image=https://cdn2.iconfinder.com/data/icons/social-media-2285/512/1_Whatsapp2_colored_svg-128.png" parent="1" vertex="1">
          <mxGeometry x="334" y="747" width="67.5" height="67.5" as="geometry" />
        </mxCell>
        <mxCell id="E_kv2T5svfEyYxgCmkpt-42" value="" style="edgeStyle=orthogonalEdgeStyle;rounded=0;orthogonalLoop=1;jettySize=auto;html=1;endArrow=none;endFill=0;" parent="1" source="E_kv2T5svfEyYxgCmkpt-37" target="E_kv2T5svfEyYxgCmkpt-32" edge="1">
          <mxGeometry relative="1" as="geometry">
            <mxPoint x="398" y="781" as="sourcePoint" />
            <mxPoint x="402" y="780.1052631578948" as="targetPoint" />
          </mxGeometry>
        </mxCell>
        <mxCell id="0eJ0yHEzY1M87zZovxct-1" value="" style="outlineConnect=0;dashed=0;verticalLabelPosition=bottom;verticalAlign=top;align=center;html=1;shape=mxgraph.aws3.email;fillColor=#D9A741;gradientColor=none;" parent="1" vertex="1">
          <mxGeometry x="1281.8199999999997" y="764" width="52.68" height="40" as="geometry" />
        </mxCell>
        <mxCell id="0eJ0yHEzY1M87zZovxct-2" value="" style="shape=image;html=1;verticalAlign=top;verticalLabelPosition=bottom;labelBackgroundColor=#ffffff;imageAspect=0;aspect=fixed;image=https://cdn4.iconfinder.com/data/icons/ionicons/512/icon-iphone-128.png" parent="1" vertex="1">
          <mxGeometry x="1272.5" y="816" width="77.5" height="77.5" as="geometry" />
        </mxCell>
      </root>
    </mxGraphModel>
  </diagram>
  <diagram name="MVP 1 - Sandbox" id="BJoaFIh6yjqqxEX01Ofy">
    <mxGraphModel dx="1687" dy="936" grid="1" gridSize="10" guides="1" tooltips="1" connect="1" arrows="1" fold="1" page="1" pageScale="1" pageWidth="1169" pageHeight="827" math="0" shadow="0">
      <root>
        <mxCell id="gmBOiB6q5B-78Qpn2rzr-0" />
        <mxCell id="gmBOiB6q5B-78Qpn2rzr-1" parent="gmBOiB6q5B-78Qpn2rzr-0" />
        <mxCell id="faOBnqONsV37q101A3Ud-65" value="" style="endArrow=none;html=1;rounded=0;endFill=0;" parent="gmBOiB6q5B-78Qpn2rzr-1" source="faOBnqONsV37q101A3Ud-68" target="faOBnqONsV37q101A3Ud-58" edge="1">
          <mxGeometry width="50" height="50" relative="1" as="geometry">
            <mxPoint x="1591" y="285" as="sourcePoint" />
            <mxPoint x="1781" y="285" as="targetPoint" />
          </mxGeometry>
        </mxCell>
        <mxCell id="gmBOiB6q5B-78Qpn2rzr-38" value="Whats AT&amp;amp;T Manager" style="text;html=1;resizable=0;points=[];autosize=1;align=left;verticalAlign=top;spacingTop=-4;fontSize=30;fontStyle=1;labelBackgroundColor=none;" parent="gmBOiB6q5B-78Qpn2rzr-1" vertex="1">
          <mxGeometry x="27.5" y="21.5" width="330" height="40" as="geometry" />
        </mxCell>
        <mxCell id="gmBOiB6q5B-78Qpn2rzr-39" value="Arquitectura V 1.0" style="text;html=1;resizable=0;points=[];autosize=1;align=left;verticalAlign=top;spacingTop=-4;fontSize=16;labelBackgroundColor=none;" parent="gmBOiB6q5B-78Qpn2rzr-1" vertex="1">
          <mxGeometry x="27.5" y="71.5" width="150" height="30" as="geometry" />
        </mxCell>
        <mxCell id="gmBOiB6q5B-78Qpn2rzr-40" value="" style="line;strokeWidth=2;html=1;fontSize=14;labelBackgroundColor=none;" parent="gmBOiB6q5B-78Qpn2rzr-1" vertex="1">
          <mxGeometry x="23.5" y="96.5" width="1587.5" height="14.32" as="geometry" />
        </mxCell>
        <mxCell id="6jpJevCDg_fT3UT0M3OK-7" style="edgeStyle=orthogonalEdgeStyle;rounded=0;orthogonalLoop=1;jettySize=auto;html=1;" parent="gmBOiB6q5B-78Qpn2rzr-1" source="gmBOiB6q5B-78Qpn2rzr-41" target="faOBnqONsV37q101A3Ud-97" edge="1">
          <mxGeometry relative="1" as="geometry">
            <mxPoint x="401" y="323.5" as="targetPoint" />
          </mxGeometry>
        </mxCell>
        <mxCell id="gmBOiB6q5B-78Qpn2rzr-41" value="Users" style="swimlane;fontSize=14;align=center;swimlaneFillColor=#f4f4f4;fillColor=#f4f4f4;startSize=33;container=1;pointerEvents=0;collapsible=0;recursiveResize=0;" parent="gmBOiB6q5B-78Qpn2rzr-1" vertex="1">
          <mxGeometry x="76" y="256" width="210" height="135" as="geometry" />
        </mxCell>
        <mxCell id="gmBOiB6q5B-78Qpn2rzr-42" value="Business" style="outlineConnect=0;fontColor=#232F3E;gradientColor=none;fillColor=#232F3E;strokeColor=none;dashed=0;verticalLabelPosition=bottom;verticalAlign=top;align=center;html=1;fontSize=12;fontStyle=0;aspect=fixed;pointerEvents=1;shape=mxgraph.aws4.user;labelBackgroundColor=none;" parent="gmBOiB6q5B-78Qpn2rzr-41" vertex="1">
          <mxGeometry x="82" y="61" width="46" height="46" as="geometry" />
        </mxCell>
        <mxCell id="uycYp04cdWMD1vqDstz6-43" style="edgeStyle=orthogonalEdgeStyle;rounded=0;orthogonalLoop=1;jettySize=auto;html=1;strokeColor=none;startArrow=block;startFill=1;" parent="gmBOiB6q5B-78Qpn2rzr-1" target="uycYp04cdWMD1vqDstz6-36" edge="1">
          <mxGeometry relative="1" as="geometry">
            <mxPoint x="339" y="785" as="sourcePoint" />
          </mxGeometry>
        </mxCell>
        <mxCell id="faOBnqONsV37q101A3Ud-95" value="" style="edgeStyle=orthogonalEdgeStyle;rounded=0;orthogonalLoop=1;jettySize=auto;html=1;startArrow=classic;startFill=1;" parent="gmBOiB6q5B-78Qpn2rzr-1" source="gmBOiB6q5B-78Qpn2rzr-51" target="uycYp04cdWMD1vqDstz6-36" edge="1">
          <mxGeometry relative="1" as="geometry" />
        </mxCell>
        <mxCell id="gmBOiB6q5B-78Qpn2rzr-51" value="WhasApp Cloud API" style="html=1;strokeColor=#82b366;fillColor=#d5e8d4;labelPosition=center;verticalLabelPosition=middle;verticalAlign=top;align=center;fontSize=12;outlineConnect=0;spacingTop=-6;sketch=0;shape=mxgraph.sitemap.cloud;" parent="gmBOiB6q5B-78Qpn2rzr-1" vertex="1">
          <mxGeometry x="66" y="1155.5" width="210" height="127" as="geometry" />
        </mxCell>
        <mxCell id="uycYp04cdWMD1vqDstz6-0" value="AWS Cloud" style="points=[[0,0],[0.25,0],[0.5,0],[0.75,0],[1,0],[1,0.25],[1,0.5],[1,0.75],[1,1],[0.75,1],[0.5,1],[0.25,1],[0,1],[0,0.75],[0,0.5],[0,0.25]];outlineConnect=0;gradientColor=none;html=1;whiteSpace=wrap;fontSize=11;fontStyle=0;shape=mxgraph.aws4.group;grIcon=mxgraph.aws4.group_aws_cloud_alt;strokeColor=#232F3E;fillColor=none;verticalAlign=top;align=left;spacingLeft=30;fontColor=#232F3E;dashed=0;labelBackgroundColor=none;container=0;pointerEvents=0;collapsible=0;recursiveResize=0;" parent="gmBOiB6q5B-78Qpn2rzr-1" vertex="1">
          <mxGeometry x="351" y="122" width="1250" height="1498" as="geometry" />
        </mxCell>
        <mxCell id="faOBnqONsV37q101A3Ud-58" value="&lt;font color=&quot;#000000&quot;&gt;On-Premise AT&amp;amp;T&lt;/font&gt;" style="sketch=0;outlineConnect=0;gradientColor=none;html=1;whiteSpace=wrap;fontSize=12;fontStyle=0;shape=mxgraph.aws4.group;grIcon=mxgraph.aws4.group_on_premise;strokeColor=#000000;fillColor=none;verticalAlign=top;align=left;spacingLeft=30;fontColor=#858B94;dashed=0;" parent="gmBOiB6q5B-78Qpn2rzr-1" vertex="1">
          <mxGeometry x="1766" y="122" width="383" height="313" as="geometry" />
        </mxCell>
        <mxCell id="faOBnqONsV37q101A3Ud-70" value="" style="endArrow=none;html=1;rounded=0;endFill=0;" parent="gmBOiB6q5B-78Qpn2rzr-1" target="faOBnqONsV37q101A3Ud-68" edge="1">
          <mxGeometry width="50" height="50" relative="1" as="geometry">
            <mxPoint x="1601" y="285" as="sourcePoint" />
            <mxPoint x="1791" y="285" as="targetPoint" />
          </mxGeometry>
        </mxCell>
        <mxCell id="faOBnqONsV37q101A3Ud-68" value="VPN" style="sketch=0;outlineConnect=0;fontColor=#232F3E;gradientColor=none;fillColor=#4D27AA;strokeColor=none;dashed=0;verticalLabelPosition=bottom;verticalAlign=top;align=center;html=1;fontSize=12;fontStyle=0;aspect=fixed;pointerEvents=1;shape=mxgraph.aws4.vpn_connection;" parent="gmBOiB6q5B-78Qpn2rzr-1" vertex="1">
          <mxGeometry x="1648" y="246" width="70" height="78" as="geometry" />
        </mxCell>
        <mxCell id="faOBnqONsV37q101A3Ud-87" value="" style="edgeStyle=orthogonalEdgeStyle;rounded=0;orthogonalLoop=1;jettySize=auto;html=1;endArrow=none;endFill=0;" parent="gmBOiB6q5B-78Qpn2rzr-1" source="faOBnqONsV37q101A3Ud-71" target="faOBnqONsV37q101A3Ud-72" edge="1">
          <mxGeometry relative="1" as="geometry" />
        </mxCell>
        <mxCell id="faOBnqONsV37q101A3Ud-89" value="" style="edgeStyle=orthogonalEdgeStyle;rounded=0;orthogonalLoop=1;jettySize=auto;html=1;endArrow=none;endFill=0;" parent="gmBOiB6q5B-78Qpn2rzr-1" source="faOBnqONsV37q101A3Ud-71" edge="1">
          <mxGeometry relative="1" as="geometry">
            <mxPoint x="1601" y="765" as="targetPoint" />
          </mxGeometry>
        </mxCell>
        <mxCell id="faOBnqONsV37q101A3Ud-71" value="Direct Connect" style="outlineConnect=0;dashed=0;verticalLabelPosition=bottom;verticalAlign=top;align=center;html=1;shape=mxgraph.aws3.direct_connect;fillColor=#F58536;gradientColor=none;" parent="gmBOiB6q5B-78Qpn2rzr-1" vertex="1">
          <mxGeometry x="1656.5" y="724" width="67.5" height="81" as="geometry" />
        </mxCell>
        <mxCell id="faOBnqONsV37q101A3Ud-85" value="" style="edgeStyle=orthogonalEdgeStyle;rounded=0;orthogonalLoop=1;jettySize=auto;html=1;endArrow=none;endFill=0;" parent="gmBOiB6q5B-78Qpn2rzr-1" source="faOBnqONsV37q101A3Ud-72" target="faOBnqONsV37q101A3Ud-82" edge="1">
          <mxGeometry relative="1" as="geometry" />
        </mxCell>
        <mxCell id="faOBnqONsV37q101A3Ud-72" value="&lt;font color=&quot;#000000&quot;&gt;AT&amp;amp;T AWS Cloud&lt;/font&gt;" style="sketch=0;outlineConnect=0;gradientColor=none;html=1;whiteSpace=wrap;fontSize=12;fontStyle=0;shape=mxgraph.aws4.group;grIcon=mxgraph.aws4.group_aws_cloud;strokeColor=#000000;fillColor=none;verticalAlign=top;align=left;spacingLeft=30;fontColor=#AAB7B8;dashed=0;" parent="gmBOiB6q5B-78Qpn2rzr-1" vertex="1">
          <mxGeometry x="1766" y="635" width="383" height="258" as="geometry" />
        </mxCell>
        <mxCell id="faOBnqONsV37q101A3Ud-83" value="" style="edgeStyle=orthogonalEdgeStyle;rounded=0;orthogonalLoop=1;jettySize=auto;html=1;endArrow=none;endFill=0;" parent="gmBOiB6q5B-78Qpn2rzr-1" source="faOBnqONsV37q101A3Ud-82" target="faOBnqONsV37q101A3Ud-58" edge="1">
          <mxGeometry relative="1" as="geometry" />
        </mxCell>
        <mxCell id="faOBnqONsV37q101A3Ud-82" value="" style="sketch=0;outlineConnect=0;fontColor=#232F3E;gradientColor=none;fillColor=#4D27AA;strokeColor=none;dashed=0;verticalLabelPosition=bottom;verticalAlign=top;align=center;html=1;fontSize=12;fontStyle=0;aspect=fixed;pointerEvents=1;shape=mxgraph.aws4.vpn_connection;" parent="gmBOiB6q5B-78Qpn2rzr-1" vertex="1">
          <mxGeometry x="1922.5" y="503" width="70" height="78" as="geometry" />
        </mxCell>
        <mxCell id="faOBnqONsV37q101A3Ud-86" value="WSO2" style="sketch=0;points=[[0,0,0],[0.25,0,0],[0.5,0,0],[0.75,0,0],[1,0,0],[0,1,0],[0.25,1,0],[0.5,1,0],[0.75,1,0],[1,1,0],[0,0.25,0],[0,0.5,0],[0,0.75,0],[1,0.25,0],[1,0.5,0],[1,0.75,0]];outlineConnect=0;fontColor=#232F3E;gradientColor=#945DF2;gradientDirection=north;fillColor=#5A30B5;strokeColor=#ffffff;dashed=0;verticalLabelPosition=bottom;verticalAlign=top;align=center;html=1;fontSize=12;fontStyle=0;aspect=fixed;shape=mxgraph.aws4.resourceIcon;resIcon=mxgraph.aws4.api_gateway;" parent="gmBOiB6q5B-78Qpn2rzr-1" vertex="1">
          <mxGeometry x="1922.5" y="715.5" width="78" height="78" as="geometry" />
        </mxCell>
        <mxCell id="faOBnqONsV37q101A3Ud-90" value="ESB MX" style="outlineConnect=0;dashed=0;verticalLabelPosition=bottom;verticalAlign=top;align=center;html=1;shape=mxgraph.aws3.application_load_balancer;fillColor=#F58534;gradientColor=none;" parent="gmBOiB6q5B-78Qpn2rzr-1" vertex="1">
          <mxGeometry x="2028" y="174" width="69" height="72" as="geometry" />
        </mxCell>
        <mxCell id="faOBnqONsV37q101A3Ud-91" value="RTP&lt;br&gt;(Campaign Manager)" style="outlineConnect=0;dashed=0;verticalLabelPosition=bottom;verticalAlign=top;align=center;html=1;shape=mxgraph.aws3.application_load_balancer;fillColor=#F58534;gradientColor=none;" parent="gmBOiB6q5B-78Qpn2rzr-1" vertex="1">
          <mxGeometry x="1838" y="174" width="69" height="72" as="geometry" />
        </mxCell>
        <mxCell id="faOBnqONsV37q101A3Ud-92" value="K2View" style="outlineConnect=0;dashed=0;verticalLabelPosition=bottom;verticalAlign=top;align=center;html=1;shape=mxgraph.aws3.application_load_balancer;fillColor=#F58534;gradientColor=none;" parent="gmBOiB6q5B-78Qpn2rzr-1" vertex="1">
          <mxGeometry x="1838" y="315" width="69" height="72" as="geometry" />
        </mxCell>
        <mxCell id="faOBnqONsV37q101A3Ud-93" value="Bluemarble" style="outlineConnect=0;dashed=0;verticalLabelPosition=bottom;verticalAlign=top;align=center;html=1;shape=mxgraph.aws3.application_load_balancer;fillColor=#F58534;gradientColor=none;" parent="gmBOiB6q5B-78Qpn2rzr-1" vertex="1">
          <mxGeometry x="2028" y="315" width="69" height="72" as="geometry" />
        </mxCell>
        <mxCell id="uycYp04cdWMD1vqDstz6-36" value="Internet Gateway" style="sketch=0;outlineConnect=0;fontColor=#232F3E;gradientColor=none;fillColor=#4D27AA;strokeColor=none;dashed=0;verticalLabelPosition=bottom;verticalAlign=top;align=center;html=1;fontSize=12;fontStyle=0;aspect=fixed;pointerEvents=1;shape=mxgraph.aws4.internet_gateway;" parent="gmBOiB6q5B-78Qpn2rzr-1" vertex="1">
          <mxGeometry x="409" y="1180" width="78" height="78" as="geometry" />
        </mxCell>
        <mxCell id="faOBnqONsV37q101A3Ud-26" value="" style="group" parent="gmBOiB6q5B-78Qpn2rzr-1" vertex="1" connectable="0">
          <mxGeometry x="505.5" y="151" width="1020" height="700" as="geometry" />
        </mxCell>
        <mxCell id="faOBnqONsV37q101A3Ud-1" value="Availability Zone 1" style="fillColor=none;strokeColor=#147EBA;dashed=1;verticalAlign=top;fontStyle=0;fontColor=#147EBA;whiteSpace=wrap;html=1;" parent="faOBnqONsV37q101A3Ud-26" vertex="1">
          <mxGeometry x="135.5" y="68" width="304.5" height="552" as="geometry" />
        </mxCell>
        <mxCell id="uycYp04cdWMD1vqDstz6-1" value="VPC" style="points=[[0,0],[0.25,0],[0.5,0],[0.75,0],[1,0],[1,0.25],[1,0.5],[1,0.75],[1,1],[0.75,1],[0.5,1],[0.25,1],[0,1],[0,0.75],[0,0.5],[0,0.25]];outlineConnect=0;gradientColor=none;html=1;whiteSpace=wrap;fontSize=12;fontStyle=0;container=1;pointerEvents=0;collapsible=0;recursiveResize=0;shape=mxgraph.aws4.group;grIcon=mxgraph.aws4.group_vpc;strokeColor=#248814;fillColor=none;verticalAlign=top;align=left;spacingLeft=30;fontColor=#AAB7B8;dashed=0;" parent="faOBnqONsV37q101A3Ud-26" vertex="1">
          <mxGeometry width="1020" height="700" as="geometry" />
        </mxCell>
        <mxCell id="faOBnqONsV37q101A3Ud-18" value="Availability Zone 2" style="fillColor=none;strokeColor=#147EBA;dashed=1;verticalAlign=top;fontStyle=0;fontColor=#147EBA;whiteSpace=wrap;html=1;" parent="uycYp04cdWMD1vqDstz6-1" vertex="1">
          <mxGeometry x="529.5" y="70" width="304.5" height="552" as="geometry" />
        </mxCell>
        <mxCell id="faOBnqONsV37q101A3Ud-19" value="Public subnet" style="points=[[0,0],[0.25,0],[0.5,0],[0.75,0],[1,0],[1,0.25],[1,0.5],[1,0.75],[1,1],[0.75,1],[0.5,1],[0.25,1],[0,1],[0,0.75],[0,0.5],[0,0.25]];outlineConnect=0;gradientColor=none;html=1;whiteSpace=wrap;fontSize=12;fontStyle=0;container=1;pointerEvents=0;collapsible=0;recursiveResize=0;shape=mxgraph.aws4.group;grIcon=mxgraph.aws4.group_security_group;grStroke=0;strokeColor=#248814;fillColor=#E9F3E6;verticalAlign=top;align=left;spacingLeft=30;fontColor=#248814;dashed=0;" parent="uycYp04cdWMD1vqDstz6-1" vertex="1">
          <mxGeometry x="561.5" y="102" width="231.31" height="280" as="geometry" />
        </mxCell>
        <mxCell id="faOBnqONsV37q101A3Ud-20" value="NAT Gateway" style="sketch=0;outlineConnect=0;fontColor=#232F3E;gradientColor=none;fillColor=#4D27AA;strokeColor=none;dashed=0;verticalLabelPosition=bottom;verticalAlign=top;align=center;html=1;fontSize=12;fontStyle=0;aspect=fixed;pointerEvents=1;shape=mxgraph.aws4.nat_gateway;" parent="uycYp04cdWMD1vqDstz6-1" vertex="1">
          <mxGeometry x="637.5" y="135" width="78" height="78" as="geometry" />
        </mxCell>
        <mxCell id="faOBnqONsV37q101A3Ud-22" value="Private subnet" style="points=[[0,0],[0.25,0],[0.5,0],[0.75,0],[1,0],[1,0.25],[1,0.5],[1,0.75],[1,1],[0.75,1],[0.5,1],[0.25,1],[0,1],[0,0.75],[0,0.5],[0,0.25]];outlineConnect=0;gradientColor=none;html=1;whiteSpace=wrap;fontSize=12;fontStyle=0;container=1;pointerEvents=0;collapsible=0;recursiveResize=0;shape=mxgraph.aws4.group;grIcon=mxgraph.aws4.group_security_group;grStroke=0;strokeColor=#147EBA;fillColor=#E6F2F8;verticalAlign=top;align=left;spacingLeft=30;fontColor=#147EBA;dashed=0;" parent="uycYp04cdWMD1vqDstz6-1" vertex="1">
          <mxGeometry x="561.5" y="422" width="232.5" height="180" as="geometry" />
        </mxCell>
        <mxCell id="faOBnqONsV37q101A3Ud-23" value="Kubernetes nodes" style="sketch=0;html=1;dashed=0;whitespace=wrap;fillColor=#2875E2;strokeColor=#ffffff;points=[[0.005,0.63,0],[0.1,0.2,0],[0.9,0.2,0],[0.5,0,0],[0.995,0.63,0],[0.72,0.99,0],[0.5,1,0],[0.28,0.99,0]];verticalLabelPosition=bottom;align=center;verticalAlign=top;shape=mxgraph.kubernetes.icon;prIcon=pod" parent="uycYp04cdWMD1vqDstz6-1" vertex="1">
          <mxGeometry x="656.75" y="501" width="50" height="48" as="geometry" />
        </mxCell>
        <mxCell id="faOBnqONsV37q101A3Ud-49" value="nginx:stable-alpine" style="shape=image;html=1;verticalAlign=top;verticalLabelPosition=bottom;labelBackgroundColor=#ffffff;imageAspect=0;aspect=fixed;image=https://cdn1.iconfinder.com/data/icons/unicons-line-vol-5/24/react-128.png" parent="uycYp04cdWMD1vqDstz6-1" vertex="1">
          <mxGeometry x="642.75" y="247" width="78" height="78" as="geometry" />
        </mxCell>
        <mxCell id="faOBnqONsV37q101A3Ud-2" value="Public subnet" style="points=[[0,0],[0.25,0],[0.5,0],[0.75,0],[1,0],[1,0.25],[1,0.5],[1,0.75],[1,1],[0.75,1],[0.5,1],[0.25,1],[0,1],[0,0.75],[0,0.5],[0,0.25]];outlineConnect=0;gradientColor=none;html=1;whiteSpace=wrap;fontSize=12;fontStyle=0;container=1;pointerEvents=0;collapsible=0;recursiveResize=0;shape=mxgraph.aws4.group;grIcon=mxgraph.aws4.group_security_group;grStroke=0;strokeColor=#248814;fillColor=#E9F3E6;verticalAlign=top;align=left;spacingLeft=30;fontColor=#248814;dashed=0;" parent="faOBnqONsV37q101A3Ud-26" vertex="1">
          <mxGeometry x="167.5" y="100" width="231.31" height="280" as="geometry" />
        </mxCell>
        <mxCell id="faOBnqONsV37q101A3Ud-6" value="NAT Gateway" style="sketch=0;outlineConnect=0;fontColor=#232F3E;gradientColor=none;fillColor=#4D27AA;strokeColor=none;dashed=0;verticalLabelPosition=bottom;verticalAlign=top;align=center;html=1;fontSize=12;fontStyle=0;aspect=fixed;pointerEvents=1;shape=mxgraph.aws4.nat_gateway;" parent="faOBnqONsV37q101A3Ud-26" vertex="1">
          <mxGeometry x="243.5" y="133" width="78" height="78" as="geometry" />
        </mxCell>
        <mxCell id="faOBnqONsV37q101A3Ud-12" value="Private subnet" style="points=[[0,0],[0.25,0],[0.5,0],[0.75,0],[1,0],[1,0.25],[1,0.5],[1,0.75],[1,1],[0.75,1],[0.5,1],[0.25,1],[0,1],[0,0.75],[0,0.5],[0,0.25]];outlineConnect=0;gradientColor=none;html=1;whiteSpace=wrap;fontSize=12;fontStyle=0;container=1;pointerEvents=0;collapsible=0;recursiveResize=0;shape=mxgraph.aws4.group;grIcon=mxgraph.aws4.group_security_group;grStroke=0;strokeColor=#147EBA;fillColor=#E6F2F8;verticalAlign=top;align=left;spacingLeft=30;fontColor=#147EBA;dashed=0;" parent="faOBnqONsV37q101A3Ud-26" vertex="1">
          <mxGeometry x="167.5" y="420" width="232.5" height="180" as="geometry" />
        </mxCell>
        <mxCell id="faOBnqONsV37q101A3Ud-15" value="Kubernetes nodes" style="sketch=0;html=1;dashed=0;whitespace=wrap;fillColor=#2875E2;strokeColor=#ffffff;points=[[0.005,0.63,0],[0.1,0.2,0],[0.9,0.2,0],[0.5,0,0],[0.995,0.63,0],[0.72,0.99,0],[0.5,1,0],[0.28,0.99,0]];verticalLabelPosition=bottom;align=center;verticalAlign=top;shape=mxgraph.kubernetes.icon;prIcon=pod" parent="faOBnqONsV37q101A3Ud-26" vertex="1">
          <mxGeometry x="262.75" y="499" width="50" height="48" as="geometry" />
        </mxCell>
        <mxCell id="faOBnqONsV37q101A3Ud-17" value="Auto Scaling group" style="points=[[0,0],[0.25,0],[0.5,0],[0.75,0],[1,0],[1,0.25],[1,0.5],[1,0.75],[1,1],[0.75,1],[0.5,1],[0.25,1],[0,1],[0,0.75],[0,0.5],[0,0.25]];outlineConnect=0;gradientColor=none;html=1;whiteSpace=wrap;fontSize=12;fontStyle=0;container=1;pointerEvents=0;collapsible=0;recursiveResize=0;shape=mxgraph.aws4.groupCenter;grIcon=mxgraph.aws4.group_auto_scaling_group;grStroke=1;strokeColor=#D86613;fillColor=none;verticalAlign=bottom;align=left;fontColor=#D86613;dashed=1;spacingTop=25;shadow=0;horizontal=1;labelBackgroundColor=default;labelBorderColor=none;" parent="faOBnqONsV37q101A3Ud-26" vertex="1">
          <mxGeometry x="60" y="460" width="810" height="120" as="geometry" />
        </mxCell>
        <mxCell id="faOBnqONsV37q101A3Ud-11" value="Auto Scaling group" style="points=[[0,0],[0.25,0],[0.5,0],[0.75,0],[1,0],[1,0.25],[1,0.5],[1,0.75],[1,1],[0.75,1],[0.5,1],[0.25,1],[0,1],[0,0.75],[0,0.5],[0,0.25]];outlineConnect=0;gradientColor=none;html=1;whiteSpace=wrap;fontSize=12;fontStyle=0;container=1;pointerEvents=0;collapsible=0;recursiveResize=0;shape=mxgraph.aws4.groupCenter;grIcon=mxgraph.aws4.group_auto_scaling_group;grStroke=1;strokeColor=#D86613;fillColor=none;verticalAlign=bottom;align=left;fontColor=#D86613;dashed=1;spacingTop=25;shadow=0;horizontal=1;labelBackgroundColor=none;labelBorderColor=none;" parent="faOBnqONsV37q101A3Ud-26" vertex="1">
          <mxGeometry x="60" y="247" width="810" height="120" as="geometry" />
        </mxCell>
        <mxCell id="faOBnqONsV37q101A3Ud-25" value="" style="sketch=0;points=[[0,0,0],[0.25,0,0],[0.5,0,0],[0.75,0,0],[1,0,0],[0,1,0],[0.25,1,0],[0.5,1,0],[0.75,1,0],[1,1,0],[0,0.25,0],[0,0.5,0],[0,0.75,0],[1,0.25,0],[1,0.5,0],[1,0.75,0]];outlineConnect=0;fontColor=#232F3E;gradientColor=#F78E04;gradientDirection=north;fillColor=#D05C17;strokeColor=#ffffff;dashed=0;verticalLabelPosition=bottom;verticalAlign=top;align=center;html=1;fontSize=12;fontStyle=0;aspect=fixed;shape=mxgraph.aws4.resourceIcon;resIcon=mxgraph.aws4.eks;" parent="faOBnqONsV37q101A3Ud-26" vertex="1">
          <mxGeometry x="31" y="42" width="78" height="78" as="geometry" />
        </mxCell>
        <mxCell id="faOBnqONsV37q101A3Ud-50" value="nginx:stable-alpine" style="shape=image;html=1;verticalAlign=top;verticalLabelPosition=bottom;labelBackgroundColor=#ffffff;imageAspect=0;aspect=fixed;image=https://cdn1.iconfinder.com/data/icons/unicons-line-vol-5/24/react-128.png" parent="faOBnqONsV37q101A3Ud-26" vertex="1">
          <mxGeometry x="243.5" y="247" width="78" height="78" as="geometry" />
        </mxCell>
        <mxCell id="faOBnqONsV37q101A3Ud-51" value="Microapps" style="text;html=1;strokeColor=#d6b656;fillColor=#fff2cc;align=center;verticalAlign=middle;whiteSpace=wrap;overflow=hidden;" parent="faOBnqONsV37q101A3Ud-26" vertex="1">
          <mxGeometry x="755.5" width="154.5" height="20" as="geometry" />
        </mxCell>
        <mxCell id="faOBnqONsV37q101A3Ud-54" value="&lt;ol style=&quot;font-size: 10px;&quot;&gt;&lt;li style=&quot;font-size: 10px;&quot;&gt;Envío plantilla&lt;/li&gt;&lt;li style=&quot;font-size: 10px;&quot;&gt;Dashboard&lt;/li&gt;&lt;/ol&gt;" style="text;html=1;strokeColor=none;fillColor=none;align=left;verticalAlign=middle;whiteSpace=wrap;rounded=0;fontSize=10;" parent="faOBnqONsV37q101A3Ud-26" vertex="1">
          <mxGeometry x="780" y="20" width="130" height="50" as="geometry" />
        </mxCell>
        <mxCell id="faOBnqONsV37q101A3Ud-94" value="" style="group" parent="gmBOiB6q5B-78Qpn2rzr-1" vertex="1" connectable="0">
          <mxGeometry x="505.5" y="893" width="1020" height="700" as="geometry" />
        </mxCell>
        <mxCell id="faOBnqONsV37q101A3Ud-30" value="Availability Zone 1" style="fillColor=none;strokeColor=#147EBA;dashed=1;verticalAlign=top;fontStyle=0;fontColor=#147EBA;whiteSpace=wrap;html=1;" parent="faOBnqONsV37q101A3Ud-94" vertex="1">
          <mxGeometry x="135.5" y="68" width="304.5" height="552" as="geometry" />
        </mxCell>
        <mxCell id="faOBnqONsV37q101A3Ud-31" value="VPC" style="points=[[0,0],[0.25,0],[0.5,0],[0.75,0],[1,0],[1,0.25],[1,0.5],[1,0.75],[1,1],[0.75,1],[0.5,1],[0.25,1],[0,1],[0,0.75],[0,0.5],[0,0.25]];outlineConnect=0;gradientColor=none;html=1;whiteSpace=wrap;fontSize=12;fontStyle=0;container=1;pointerEvents=0;collapsible=0;recursiveResize=0;shape=mxgraph.aws4.group;grIcon=mxgraph.aws4.group_vpc;strokeColor=#248814;fillColor=none;verticalAlign=top;align=left;spacingLeft=30;fontColor=#AAB7B8;dashed=0;" parent="faOBnqONsV37q101A3Ud-94" vertex="1">
          <mxGeometry width="1020" height="700" as="geometry" />
        </mxCell>
        <mxCell id="faOBnqONsV37q101A3Ud-32" value="Availability Zone 2" style="fillColor=none;strokeColor=#147EBA;dashed=1;verticalAlign=top;fontStyle=0;fontColor=#147EBA;whiteSpace=wrap;html=1;" parent="faOBnqONsV37q101A3Ud-31" vertex="1">
          <mxGeometry x="529.5" y="70" width="304.5" height="552" as="geometry" />
        </mxCell>
        <mxCell id="faOBnqONsV37q101A3Ud-33" value="Public subnet" style="points=[[0,0],[0.25,0],[0.5,0],[0.75,0],[1,0],[1,0.25],[1,0.5],[1,0.75],[1,1],[0.75,1],[0.5,1],[0.25,1],[0,1],[0,0.75],[0,0.5],[0,0.25]];outlineConnect=0;gradientColor=none;html=1;whiteSpace=wrap;fontSize=12;fontStyle=0;container=1;pointerEvents=0;collapsible=0;recursiveResize=0;shape=mxgraph.aws4.group;grIcon=mxgraph.aws4.group_security_group;grStroke=0;strokeColor=#248814;fillColor=#E9F3E6;verticalAlign=top;align=left;spacingLeft=30;fontColor=#248814;dashed=0;" parent="faOBnqONsV37q101A3Ud-31" vertex="1">
          <mxGeometry x="561.5" y="102" width="231.31" height="280" as="geometry" />
        </mxCell>
        <mxCell id="faOBnqONsV37q101A3Ud-34" value="NAT Gateway" style="sketch=0;outlineConnect=0;fontColor=#232F3E;gradientColor=none;fillColor=#4D27AA;strokeColor=none;dashed=0;verticalLabelPosition=bottom;verticalAlign=top;align=center;html=1;fontSize=12;fontStyle=0;aspect=fixed;pointerEvents=1;shape=mxgraph.aws4.nat_gateway;" parent="faOBnqONsV37q101A3Ud-31" vertex="1">
          <mxGeometry x="637.5" y="135" width="78" height="78" as="geometry" />
        </mxCell>
        <mxCell id="faOBnqONsV37q101A3Ud-36" value="Private subnet" style="points=[[0,0],[0.25,0],[0.5,0],[0.75,0],[1,0],[1,0.25],[1,0.5],[1,0.75],[1,1],[0.75,1],[0.5,1],[0.25,1],[0,1],[0,0.75],[0,0.5],[0,0.25]];outlineConnect=0;gradientColor=none;html=1;whiteSpace=wrap;fontSize=12;fontStyle=0;container=1;pointerEvents=0;collapsible=0;recursiveResize=0;shape=mxgraph.aws4.group;grIcon=mxgraph.aws4.group_security_group;grStroke=0;strokeColor=#147EBA;fillColor=#E6F2F8;verticalAlign=top;align=left;spacingLeft=30;fontColor=#147EBA;dashed=0;" parent="faOBnqONsV37q101A3Ud-31" vertex="1">
          <mxGeometry x="561.5" y="422" width="232.5" height="180" as="geometry" />
        </mxCell>
        <mxCell id="faOBnqONsV37q101A3Ud-37" value="Kubernetes nodes" style="sketch=0;html=1;dashed=0;whitespace=wrap;fillColor=#2875E2;strokeColor=#ffffff;points=[[0.005,0.63,0],[0.1,0.2,0],[0.9,0.2,0],[0.5,0,0],[0.995,0.63,0],[0.72,0.99,0],[0.5,1,0],[0.28,0.99,0]];verticalLabelPosition=bottom;align=center;verticalAlign=top;shape=mxgraph.kubernetes.icon;prIcon=pod" parent="faOBnqONsV37q101A3Ud-31" vertex="1">
          <mxGeometry x="656.75" y="501" width="50" height="48" as="geometry" />
        </mxCell>
        <mxCell id="faOBnqONsV37q101A3Ud-47" value="amazoncorretto:19.0.2-al2" style="shape=image;verticalLabelPosition=bottom;labelBackgroundColor=default;verticalAlign=top;aspect=fixed;imageAspect=0;image=https://dashboard.snapcraft.io/site_media/appmedia/2022/09/icon.svg_oGCNTPU.png;" parent="faOBnqONsV37q101A3Ud-31" vertex="1">
          <mxGeometry x="648" y="270" width="57" height="57" as="geometry" />
        </mxCell>
        <mxCell id="faOBnqONsV37q101A3Ud-38" value="Public subnet" style="points=[[0,0],[0.25,0],[0.5,0],[0.75,0],[1,0],[1,0.25],[1,0.5],[1,0.75],[1,1],[0.75,1],[0.5,1],[0.25,1],[0,1],[0,0.75],[0,0.5],[0,0.25]];outlineConnect=0;gradientColor=none;html=1;whiteSpace=wrap;fontSize=12;fontStyle=0;container=1;pointerEvents=0;collapsible=0;recursiveResize=0;shape=mxgraph.aws4.group;grIcon=mxgraph.aws4.group_security_group;grStroke=0;strokeColor=#248814;fillColor=#E9F3E6;verticalAlign=top;align=left;spacingLeft=30;fontColor=#248814;dashed=0;" parent="faOBnqONsV37q101A3Ud-94" vertex="1">
          <mxGeometry x="167.5" y="100" width="231.31" height="280" as="geometry" />
        </mxCell>
        <mxCell id="faOBnqONsV37q101A3Ud-39" value="NAT Gateway" style="sketch=0;outlineConnect=0;fontColor=#232F3E;gradientColor=none;fillColor=#4D27AA;strokeColor=none;dashed=0;verticalLabelPosition=bottom;verticalAlign=top;align=center;html=1;fontSize=12;fontStyle=0;aspect=fixed;pointerEvents=1;shape=mxgraph.aws4.nat_gateway;" parent="faOBnqONsV37q101A3Ud-94" vertex="1">
          <mxGeometry x="243.5" y="133" width="78" height="78" as="geometry" />
        </mxCell>
        <mxCell id="faOBnqONsV37q101A3Ud-41" value="Private subnet" style="points=[[0,0],[0.25,0],[0.5,0],[0.75,0],[1,0],[1,0.25],[1,0.5],[1,0.75],[1,1],[0.75,1],[0.5,1],[0.25,1],[0,1],[0,0.75],[0,0.5],[0,0.25]];outlineConnect=0;gradientColor=none;html=1;whiteSpace=wrap;fontSize=12;fontStyle=0;container=1;pointerEvents=0;collapsible=0;recursiveResize=0;shape=mxgraph.aws4.group;grIcon=mxgraph.aws4.group_security_group;grStroke=0;strokeColor=#147EBA;fillColor=#E6F2F8;verticalAlign=top;align=left;spacingLeft=30;fontColor=#147EBA;dashed=0;" parent="faOBnqONsV37q101A3Ud-94" vertex="1">
          <mxGeometry x="167.5" y="420" width="232.5" height="180" as="geometry" />
        </mxCell>
        <mxCell id="faOBnqONsV37q101A3Ud-42" value="Kubernetes nodes" style="sketch=0;html=1;dashed=0;whitespace=wrap;fillColor=#2875E2;strokeColor=#ffffff;points=[[0.005,0.63,0],[0.1,0.2,0],[0.9,0.2,0],[0.5,0,0],[0.995,0.63,0],[0.72,0.99,0],[0.5,1,0],[0.28,0.99,0]];verticalLabelPosition=bottom;align=center;verticalAlign=top;shape=mxgraph.kubernetes.icon;prIcon=pod" parent="faOBnqONsV37q101A3Ud-94" vertex="1">
          <mxGeometry x="262.75" y="499" width="50" height="48" as="geometry" />
        </mxCell>
        <mxCell id="faOBnqONsV37q101A3Ud-43" value="Auto Scaling group" style="points=[[0,0],[0.25,0],[0.5,0],[0.75,0],[1,0],[1,0.25],[1,0.5],[1,0.75],[1,1],[0.75,1],[0.5,1],[0.25,1],[0,1],[0,0.75],[0,0.5],[0,0.25]];outlineConnect=0;gradientColor=none;html=1;whiteSpace=wrap;fontSize=12;fontStyle=0;container=1;pointerEvents=0;collapsible=0;recursiveResize=0;shape=mxgraph.aws4.groupCenter;grIcon=mxgraph.aws4.group_auto_scaling_group;grStroke=1;strokeColor=#D86613;fillColor=none;verticalAlign=bottom;align=left;fontColor=#D86613;dashed=1;spacingTop=25;shadow=0;horizontal=1;labelBackgroundColor=none;labelBorderColor=none;" parent="faOBnqONsV37q101A3Ud-94" vertex="1">
          <mxGeometry x="60" y="460" width="810" height="120" as="geometry" />
        </mxCell>
        <mxCell id="faOBnqONsV37q101A3Ud-44" value="Auto Scaling group" style="points=[[0,0],[0.25,0],[0.5,0],[0.75,0],[1,0],[1,0.25],[1,0.5],[1,0.75],[1,1],[0.75,1],[0.5,1],[0.25,1],[0,1],[0,0.75],[0,0.5],[0,0.25]];outlineConnect=0;gradientColor=none;html=1;whiteSpace=wrap;fontSize=12;fontStyle=0;container=1;pointerEvents=0;collapsible=0;recursiveResize=0;shape=mxgraph.aws4.groupCenter;grIcon=mxgraph.aws4.group_auto_scaling_group;grStroke=1;strokeColor=#D86613;fillColor=none;verticalAlign=bottom;align=left;fontColor=#D86613;dashed=1;spacingTop=25;shadow=0;horizontal=1;labelBackgroundColor=none;labelBorderColor=none;" parent="faOBnqONsV37q101A3Ud-94" vertex="1">
          <mxGeometry x="60" y="239" width="810" height="120" as="geometry" />
        </mxCell>
        <mxCell id="faOBnqONsV37q101A3Ud-45" value="" style="sketch=0;points=[[0,0,0],[0.25,0,0],[0.5,0,0],[0.75,0,0],[1,0,0],[0,1,0],[0.25,1,0],[0.5,1,0],[0.75,1,0],[1,1,0],[0,0.25,0],[0,0.5,0],[0,0.75,0],[1,0.25,0],[1,0.5,0],[1,0.75,0]];outlineConnect=0;fontColor=#232F3E;gradientColor=#F78E04;gradientDirection=north;fillColor=#D05C17;strokeColor=#ffffff;dashed=0;verticalLabelPosition=bottom;verticalAlign=top;align=center;html=1;fontSize=12;fontStyle=0;aspect=fixed;shape=mxgraph.aws4.resourceIcon;resIcon=mxgraph.aws4.eks;" parent="faOBnqONsV37q101A3Ud-94" vertex="1">
          <mxGeometry x="31" y="42" width="78" height="78" as="geometry" />
        </mxCell>
        <mxCell id="faOBnqONsV37q101A3Ud-46" value="amazoncorretto:19.0.2-al2" style="shape=image;verticalLabelPosition=bottom;labelBackgroundColor=default;verticalAlign=top;aspect=fixed;imageAspect=0;image=https://dashboard.snapcraft.io/site_media/appmedia/2022/09/icon.svg_oGCNTPU.png;" parent="faOBnqONsV37q101A3Ud-94" vertex="1">
          <mxGeometry x="255.75" y="270.5" width="57" height="57" as="geometry" />
        </mxCell>
        <mxCell id="faOBnqONsV37q101A3Ud-52" value="Microservices" style="text;html=1;strokeColor=#d6b656;fillColor=#fff2cc;align=center;verticalAlign=middle;whiteSpace=wrap;overflow=hidden;" parent="faOBnqONsV37q101A3Ud-94" vertex="1">
          <mxGeometry x="755.5" width="154.5" height="20" as="geometry" />
        </mxCell>
        <mxCell id="faOBnqONsV37q101A3Ud-53" value="&lt;ol style=&quot;font-size: 10px;&quot;&gt;&lt;li style=&quot;font-size: 10px;&quot;&gt;Envío plantilla&lt;/li&gt;&lt;li style=&quot;font-size: 10px;&quot;&gt;Respuestas&lt;/li&gt;&lt;li style=&quot;font-size: 10px;&quot;&gt;Webhook&lt;/li&gt;&lt;/ol&gt;" style="text;html=1;strokeColor=none;fillColor=none;align=left;verticalAlign=middle;whiteSpace=wrap;rounded=0;fontSize=10;" parent="faOBnqONsV37q101A3Ud-94" vertex="1">
          <mxGeometry x="780" y="20" width="130" height="50" as="geometry" />
        </mxCell>
        <mxCell id="uycYp04cdWMD1vqDstz6-18" value="MYSQL/ORACLE" style="sketch=0;points=[[0,0,0],[0.25,0,0],[0.5,0,0],[0.75,0,0],[1,0,0],[0,1,0],[0.25,1,0],[0.5,1,0],[0.75,1,0],[1,1,0],[0,0.25,0],[0,0.5,0],[0,0.75,0],[1,0.25,0],[1,0.5,0],[1,0.75,0]];outlineConnect=0;fontColor=#232F3E;gradientColor=#4D72F3;gradientDirection=north;fillColor=#3334B9;strokeColor=#ffffff;dashed=0;verticalLabelPosition=bottom;verticalAlign=top;align=center;html=1;fontSize=12;fontStyle=0;aspect=fixed;shape=mxgraph.aws4.resourceIcon;resIcon=mxgraph.aws4.database;" parent="faOBnqONsV37q101A3Ud-94" vertex="1">
          <mxGeometry x="910" y="342" width="78" height="78" as="geometry" />
        </mxCell>
        <mxCell id="faOBnqONsV37q101A3Ud-96" value="" style="outlineConnect=0;dashed=0;verticalLabelPosition=bottom;verticalAlign=top;align=center;html=1;shape=mxgraph.aws3.internet_2;fillColor=#dae8fc;strokeColor=#6c8ebf;" parent="gmBOiB6q5B-78Qpn2rzr-1" vertex="1">
          <mxGeometry x="311" y="1155.5" width="79.5" height="54" as="geometry" />
        </mxCell>
        <mxCell id="faOBnqONsV37q101A3Ud-97" value="" style="sketch=0;points=[[0,0,0],[0.25,0,0],[0.5,0,0],[0.75,0,0],[1,0,0],[0,1,0],[0.25,1,0],[0.5,1,0],[0.75,1,0],[1,1,0],[0,0.25,0],[0,0.5,0],[0,0.75,0],[1,0.25,0],[1,0.5,0],[1,0.75,0]];outlineConnect=0;fontColor=#232F3E;gradientColor=#945DF2;gradientDirection=north;fillColor=#5A30B5;strokeColor=#ffffff;dashed=0;verticalLabelPosition=bottom;verticalAlign=top;align=center;html=1;fontSize=12;fontStyle=0;aspect=fixed;shape=mxgraph.aws4.resourceIcon;resIcon=mxgraph.aws4.client_vpn;" parent="gmBOiB6q5B-78Qpn2rzr-1" vertex="1">
          <mxGeometry x="411" y="284.5" width="78" height="78" as="geometry" />
        </mxCell>
      </root>
    </mxGraphModel>
  </diagram>
  <diagram name="DevOps" id="PJP4HrNxYbf5CJHof-dZ">
    <mxGraphModel dx="2390" dy="1232" grid="1" gridSize="10" guides="1" tooltips="1" connect="1" arrows="1" fold="1" page="1" pageScale="1" pageWidth="1169" pageHeight="827" math="0" shadow="0">
      <root>
        <mxCell id="FdJkH-COy_yF1PPLPrs4-0" />
        <mxCell id="FdJkH-COy_yF1PPLPrs4-1" parent="FdJkH-COy_yF1PPLPrs4-0" />
        <mxCell id="FdJkH-COy_yF1PPLPrs4-3" value="Whats AT&amp;amp;T Manager" style="text;html=1;resizable=0;points=[];autosize=1;align=left;verticalAlign=top;spacingTop=-4;fontSize=30;fontStyle=1;labelBackgroundColor=none;" parent="FdJkH-COy_yF1PPLPrs4-1" vertex="1">
          <mxGeometry x="27.5" y="21.5" width="330" height="40" as="geometry" />
        </mxCell>
        <mxCell id="FdJkH-COy_yF1PPLPrs4-4" value="DevOps" style="text;html=1;resizable=0;points=[];autosize=1;align=left;verticalAlign=top;spacingTop=-4;fontSize=16;labelBackgroundColor=none;" parent="FdJkH-COy_yF1PPLPrs4-1" vertex="1">
          <mxGeometry x="27.5" y="71.5" width="80" height="30" as="geometry" />
        </mxCell>
        <mxCell id="FdJkH-COy_yF1PPLPrs4-5" value="" style="line;strokeWidth=2;html=1;fontSize=14;labelBackgroundColor=none;" parent="FdJkH-COy_yF1PPLPrs4-1" vertex="1">
          <mxGeometry x="23.5" y="96.5" width="1587.5" height="14.32" as="geometry" />
        </mxCell>
        <mxCell id="XaujFBTC3qLAy2AeMKZo-0" value="" style="shape=image;verticalLabelPosition=bottom;labelBackgroundColor=default;verticalAlign=top;aspect=fixed;imageAspect=0;image=https://netmind.net/es/wp-content/uploads/2020/08/DevOps-Best-Practice_1080.png;" vertex="1" parent="FdJkH-COy_yF1PPLPrs4-1">
          <mxGeometry x="530" y="440" width="1310.08" height="650" as="geometry" />
        </mxCell>
        <mxCell id="XaujFBTC3qLAy2AeMKZo-9" value="" style="group" vertex="1" connectable="0" parent="FdJkH-COy_yF1PPLPrs4-1">
          <mxGeometry x="690" y="300" width="370" height="160" as="geometry" />
        </mxCell>
        <mxCell id="XaujFBTC3qLAy2AeMKZo-2" value="" style="shape=image;verticalLabelPosition=bottom;labelBackgroundColor=default;verticalAlign=top;aspect=fixed;imageAspect=0;image=https://code.visualstudio.com/assets/images/code-stable.png;" vertex="1" parent="XaujFBTC3qLAy2AeMKZo-9">
          <mxGeometry x="240" width="70" height="70" as="geometry" />
        </mxCell>
        <mxCell id="XaujFBTC3qLAy2AeMKZo-5" value="" style="shape=image;verticalLabelPosition=bottom;labelBackgroundColor=default;verticalAlign=top;aspect=fixed;imageAspect=0;image=https://www.inovex.de/wp-content/uploads/2021/04/training-spring-boot.png;clipPath=inset(33.33% 7.33% 33.33% 7.33%);" vertex="1" parent="XaujFBTC3qLAy2AeMKZo-9">
          <mxGeometry width="179.2" height="70" as="geometry" />
        </mxCell>
        <mxCell id="XaujFBTC3qLAy2AeMKZo-6" value="" style="shape=image;verticalLabelPosition=bottom;labelBackgroundColor=default;verticalAlign=top;aspect=fixed;imageAspect=0;image=https://cdn.arstechnica.net/wp-content/uploads/2016/01/openjdk.jpg;clipPath=inset(11.64% 2% 18.55% 3.33%);" vertex="1" parent="XaujFBTC3qLAy2AeMKZo-9">
          <mxGeometry x="0.10000000000002274" y="90" width="179.1" height="70" as="geometry" />
        </mxCell>
        <mxCell id="XaujFBTC3qLAy2AeMKZo-7" value="" style="shape=image;verticalLabelPosition=bottom;labelBackgroundColor=default;verticalAlign=top;aspect=fixed;imageAspect=0;image=https://upload.wikimedia.org/wikipedia/commons/thumb/4/4c/Typescript_logo_2020.svg/512px-Typescript_logo_2020.svg.png;" vertex="1" parent="XaujFBTC3qLAy2AeMKZo-9">
          <mxGeometry x="210" y="90" width="70" height="70" as="geometry" />
        </mxCell>
        <mxCell id="XaujFBTC3qLAy2AeMKZo-8" value="" style="shape=image;verticalLabelPosition=bottom;labelBackgroundColor=default;verticalAlign=top;aspect=fixed;imageAspect=0;image=https://upload.wikimedia.org/wikipedia/commons/thumb/6/6a/JavaScript-logo.png/600px-JavaScript-logo.png;" vertex="1" parent="XaujFBTC3qLAy2AeMKZo-9">
          <mxGeometry x="300" y="90" width="70" height="70" as="geometry" />
        </mxCell>
      </root>
    </mxGraphModel>
  </diagram>
  <diagram name="MVP 2" id="ZLI1PqsH6FhVKsvxx6uT">
    <mxGraphModel dx="2049" dy="1137" grid="1" gridSize="10" guides="1" tooltips="1" connect="1" arrows="1" fold="1" page="1" pageScale="1" pageWidth="827" pageHeight="1169" math="0" shadow="0">
      <root>
        <mxCell id="SebLCp3GhaZY8X3QrVbp-0" />
        <mxCell id="SebLCp3GhaZY8X3QrVbp-1" parent="SebLCp3GhaZY8X3QrVbp-0" />
        <mxCell id="__zxpTqG4KnhfnfmrhJR-1" style="edgeStyle=orthogonalEdgeStyle;rounded=0;orthogonalLoop=1;jettySize=auto;html=1;entryX=0.5;entryY=0;entryDx=0;entryDy=0;entryPerimeter=0;" parent="SebLCp3GhaZY8X3QrVbp-1" source="SebLCp3GhaZY8X3QrVbp-29" target="SebLCp3GhaZY8X3QrVbp-72" edge="1">
          <mxGeometry relative="1" as="geometry" />
        </mxCell>
        <mxCell id="SebLCp3GhaZY8X3QrVbp-2" style="edgeStyle=orthogonalEdgeStyle;rounded=0;orthogonalLoop=1;jettySize=auto;html=1;entryX=1;entryY=0.56;entryDx=0;entryDy=0;entryPerimeter=0;" parent="SebLCp3GhaZY8X3QrVbp-1" source="SebLCp3GhaZY8X3QrVbp-107" target="SebLCp3GhaZY8X3QrVbp-34" edge="1">
          <mxGeometry relative="1" as="geometry" />
        </mxCell>
        <mxCell id="SebLCp3GhaZY8X3QrVbp-3" style="edgeStyle=orthogonalEdgeStyle;rounded=0;orthogonalLoop=1;jettySize=auto;html=1;entryX=1;entryY=0.56;entryDx=0;entryDy=0;entryPerimeter=0;" parent="SebLCp3GhaZY8X3QrVbp-1" source="SebLCp3GhaZY8X3QrVbp-104" target="SebLCp3GhaZY8X3QrVbp-34" edge="1">
          <mxGeometry relative="1" as="geometry">
            <Array as="points">
              <mxPoint x="1360" y="213" />
              <mxPoint x="1360" y="391" />
            </Array>
          </mxGeometry>
        </mxCell>
        <mxCell id="SebLCp3GhaZY8X3QrVbp-4" style="edgeStyle=orthogonalEdgeStyle;rounded=0;orthogonalLoop=1;jettySize=auto;html=1;entryX=1;entryY=0.56;entryDx=0;entryDy=0;entryPerimeter=0;" parent="SebLCp3GhaZY8X3QrVbp-1" source="SebLCp3GhaZY8X3QrVbp-113" target="SebLCp3GhaZY8X3QrVbp-34" edge="1">
          <mxGeometry relative="1" as="geometry">
            <Array as="points">
              <mxPoint x="1360" y="646" />
              <mxPoint x="1360" y="391" />
            </Array>
          </mxGeometry>
        </mxCell>
        <mxCell id="SebLCp3GhaZY8X3QrVbp-5" style="edgeStyle=orthogonalEdgeStyle;rounded=0;orthogonalLoop=1;jettySize=auto;html=1;entryX=1;entryY=0.56;entryDx=0;entryDy=0;entryPerimeter=0;" parent="SebLCp3GhaZY8X3QrVbp-1" source="SebLCp3GhaZY8X3QrVbp-110" target="SebLCp3GhaZY8X3QrVbp-34" edge="1">
          <mxGeometry relative="1" as="geometry">
            <Array as="points">
              <mxPoint x="1360" y="519" />
              <mxPoint x="1360" y="391" />
            </Array>
          </mxGeometry>
        </mxCell>
        <mxCell id="SebLCp3GhaZY8X3QrVbp-6" value="AWS Cloud" style="points=[[0,0],[0.25,0],[0.5,0],[0.75,0],[1,0],[1,0.25],[1,0.5],[1,0.75],[1,1],[0.75,1],[0.5,1],[0.25,1],[0,1],[0,0.75],[0,0.5],[0,0.25]];outlineConnect=0;gradientColor=none;html=1;whiteSpace=wrap;fontSize=12;fontStyle=0;shape=mxgraph.aws4.group;grIcon=mxgraph.aws4.group_aws_cloud_alt;strokeColor=#232F3E;fillColor=none;verticalAlign=top;align=left;spacingLeft=30;fontColor=#232F3E;dashed=0;labelBackgroundColor=none;container=1;pointerEvents=0;collapsible=0;recursiveResize=0;" parent="SebLCp3GhaZY8X3QrVbp-1" vertex="1">
          <mxGeometry x="263" y="125" width="1067" height="757" as="geometry" />
        </mxCell>
        <mxCell id="SebLCp3GhaZY8X3QrVbp-8" value="MVC" style="swimlane;fillColor=#d5e8d4;strokeColor=#82b366;startSize=23;" parent="SebLCp3GhaZY8X3QrVbp-6" vertex="1">
          <mxGeometry x="237" y="131" width="105" height="105" as="geometry">
            <mxRectangle x="387" y="278" width="130" height="30" as="alternateBounds" />
          </mxGeometry>
        </mxCell>
        <mxCell id="SebLCp3GhaZY8X3QrVbp-9" value="" style="aspect=fixed;html=1;points=[];align=center;image;fontSize=12;image=img/lib/azure2/containers/Kubernetes_Services.svg;" parent="SebLCp3GhaZY8X3QrVbp-8" vertex="1">
          <mxGeometry x="18.5" y="32" width="68" height="60" as="geometry" />
        </mxCell>
        <mxCell id="SebLCp3GhaZY8X3QrVbp-12" value="" style="edgeStyle=orthogonalEdgeStyle;rounded=0;orthogonalLoop=1;jettySize=auto;html=1;" parent="SebLCp3GhaZY8X3QrVbp-6" source="SebLCp3GhaZY8X3QrVbp-13" target="SebLCp3GhaZY8X3QrVbp-15" edge="1">
          <mxGeometry relative="1" as="geometry" />
        </mxCell>
        <mxCell id="SebLCp3GhaZY8X3QrVbp-13" value="APIs" style="swimlane;fillColor=#d5e8d4;strokeColor=#82b366;startSize=23;" parent="SebLCp3GhaZY8X3QrVbp-6" vertex="1">
          <mxGeometry x="237" y="252" width="105" height="105" as="geometry">
            <mxRectangle x="387" y="278" width="130" height="30" as="alternateBounds" />
          </mxGeometry>
        </mxCell>
        <mxCell id="SebLCp3GhaZY8X3QrVbp-14" value="" style="aspect=fixed;html=1;points=[];align=center;image;fontSize=12;image=img/lib/azure2/containers/Kubernetes_Services.svg;" parent="SebLCp3GhaZY8X3QrVbp-13" vertex="1">
          <mxGeometry x="18.5" y="32" width="68" height="60" as="geometry" />
        </mxCell>
        <mxCell id="SebLCp3GhaZY8X3QrVbp-15" value="Oracle o MySQL" style="sketch=0;points=[[0,0,0],[0.25,0,0],[0.5,0,0],[0.75,0,0],[1,0,0],[0,1,0],[0.25,1,0],[0.5,1,0],[0.75,1,0],[1,1,0],[0,0.25,0],[0,0.5,0],[0,0.75,0],[1,0.25,0],[1,0.5,0],[1,0.75,0]];outlineConnect=0;fontColor=#232F3E;gradientColor=#4D72F3;gradientDirection=north;fillColor=#3334B9;strokeColor=#ffffff;dashed=0;verticalLabelPosition=bottom;verticalAlign=top;align=center;html=1;fontSize=12;fontStyle=0;aspect=fixed;shape=mxgraph.aws4.resourceIcon;resIcon=mxgraph.aws4.rds;" parent="SebLCp3GhaZY8X3QrVbp-6" vertex="1">
          <mxGeometry x="763" y="266" width="78" height="78" as="geometry" />
        </mxCell>
        <mxCell id="SebLCp3GhaZY8X3QrVbp-18" value="" style="edgeStyle=orthogonalEdgeStyle;rounded=0;orthogonalLoop=1;jettySize=auto;html=1;" parent="SebLCp3GhaZY8X3QrVbp-6" source="SebLCp3GhaZY8X3QrVbp-19" target="SebLCp3GhaZY8X3QrVbp-22" edge="1">
          <mxGeometry relative="1" as="geometry" />
        </mxCell>
        <mxCell id="SebLCp3GhaZY8X3QrVbp-19" value="Amazon API&lt;br&gt;Gateway&lt;br&gt;" style="outlineConnect=0;fontColor=#232F3E;gradientColor=#945DF2;gradientDirection=north;fillColor=#5A30B5;strokeColor=#ffffff;dashed=0;verticalLabelPosition=bottom;verticalAlign=top;align=center;html=1;fontSize=12;fontStyle=0;aspect=fixed;shape=mxgraph.aws4.resourceIcon;resIcon=mxgraph.aws4.api_gateway;labelBackgroundColor=none;" parent="SebLCp3GhaZY8X3QrVbp-6" vertex="1">
          <mxGeometry x="85" y="616" width="78" height="78" as="geometry" />
        </mxCell>
        <mxCell id="__zxpTqG4KnhfnfmrhJR-0" style="edgeStyle=orthogonalEdgeStyle;rounded=0;orthogonalLoop=1;jettySize=auto;html=1;exitX=1;exitY=0.5;exitDx=0;exitDy=0;entryX=1;entryY=0.5;entryDx=0;entryDy=0;entryPerimeter=0;" parent="SebLCp3GhaZY8X3QrVbp-6" source="SebLCp3GhaZY8X3QrVbp-21" target="SebLCp3GhaZY8X3QrVbp-15" edge="1">
          <mxGeometry relative="1" as="geometry">
            <Array as="points">
              <mxPoint x="867" y="646" />
              <mxPoint x="867" y="305" />
            </Array>
          </mxGeometry>
        </mxCell>
        <mxCell id="SebLCp3GhaZY8X3QrVbp-21" value="API" style="swimlane;fillColor=#d5e8d4;strokeColor=#82b366;" parent="SebLCp3GhaZY8X3QrVbp-6" vertex="1">
          <mxGeometry x="231" y="593.5" width="105" height="105" as="geometry">
            <mxRectangle x="387" y="278" width="130" height="30" as="alternateBounds" />
          </mxGeometry>
        </mxCell>
        <mxCell id="SebLCp3GhaZY8X3QrVbp-22" value="" style="aspect=fixed;html=1;points=[];align=center;image;fontSize=12;image=img/lib/azure2/containers/Kubernetes_Services.svg;" parent="SebLCp3GhaZY8X3QrVbp-21" vertex="1">
          <mxGeometry x="18.5" y="32" width="68" height="60" as="geometry" />
        </mxCell>
        <mxCell id="SebLCp3GhaZY8X3QrVbp-27" value="" style="edgeStyle=orthogonalEdgeStyle;rounded=0;orthogonalLoop=1;jettySize=auto;html=1;" parent="SebLCp3GhaZY8X3QrVbp-6" target="SebLCp3GhaZY8X3QrVbp-15" edge="1">
          <mxGeometry relative="1" as="geometry">
            <mxPoint x="753" y="453" as="sourcePoint" />
          </mxGeometry>
        </mxCell>
        <mxCell id="SebLCp3GhaZY8X3QrVbp-29" value="Motor 2 vías" style="outlineConnect=0;dashed=0;verticalLabelPosition=bottom;verticalAlign=top;align=center;html=1;shape=mxgraph.aws3.lambda_function;fillColor=#5294CF;gradientColor=none;" parent="SebLCp3GhaZY8X3QrVbp-6" vertex="1">
          <mxGeometry x="692" y="421.5" width="60" height="63" as="geometry" />
        </mxCell>
        <mxCell id="SebLCp3GhaZY8X3QrVbp-33" value="" style="edgeStyle=orthogonalEdgeStyle;rounded=0;orthogonalLoop=1;jettySize=auto;html=1;" parent="SebLCp3GhaZY8X3QrVbp-6" source="SebLCp3GhaZY8X3QrVbp-34" target="SebLCp3GhaZY8X3QrVbp-51" edge="1">
          <mxGeometry relative="1" as="geometry" />
        </mxCell>
        <mxCell id="SebLCp3GhaZY8X3QrVbp-34" value="" style="outlineConnect=0;dashed=0;verticalLabelPosition=bottom;verticalAlign=top;align=center;html=1;shape=mxgraph.aws3.waf;fillColor=#759C3E;gradientColor=none;" parent="SebLCp3GhaZY8X3QrVbp-6" vertex="1">
          <mxGeometry x="952" y="213.5" width="76.5" height="93" as="geometry" />
        </mxCell>
        <mxCell id="SebLCp3GhaZY8X3QrVbp-37" value="" style="group" parent="SebLCp3GhaZY8X3QrVbp-6" vertex="1" connectable="0">
          <mxGeometry x="1050" y="249" width="21" height="26" as="geometry" />
        </mxCell>
        <mxCell id="SebLCp3GhaZY8X3QrVbp-38" value="" style="rounded=0;whiteSpace=wrap;html=1;labelBackgroundColor=#ffffff;fontSize=14;align=center;strokeColor=none;" parent="SebLCp3GhaZY8X3QrVbp-37" vertex="1">
          <mxGeometry width="21" height="26" as="geometry" />
        </mxCell>
        <mxCell id="SebLCp3GhaZY8X3QrVbp-39" value="" style="outlineConnect=0;fontColor=#232F3E;gradientColor=none;fillColor=#B3B3B3;strokeColor=none;dashed=0;verticalLabelPosition=bottom;verticalAlign=top;align=center;html=1;fontSize=12;fontStyle=0;aspect=fixed;pointerEvents=1;shape=mxgraph.aws4.encrypted_data;labelBackgroundColor=#ffffff;" parent="SebLCp3GhaZY8X3QrVbp-37" vertex="1">
          <mxGeometry width="21" height="26" as="geometry" />
        </mxCell>
        <mxCell id="SebLCp3GhaZY8X3QrVbp-40" value="2" style="rounded=1;whiteSpace=wrap;html=1;fillColor=#007CBD;strokeColor=none;fontColor=#FFFFFF;fontStyle=1;fontSize=22;labelBackgroundColor=none;" parent="SebLCp3GhaZY8X3QrVbp-6" vertex="1">
          <mxGeometry x="347" y="93" width="40" height="38" as="geometry" />
        </mxCell>
        <mxCell id="SebLCp3GhaZY8X3QrVbp-41" value="3" style="rounded=1;whiteSpace=wrap;html=1;fillColor=#007CBD;strokeColor=none;fontColor=#FFFFFF;fontStyle=1;fontSize=22;labelBackgroundColor=none;" parent="SebLCp3GhaZY8X3QrVbp-6" vertex="1">
          <mxGeometry x="357" y="249" width="40" height="38" as="geometry" />
        </mxCell>
        <mxCell id="SebLCp3GhaZY8X3QrVbp-42" value="4" style="rounded=1;whiteSpace=wrap;html=1;fillColor=#007CBD;strokeColor=none;fontColor=#FFFFFF;fontStyle=1;fontSize=22;labelBackgroundColor=none;" parent="SebLCp3GhaZY8X3QrVbp-6" vertex="1">
          <mxGeometry x="717" y="222.5" width="40" height="38" as="geometry" />
        </mxCell>
        <mxCell id="SebLCp3GhaZY8X3QrVbp-43" value="5" style="rounded=1;whiteSpace=wrap;html=1;fillColor=#007CBD;strokeColor=none;fontColor=#FFFFFF;fontStyle=1;fontSize=22;labelBackgroundColor=none;" parent="SebLCp3GhaZY8X3QrVbp-6" vertex="1">
          <mxGeometry x="702" y="375" width="40" height="38" as="geometry" />
        </mxCell>
        <mxCell id="SebLCp3GhaZY8X3QrVbp-47" value="6" style="rounded=1;whiteSpace=wrap;html=1;fillColor=#007CBD;strokeColor=none;fontColor=#FFFFFF;fontStyle=1;fontSize=22;labelBackgroundColor=none;" parent="SebLCp3GhaZY8X3QrVbp-6" vertex="1">
          <mxGeometry x="263.5" y="534.9962962962964" width="40" height="39.407407407407405" as="geometry" />
        </mxCell>
        <mxCell id="SebLCp3GhaZY8X3QrVbp-50" value="APIs" style="swimlane;fillColor=#d5e8d4;strokeColor=#82b366;startSize=23;" parent="SebLCp3GhaZY8X3QrVbp-6" vertex="1">
          <mxGeometry x="936.75" y="12" width="105" height="105" as="geometry">
            <mxRectangle x="387" y="278" width="130" height="30" as="alternateBounds" />
          </mxGeometry>
        </mxCell>
        <mxCell id="SebLCp3GhaZY8X3QrVbp-51" value="" style="aspect=fixed;html=1;points=[];align=center;image;fontSize=12;image=img/lib/azure2/containers/Kubernetes_Services.svg;" parent="SebLCp3GhaZY8X3QrVbp-50" vertex="1">
          <mxGeometry x="18.5" y="32" width="68" height="60" as="geometry" />
        </mxCell>
        <mxCell id="SebLCp3GhaZY8X3QrVbp-52" value="7" style="rounded=1;whiteSpace=wrap;html=1;fillColor=#007CBD;strokeColor=none;fontColor=#FFFFFF;fontStyle=1;fontSize=22;labelBackgroundColor=none;" parent="SebLCp3GhaZY8X3QrVbp-6" vertex="1">
          <mxGeometry x="941.75" y="135.99629629629635" width="40" height="39.407407407407405" as="geometry" />
        </mxCell>
        <mxCell id="SebLCp3GhaZY8X3QrVbp-54" style="edgeStyle=orthogonalEdgeStyle;rounded=0;orthogonalLoop=1;jettySize=auto;html=1;entryX=1;entryY=0.5;entryDx=0;entryDy=0;entryPerimeter=0;" parent="SebLCp3GhaZY8X3QrVbp-6" source="SebLCp3GhaZY8X3QrVbp-51" target="SebLCp3GhaZY8X3QrVbp-15" edge="1">
          <mxGeometry relative="1" as="geometry">
            <Array as="points">
              <mxPoint x="867" y="74" />
              <mxPoint x="867" y="275" />
            </Array>
          </mxGeometry>
        </mxCell>
        <mxCell id="ZlzhKR1zWFn4kOlUJeiR-1" style="edgeStyle=orthogonalEdgeStyle;rounded=0;orthogonalLoop=1;jettySize=auto;html=1;entryX=0;entryY=0.5;entryDx=0;entryDy=0;" parent="SebLCp3GhaZY8X3QrVbp-6" source="SebLCp3GhaZY8X3QrVbp-67" target="SebLCp3GhaZY8X3QrVbp-13" edge="1">
          <mxGeometry relative="1" as="geometry" />
        </mxCell>
        <mxCell id="SebLCp3GhaZY8X3QrVbp-67" value="Amazon API&lt;br&gt;Gateway&lt;br&gt;" style="outlineConnect=0;fontColor=#232F3E;gradientColor=#945DF2;gradientDirection=north;fillColor=#5A30B5;strokeColor=#ffffff;dashed=0;verticalLabelPosition=bottom;verticalAlign=top;align=center;html=1;fontSize=12;fontStyle=0;aspect=fixed;shape=mxgraph.aws4.resourceIcon;resIcon=mxgraph.aws4.api_gateway;labelBackgroundColor=none;" parent="SebLCp3GhaZY8X3QrVbp-6" vertex="1">
          <mxGeometry x="61" y="185.49999999999994" width="78" height="78" as="geometry" />
        </mxCell>
        <mxCell id="p33b4Whdn2Xa_EpxXSQX-0" style="edgeStyle=orthogonalEdgeStyle;rounded=0;orthogonalLoop=1;jettySize=auto;html=1;entryX=0;entryY=0.5;entryDx=0;entryDy=0;" parent="SebLCp3GhaZY8X3QrVbp-6" source="SebLCp3GhaZY8X3QrVbp-67" target="SebLCp3GhaZY8X3QrVbp-8" edge="1">
          <mxGeometry relative="1" as="geometry" />
        </mxCell>
        <mxCell id="SebLCp3GhaZY8X3QrVbp-58" value="Whats AT&amp;amp;T Manager" style="text;html=1;resizable=0;points=[];autosize=1;align=left;verticalAlign=top;spacingTop=-4;fontSize=30;fontStyle=1;labelBackgroundColor=none;" parent="SebLCp3GhaZY8X3QrVbp-1" vertex="1">
          <mxGeometry x="36.5" y="26.5" width="330" height="40" as="geometry" />
        </mxCell>
        <mxCell id="SebLCp3GhaZY8X3QrVbp-59" value="Arquitectura V 1.0" style="text;html=1;resizable=0;points=[];autosize=1;align=left;verticalAlign=top;spacingTop=-4;fontSize=16;labelBackgroundColor=none;" parent="SebLCp3GhaZY8X3QrVbp-1" vertex="1">
          <mxGeometry x="36.5" y="76.5" width="150" height="30" as="geometry" />
        </mxCell>
        <mxCell id="SebLCp3GhaZY8X3QrVbp-60" value="" style="line;strokeWidth=2;html=1;fontSize=14;labelBackgroundColor=none;" parent="SebLCp3GhaZY8X3QrVbp-1" vertex="1">
          <mxGeometry x="32.5" y="101.5" width="1517.5" height="14.32" as="geometry" />
        </mxCell>
        <mxCell id="SebLCp3GhaZY8X3QrVbp-61" value="Manager" style="swimlane;fontSize=14;align=center;swimlaneFillColor=#f4f4f4;fillColor=#f4f4f4;startSize=33;container=1;pointerEvents=0;collapsible=0;recursiveResize=0;" parent="SebLCp3GhaZY8X3QrVbp-1" vertex="1">
          <mxGeometry x="30" y="125" width="210" height="135" as="geometry" />
        </mxCell>
        <mxCell id="SebLCp3GhaZY8X3QrVbp-62" value="Business Manager" style="outlineConnect=0;fontColor=#232F3E;gradientColor=none;fillColor=#232F3E;strokeColor=none;dashed=0;verticalLabelPosition=bottom;verticalAlign=top;align=center;html=1;fontSize=12;fontStyle=0;aspect=fixed;pointerEvents=1;shape=mxgraph.aws4.user;labelBackgroundColor=none;" parent="SebLCp3GhaZY8X3QrVbp-61" vertex="1">
          <mxGeometry x="78.5" y="47" width="46" height="46" as="geometry" />
        </mxCell>
        <mxCell id="p33b4Whdn2Xa_EpxXSQX-5" style="edgeStyle=orthogonalEdgeStyle;rounded=0;orthogonalLoop=1;jettySize=auto;html=1;" parent="SebLCp3GhaZY8X3QrVbp-1" source="SebLCp3GhaZY8X3QrVbp-63" target="SebLCp3GhaZY8X3QrVbp-67" edge="1">
          <mxGeometry relative="1" as="geometry" />
        </mxCell>
        <mxCell id="SebLCp3GhaZY8X3QrVbp-63" value="Channels" style="swimlane;fontSize=14;align=center;swimlaneFillColor=#f4f4f4;fillColor=#f4f4f4;startSize=33;container=1;pointerEvents=0;collapsible=0;recursiveResize=0;" parent="SebLCp3GhaZY8X3QrVbp-1" vertex="1">
          <mxGeometry x="30" y="260" width="210" height="180" as="geometry" />
        </mxCell>
        <mxCell id="SebLCp3GhaZY8X3QrVbp-64" value="Mobile / Web" style="outlineConnect=0;fontColor=#232F3E;gradientColor=none;strokeColor=none;fillColor=#277116;dashed=0;verticalLabelPosition=bottom;verticalAlign=top;align=center;html=1;fontSize=12;fontStyle=0;shape=mxgraph.aws4.mobile_client;labelBackgroundColor=none;" parent="SebLCp3GhaZY8X3QrVbp-63" vertex="1">
          <mxGeometry x="85.78999999999999" y="61" width="38.43" height="72.5" as="geometry" />
        </mxCell>
        <mxCell id="SebLCp3GhaZY8X3QrVbp-65" value="1" style="rounded=1;whiteSpace=wrap;html=1;fillColor=#007CBD;strokeColor=none;fontColor=#FFFFFF;fontStyle=1;fontSize=22;labelBackgroundColor=none;" parent="SebLCp3GhaZY8X3QrVbp-63" vertex="1">
          <mxGeometry x="143" y="61" width="40" height="38" as="geometry" />
        </mxCell>
        <mxCell id="SebLCp3GhaZY8X3QrVbp-68" value="" style="group" parent="SebLCp3GhaZY8X3QrVbp-1" vertex="1" connectable="0">
          <mxGeometry x="252.50000000000006" y="336.5" width="21" height="26" as="geometry" />
        </mxCell>
        <mxCell id="SebLCp3GhaZY8X3QrVbp-69" value="" style="rounded=0;whiteSpace=wrap;html=1;labelBackgroundColor=#ffffff;fontSize=14;align=center;strokeColor=none;" parent="SebLCp3GhaZY8X3QrVbp-68" vertex="1">
          <mxGeometry width="21" height="26" as="geometry" />
        </mxCell>
        <mxCell id="SebLCp3GhaZY8X3QrVbp-70" value="" style="outlineConnect=0;fontColor=#232F3E;gradientColor=none;fillColor=#B3B3B3;strokeColor=none;dashed=0;verticalLabelPosition=bottom;verticalAlign=top;align=center;html=1;fontSize=12;fontStyle=0;aspect=fixed;pointerEvents=1;shape=mxgraph.aws4.encrypted_data;labelBackgroundColor=#ffffff;" parent="SebLCp3GhaZY8X3QrVbp-68" vertex="1">
          <mxGeometry width="21" height="26" as="geometry" />
        </mxCell>
        <mxCell id="SebLCp3GhaZY8X3QrVbp-71" style="edgeStyle=orthogonalEdgeStyle;rounded=0;orthogonalLoop=1;jettySize=auto;html=1;exitX=0.5;exitY=1;exitDx=0;exitDy=0;exitPerimeter=0;" parent="SebLCp3GhaZY8X3QrVbp-1" source="SebLCp3GhaZY8X3QrVbp-72" target="SebLCp3GhaZY8X3QrVbp-19" edge="1">
          <mxGeometry relative="1" as="geometry">
            <Array as="points">
              <mxPoint x="135" y="780" />
            </Array>
          </mxGeometry>
        </mxCell>
        <mxCell id="SebLCp3GhaZY8X3QrVbp-72" value="WhasApp Cloud API" style="html=1;strokeColor=#82b366;fillColor=#d5e8d4;labelPosition=center;verticalLabelPosition=middle;verticalAlign=top;align=center;fontSize=12;outlineConnect=0;spacingTop=-6;sketch=0;shape=mxgraph.sitemap.cloud;" parent="SebLCp3GhaZY8X3QrVbp-1" vertex="1">
          <mxGeometry x="30" y="600.5" width="210" height="127" as="geometry" />
        </mxCell>
        <mxCell id="SebLCp3GhaZY8X3QrVbp-73" value="" style="group" parent="SebLCp3GhaZY8X3QrVbp-1" vertex="1" connectable="0">
          <mxGeometry x="251.00000000000006" y="559" width="21" height="26" as="geometry" />
        </mxCell>
        <mxCell id="SebLCp3GhaZY8X3QrVbp-74" value="" style="rounded=0;whiteSpace=wrap;html=1;labelBackgroundColor=#ffffff;fontSize=14;align=center;strokeColor=none;" parent="SebLCp3GhaZY8X3QrVbp-73" vertex="1">
          <mxGeometry width="21" height="26" as="geometry" />
        </mxCell>
        <mxCell id="SebLCp3GhaZY8X3QrVbp-75" value="" style="outlineConnect=0;fontColor=#232F3E;gradientColor=none;fillColor=#B3B3B3;strokeColor=none;dashed=0;verticalLabelPosition=bottom;verticalAlign=top;align=center;html=1;fontSize=12;fontStyle=0;aspect=fixed;pointerEvents=1;shape=mxgraph.aws4.encrypted_data;labelBackgroundColor=#ffffff;" parent="SebLCp3GhaZY8X3QrVbp-73" vertex="1">
          <mxGeometry width="21" height="26" as="geometry" />
        </mxCell>
        <mxCell id="SebLCp3GhaZY8X3QrVbp-76" value="" style="group" parent="SebLCp3GhaZY8X3QrVbp-1" vertex="1" connectable="0">
          <mxGeometry x="1648" y="110" width="539" height="1150" as="geometry" />
        </mxCell>
        <mxCell id="SebLCp3GhaZY8X3QrVbp-77" value="" style="rounded=0;whiteSpace=wrap;html=1;fillColor=#EAEDED;fontSize=22;fontColor=#FFFFFF;strokeColor=none;labelBackgroundColor=none;" parent="SebLCp3GhaZY8X3QrVbp-76" vertex="1">
          <mxGeometry width="539" height="790" as="geometry" />
        </mxCell>
        <mxCell id="SebLCp3GhaZY8X3QrVbp-78" value="1" style="rounded=1;whiteSpace=wrap;html=1;fillColor=#007CBD;strokeColor=none;fontColor=#FFFFFF;fontStyle=1;fontSize=22;labelBackgroundColor=none;" parent="SebLCp3GhaZY8X3QrVbp-76" vertex="1">
          <mxGeometry x="19.5" y="12.962962962962962" width="40" height="39.407407407407405" as="geometry" />
        </mxCell>
        <mxCell id="SebLCp3GhaZY8X3QrVbp-79" value="2" style="rounded=1;whiteSpace=wrap;html=1;fillColor=#007CBD;strokeColor=none;fontColor=#FFFFFF;fontStyle=1;fontSize=22;labelBackgroundColor=none;" parent="SebLCp3GhaZY8X3QrVbp-76" vertex="1">
          <mxGeometry x="18" y="139.48148148148147" width="40" height="39.407407407407405" as="geometry" />
        </mxCell>
        <mxCell id="SebLCp3GhaZY8X3QrVbp-80" value="3" style="rounded=1;whiteSpace=wrap;html=1;fillColor=#007CBD;strokeColor=none;fontColor=#FFFFFF;fontStyle=1;fontSize=22;labelBackgroundColor=none;" parent="SebLCp3GhaZY8X3QrVbp-76" vertex="1">
          <mxGeometry x="18" y="284.9259259259259" width="40" height="39.407407407407405" as="geometry" />
        </mxCell>
        <mxCell id="SebLCp3GhaZY8X3QrVbp-81" value="4" style="rounded=1;whiteSpace=wrap;html=1;fillColor=#007CBD;strokeColor=none;fontColor=#FFFFFF;fontStyle=1;fontSize=22;labelBackgroundColor=none;" parent="SebLCp3GhaZY8X3QrVbp-76" vertex="1">
          <mxGeometry x="18" y="382.14814814814815" width="40" height="39.407407407407405" as="geometry" />
        </mxCell>
        <mxCell id="SebLCp3GhaZY8X3QrVbp-82" value="5" style="rounded=1;whiteSpace=wrap;html=1;fillColor=#007CBD;strokeColor=none;fontColor=#FFFFFF;fontStyle=1;fontSize=22;labelBackgroundColor=none;" parent="SebLCp3GhaZY8X3QrVbp-76" vertex="1">
          <mxGeometry x="19.5" y="513.4814814814815" width="40" height="39.407407407407405" as="geometry" />
        </mxCell>
        <mxCell id="SebLCp3GhaZY8X3QrVbp-85" value="6" style="rounded=1;whiteSpace=wrap;html=1;fillColor=#007CBD;strokeColor=none;fontColor=#FFFFFF;fontStyle=1;fontSize=22;labelBackgroundColor=none;" parent="SebLCp3GhaZY8X3QrVbp-76" vertex="1">
          <mxGeometry x="20.5" y="589.9962962962964" width="40" height="39.407407407407405" as="geometry" />
        </mxCell>
        <mxCell id="SebLCp3GhaZY8X3QrVbp-86" value="&lt;span&gt;Aplicación Web responsiva que permite al administrador:&lt;br&gt;&lt;ul&gt;&lt;li&gt;Configurar las plantillas para los mensjaes.&lt;/li&gt;&lt;li&gt;Programar el broadcast de mensajes&amp;nbsp;&lt;/li&gt;&lt;li&gt;Visualizar el resultado del broadcast.&lt;/li&gt;&lt;ul&gt;&lt;li&gt;Respuestas.&lt;/li&gt;&lt;li&gt;Bifurcaciones.&lt;/li&gt;&lt;/ul&gt;&lt;/ul&gt;&lt;/span&gt;" style="text;html=1;align=left;verticalAlign=top;spacingTop=-4;fontSize=14;labelBackgroundColor=none;whiteSpace=wrap;" parent="SebLCp3GhaZY8X3QrVbp-76" vertex="1">
          <mxGeometry x="71" y="12.444444444444443" width="449" height="122.37037037037037" as="geometry" />
        </mxCell>
        <mxCell id="SebLCp3GhaZY8X3QrVbp-87" value="Micro aplicaciones REACT para soportar:&lt;br&gt;&lt;ul style=&quot;border-color: var(--border-color);&quot;&gt;&lt;li style=&quot;border-color: var(--border-color);&quot;&gt;Configurar las plantillas para los mensjaes.&lt;/li&gt;&lt;li style=&quot;border-color: var(--border-color);&quot;&gt;Programar el broadcast de mensajes&amp;nbsp;&lt;/li&gt;&lt;li style=&quot;border-color: var(--border-color);&quot;&gt;Visualizar el resultado del broadcast.&lt;/li&gt;&lt;li style=&quot;border-color: var(--border-color);&quot;&gt;Visualizar el resultado del broadcast.&lt;/li&gt;&lt;ul style=&quot;border-color: var(--border-color);&quot;&gt;&lt;li style=&quot;border-color: var(--border-color);&quot;&gt;Respuestas.&lt;/li&gt;&lt;li style=&quot;border-color: var(--border-color);&quot;&gt;Bifurcaciones.&lt;/li&gt;&lt;/ul&gt;&lt;/ul&gt;" style="text;html=1;align=left;verticalAlign=top;spacingTop=-4;fontSize=14;labelBackgroundColor=none;whiteSpace=wrap;" parent="SebLCp3GhaZY8X3QrVbp-76" vertex="1">
          <mxGeometry x="70" y="140" width="450" height="119.25925925925925" as="geometry" />
        </mxCell>
        <mxCell id="SebLCp3GhaZY8X3QrVbp-88" value="&lt;span&gt;Micro servicios Java Springboot para las APIs:&lt;br&gt;&lt;ul&gt;&lt;li&gt;&lt;span&gt;ConfigurarPlantillas&lt;/span&gt;&lt;/li&gt;&lt;li&gt;&lt;span&gt;Programar Broadcast&lt;/span&gt;&lt;/li&gt;&lt;li&gt;&lt;span&gt;Consultar estadus.&lt;/span&gt;&lt;/li&gt;&lt;/ul&gt;&lt;/span&gt;" style="text;html=1;align=left;verticalAlign=top;spacingTop=-4;fontSize=14;labelBackgroundColor=none;whiteSpace=wrap;" parent="SebLCp3GhaZY8X3QrVbp-76" vertex="1">
          <mxGeometry x="70" y="283.37" width="450" height="97.63" as="geometry" />
        </mxCell>
        <mxCell id="SebLCp3GhaZY8X3QrVbp-89" value="&lt;span&gt;Base de datos para:&lt;br&gt;&lt;ul&gt;&lt;li&gt;Plantillas&lt;/li&gt;&lt;li&gt;Broadcast List&lt;/li&gt;&lt;li&gt;Broadcast status&lt;/li&gt;&lt;li&gt;Programación de broadcast&lt;/li&gt;&lt;li&gt;Mapeo de flujos&lt;/li&gt;&lt;/ul&gt;&lt;/span&gt;" style="text;html=1;align=left;verticalAlign=top;spacingTop=-4;fontSize=14;labelBackgroundColor=none;whiteSpace=wrap;" parent="SebLCp3GhaZY8X3QrVbp-76" vertex="1">
          <mxGeometry x="70" y="382.66666666666663" width="450" height="125.48148148148148" as="geometry" />
        </mxCell>
        <mxCell id="SebLCp3GhaZY8X3QrVbp-90" value="&lt;span&gt;Función Serverless para identificar lista de broadcast hacia WhastApp APi y enviarlas a la Queue&lt;br&gt;&lt;br&gt;&lt;/span&gt;" style="text;html=1;align=left;verticalAlign=top;spacingTop=-4;fontSize=14;labelBackgroundColor=none;whiteSpace=wrap;" parent="SebLCp3GhaZY8X3QrVbp-76" vertex="1">
          <mxGeometry x="71" y="514" width="449" height="56" as="geometry" />
        </mxCell>
        <mxCell id="SebLCp3GhaZY8X3QrVbp-93" value="&lt;span&gt;Micro servicio para recibir las notificaciones Webhook de WhatsApp API&lt;br&gt;&lt;/span&gt;Se implementan las reglas de negocio para filtrar, organizar y almacenar en la queue." style="text;html=1;align=left;verticalAlign=top;spacingTop=-4;fontSize=14;labelBackgroundColor=none;whiteSpace=wrap;" parent="SebLCp3GhaZY8X3QrVbp-76" vertex="1">
          <mxGeometry x="71" y="591.55" width="449" height="66.15" as="geometry" />
        </mxCell>
        <mxCell id="SebLCp3GhaZY8X3QrVbp-98" value="7" style="rounded=1;whiteSpace=wrap;html=1;fillColor=#007CBD;strokeColor=none;fontColor=#FFFFFF;fontStyle=1;fontSize=22;labelBackgroundColor=none;" parent="SebLCp3GhaZY8X3QrVbp-76" vertex="1">
          <mxGeometry x="21.5" y="669.9962962962964" width="40" height="39.407407407407405" as="geometry" />
        </mxCell>
        <mxCell id="SebLCp3GhaZY8X3QrVbp-99" value="Micro servicios para aplicaciones de AT&amp;amp;T:&lt;br&gt;&lt;ul&gt;&lt;li&gt;Enviar&amp;nbsp; broadcast de mensajes&lt;/li&gt;&lt;li&gt;Consulta de estatus de mensajes o broadcast list&lt;/li&gt;&lt;/ul&gt;" style="text;html=1;align=left;verticalAlign=top;spacingTop=-4;fontSize=14;labelBackgroundColor=none;whiteSpace=wrap;" parent="SebLCp3GhaZY8X3QrVbp-76" vertex="1">
          <mxGeometry x="72" y="671.55" width="449" height="48.45" as="geometry" />
        </mxCell>
        <mxCell id="SebLCp3GhaZY8X3QrVbp-104" value="On-Premise" style="sketch=0;outlineConnect=0;gradientColor=none;html=1;whiteSpace=wrap;fontSize=12;fontStyle=0;shape=mxgraph.aws4.group;grIcon=mxgraph.aws4.group_on_premise;strokeColor=#858B94;fillColor=none;verticalAlign=top;align=left;spacingLeft=30;fontColor=#858B94;dashed=0;" parent="SebLCp3GhaZY8X3QrVbp-1" vertex="1">
          <mxGeometry x="1428" y="125" width="194" height="175" as="geometry" />
        </mxCell>
        <mxCell id="SebLCp3GhaZY8X3QrVbp-105" value="" style="sketch=0;pointerEvents=1;shadow=0;dashed=0;html=1;strokeColor=none;fillColor=#505050;labelPosition=center;verticalLabelPosition=bottom;verticalAlign=top;outlineConnect=0;align=center;shape=mxgraph.office.servers.datacenter;" parent="SebLCp3GhaZY8X3QrVbp-1" vertex="1">
          <mxGeometry x="1500" y="181.5" width="53" height="53" as="geometry" />
        </mxCell>
        <mxCell id="SebLCp3GhaZY8X3QrVbp-106" value="" style="group" parent="SebLCp3GhaZY8X3QrVbp-1" vertex="1" connectable="0">
          <mxGeometry x="1428" y="344.5" width="195" height="90" as="geometry" />
        </mxCell>
        <mxCell id="SebLCp3GhaZY8X3QrVbp-107" value="" style="whiteSpace=wrap;html=1;shape=mxgraph.basic.cloud_rect" parent="SebLCp3GhaZY8X3QrVbp-106" vertex="1">
          <mxGeometry width="195" height="90" as="geometry" />
        </mxCell>
        <mxCell id="SebLCp3GhaZY8X3QrVbp-108" value="" style="shape=image;verticalLabelPosition=bottom;labelBackgroundColor=default;verticalAlign=top;aspect=fixed;imageAspect=0;image=data:image/jpeg,/9j/4AAQSkZJRgABAQAAAQABAAD/2wCEAAoGBxMHBhYREhMRFhIWGRgTFBEZDhAYExgXFhMaFxYdFhYcHyoiGR00HRkaMDUjJysuMTEzGSE2OzYvOioxMS4BCwsLDg4PHRERHDAnIiguLi4wLjA6MjAwLi4zMDA6MC4wMDA6MDAwMDIzMDowMDAwMDAwMTAxMDAwMDAwMDAwMP/AABEIAKgBLAMBIgACEQEDEQH/xAAcAAEAAQUBAQAAAAAAAAAAAAAABwECAwUGBAj/xAA/EAACAQICBAoIBQMEAwAAAAAAAQIDEQQFBhIhMQcTFCJBUWFxgZEVMlOCkqGx0VJyk6LhI0LSQ2KDwRZjc//EABoBAQACAwEAAAAAAAAAAAAAAAAEBQIDBgH/xAAwEQACAQIEAQwCAwEBAAAAAAAAAQIDEQQSIVFBBRMUMWFxgZGhseHwwdEiMlJCI//aAAwDAQACEQMRAD8AmYAAAAAAAAAAAAAAAAAAA5/T/NfQ+idaonaco8VT27dapzbrtSbfunsYuTSR42krsi7TXTivnOZTjRrTp4aLcacKc5R10nbXnKO2V99tyVtl7t6fKtKMTlmJTdapOnfn05VJy2dOrd7H3eJrbWRjqIuVTjFWiiqlLPfNxJbhjZTgmpSaaunfenu6Ryuf4pef8mg0MxvK8jin61O9F9y2x/a15G5NqSetijm5xk43ehm5VP8AFLz/AJHKp/il5/yYQe2WxjnnuzNyqf4pef8AI5XP8UvP+TCBZbDPPdnop4+pTldTmn1638nWaPZm8xwr1ra8XaXanudujp8jizbaK4vk+aqL3VE437VtX0sRsTSUqbaWq1JuAxEoVkm9Hp59T8/Rs7QAFQdOAAAAAAAAAAAAAAAAAAAAAAAAAAAAAAAAAAAACLOGrNeMxVHCp7Ip1pr/AHSvCHikp/EiUm7Hz1pPmnprSCtX6Jzep+SPNp/tSJeDhmqZtvfgRsVPLC25rGiya2GQtaLRorkbnQbGcRmkqTeycdn5oXa/a5eSO1uRhh67weLhVjvhJSt12e1eK2eJJtOoqtNSjtTSafWmroQ2IGNhaalv7r4sXXFxcXMiHYXFxcXAsLl1Oo6VRSjvTTT7U7otuLgEjYausRh4zW6STXijMaDQ7Fcdlzp9NP6S2r53N+UNSGSbjsdfQq87TjPdevH1uAAYG4AAAAAAAAAAAAAAAAAAAAAAAAAAAAAAAAA5zhFzT0VolWknadRcRDbZ61TY2n1qOs/dILJC4Z8047MKWFT2Qi6k10a09kb9qin8ZHpb4OGWlffUrMVK9S2wKNFQyURjFUR2mh2L5Tkyi/Wpt0n3b4/J28DjprYbbQzF8nzV03uqRt70btfLWMOqRrxEc9J9mp2gKA2lWVBQAFQUABt9FcVybN4p7qicW+17V81Y7kjCM3TmpLY000+pp3RI+DxCxWEjUW6STt1XW1FXj4Wkpb6ffvAveSat4Spvhr5/fU9AAIBbgAAAAAAAAAAAAAAAAAAAAAAAAAAAAAAslJRjd7EtrfQXnM8I+aei9EqrTtOp/Rh/yX1rduopPwMoRcpKK4nkpKKbfAh/SLMnnOe1sR0VJtx69Rc2mn7iieArYHQKKSsijbbd2UBUCwLGiylVeFxMakd8WpLwd7GVoxVEYSRlEkWlVVakpR2xklJPsaui+5pdEcXx+U6j3024eD2x+tvA3FzYtVcqZwyycdi64uW3FwYl1xctuLgF1zsNCsXxuXul003s7p7frfzRxtzbaK4zk2cxTfNnzH7275peZoxVPPSa8fL4uS8DV5uvF76Px+bXO+ABRnUAAAAAAAAAAAAAAAAAAAAAAAAAAAAAAAijhkzTlGbUsNF7Kcdeav8A31Nya61FL4yVKk1Tg5N2STbfQktrPnzPMxeb5xVru/8AUm5JPeo3tBeEUl4E3AwvUctvz9ZExk7QUd/weEFwLYq7loLgBco0Y5rYZCjR4z1M2ehjks2lCKbjKDcrLdqbVJ9m1r3jrDNwN5IquGxGJmtk1yaP5bKVTwd4fCzFiKTw9eUJetFtPvi7GqlUUpShtb1+TTjaOVRqf6/H7RQFtxc3kEuBbcXALhGTjK6dmtqfU1uLbi4PCTcuxKxuCjUX9yTa6n0rzueo5nQbF8ZgpUnvg7rul/KfmdMc/WhkqOP23D0Otw9XnaUZ7rXv4+oABrNwAAAAAAAAAAAAAAAAAAAAAAAAAABy/CZmno3ROol69W1GPdO+v+xS80QsdxwwZnyjO4YdPm0oa0lf++pZ7V+RR+JnDl1g6eWknvr+vQqMXPNUttoAASiMAAAC2WxFxu9Bcq9L6VUoNXhGXGT6tWnztvY5aq94xlJRi5PgZQi5SSXEl7RDKvQ2jlGi1aUYKVT/AOk+fP8Ac35I5zTbCcnzXjFuqq/jFar+VvM7s0OmeD5Tk7kvWptSXde0vk7+BT4Wq1WTfHR+JZY2jnw7iuGq8Pi5wtxctuLl2c0XXFy24uAXXFy24uAbfRXGckzqF/VnzJePq/NRJDIlTs9js+hknZXi+XZfCp+JJvv3SXmmVfKENVPw+/eBdclVf4yp7ar2f3tPYACuLcAAAAAAAAAAAAAAAAAAAAAAAAGOtVVCi5yaUYpyk+hJK7ZkOU4Ts09HaKzinz6zVJdz21PDUTXvIzhBzkoriYzkoRcnwIkzfHvNM0q15XvUnKdupN81eCsvA8oB0VktEUDberABWMdZ2PbHhQGbk0uzzKcml2eZ7lexjzkdzESZwNZXqYaripLbJqlB226sedOz6m3H4COOTS7PNkl6N6aYPJMjpYfVxDcI85qnCzm+dNq8r21myNi6dWVPLBN3JOEqUlUzSklYkAxVqSr0nCSvGScWutNWZyj4S8Iv9PE/p0/8zHPhPwkf9PE/BS/zKroeIX/LLPpVD/a8znMXQeExUqct8G0+2ztcxGbMs8o59mM6tGNSGyOvGaine1rrVb2WS8mYC7g24pta8e/j6nNVIKM3FO6vp3cPQqCgMzAqCgAKnZaBY3Xws6L3wetH8st6XivmcYbXRbGPBZ3Bv1ZPUl3S2L52fgR8VTz0mvHyJODqc3Xi99PP5sSQACgOnAAAAAAAAAAAAAAAAAAAAAAAABEvC5mXK8/jQT5tGG389S0n+1Q82Spia8cLh5VJu0YRc5PqjFXb8kfP+ZYyWZZhUrT9ac5VGr3trO9u5LZ4E/k+nebnt+fi5Bx1S0FHf8fUeYFbCxcFSULoS1JXKWFgD2Qmpq6KnkhJwd0emnPXX/RuhO+hGnDL1FwAMzWUe4smroyFskeMyRfktbiMxS6Jc3x3r5/U6G5ylS8JXW9O6fatx09Crx9FTW6ST8yO1qZy1szJcXKAGBW4uUABW4uUAFiUsmxnpDLKdTpklfvWyXzTPccjwfYzWoTov+1qce57JW8UvM6456vT5uo4nUYarztKM+PHv4gAGk3gAAAAAAAAAAAAAAAAAAAAHJcKOZcg0YcE7TrSVNder60/Cyt7xEB2PCxmfLNIlRT5tGGr79S0pfLU8mccXuCp5KK7dSkxlTPVfZoAASyKAAACsL62y7e5Jb2+qxQ6Hg8yz0npXTurwp/1p91O2r+9x+ZhOahFyfDUyhDPJR3Mmk2jFbR+UXLnU5JWqJc3WttjLqe+3WtvWlpSecXhoY3DSp1IqUJK0ovc0RVpjolPIa2vC8sO3sl0xb3Rn/0+nvNGCxyq/wAJ/wBvf9Ps8jbjMDzf86f9fb4ObEgUZZFYYaq2G0yCtrYZw6YvZ3S2/W5rpq6L8qq8RmC6pc1+O75/U0zVmbo6o6EFtxcxMLFwLbi4Fi4FtxcCxtNGMbyHPKcm+a3qS/LLZt7L2fgSeQ29qJUyHG+kcop1Olxs/wA0ea/mmVXKNP8ArPw++pccl1NJU33r2f4NgACsLYAAAAAAAAAAAAAAAAAAGDGYmODws6s3aEIynJ9Sirv5IznJcKWPeD0WcY76s402+qO2cvNQt4mdOHOTUN2YVJ5IOWyuRPjsVLH42dWfrTlKpLvlJuy7NphAOlsl1HOXb1YAAPLgAAXBJ/BDlvE5XUxDW2pLUh+Snva95te6iMYQdSajFNybSS6W3sSRPeR5esqyilQVv6cFFvrlbnPxld+JA5RnlpqO/svmxP5PhmqOW3uz3mKtRjiKLhOKlGSalFpNNPemukygpi4Iq010Nlk83WoJyw7e1bXKnfol1rql4PrfJk/VIqcGmk09jTV00990RrpvoW8BrYjDpulvnTW1w62uuP07t13gsfntTqdfB79/b28e/rpMbgMv/pS6uK/XZ2cPbiZI89Xmu63raj0yMNVbCymitgzoMPV4+hGS6Un9y81uRVb4dx/C9nc9v1ubC5qR61ZlwLbi4PC4FtxcAuOz4OsdrQqUG91qke52UvD1fNnFXNporinhNIKMluk1BrrU3q/Vp+BpxNPPSlHs9iRhanN1ovtt4P7fwJTABzp0oAAAAAAAAAAAAAAAAAANFpjkX/kOSSoppVE1Uptp6uvG629jTa7L322Kg9jNwakutGMoqSyvqZEOKyDFYOs4VKFVSX/rm0+6UU1JdqZi9E1/Y1v0qn2KAu44qbSdkVTwcE2rv0/Q9E1/Y1v0qn2Homv7Gt+lU+wBl0mWyHRIbseia/sa36VT7FfRNf2Nb9Kp9igHSZbIdEhuzrNAdDq1XNYYivTlCnTanGM4uM5zXq2i9qinZ3e+ytfbaVACoxFaVWd5cNCxoUY0o2j3gAGg3AAAEeaZ6CtzdbBw37Z0FZeMOz/b5dS4ueTYjWtxNa/VxVS/0KAuMHiqko5Za2KvFYKlmzLS+3Ue/L8mq4WjZ06ms9r5j8FuPTyCr7Op8D+wBIdaXYRejQfFjkFX2dT4H9hyCr7Op8D+wA5+WyHRYbscgq+zqfA/sOQVfZ1Pgf2AHPy2Q6LDdjkFX2dT4H9joNENG6s8fCtWhKEKb1opxacmvVtF7Uk9t31K1+gCNisTOMLK2uhvw+Ep57u+mpIAAKgtwAAAAAAAAD//2Q==;" parent="SebLCp3GhaZY8X3QrVbp-106" vertex="1">
          <mxGeometry x="53.86000000000013" y="20" width="89.29" height="50" as="geometry" />
        </mxCell>
        <mxCell id="SebLCp3GhaZY8X3QrVbp-109" value="" style="group" parent="SebLCp3GhaZY8X3QrVbp-1" vertex="1" connectable="0">
          <mxGeometry x="1428" y="474" width="202.16000000000008" height="90" as="geometry" />
        </mxCell>
        <mxCell id="SebLCp3GhaZY8X3QrVbp-110" value="" style="whiteSpace=wrap;html=1;shape=mxgraph.basic.cloud_rect" parent="SebLCp3GhaZY8X3QrVbp-109" vertex="1">
          <mxGeometry width="195" height="90" as="geometry" />
        </mxCell>
        <mxCell id="SebLCp3GhaZY8X3QrVbp-111" value="" style="shape=image;verticalLabelPosition=bottom;labelBackgroundColor=default;verticalAlign=top;aspect=fixed;imageAspect=0;image=data:image/png,iVBORw0KGgoAAAANSUhEUgAAATYAAACjCAMAAAA3vsLfAAABF1BMVEX///9ChfT7vAXqQzU0qFP7uAA1f/QkpEixyfo7qlhIiPSx2rr7ugAzqkNBiOjqQTPqPi/yPh78wQAuif3pOSnpLxsre/M9gvT7vxf//PPsuhDpMiCuYJEqevPpODfZ5f3w9f7F1/tTj/X/9+bsWU7rUEP73Nr86ej619XucGf0qaXpMB280PvrSj3uYixwn/aYuPj+8tf92o7j7P391Hf8xTn+6bz8z2TQ3vy73sP1s6/ympTwgnvvc2r5zMntYVb+9POnWJHzoZuErPfxj4jwf3jtIwD4xMBrnPbsWDDwdif1lBz4qhDziiD93pv2uLT8yU/3oBb+5K+Qs/j8x0TpxET914RdtnOOypzk8udtvICg0qxRs2ppvczkAAAGbElEQVR4nO2cbVfaSBSAAZtoNQq7mxBZVkUUENSqra9VgSp20XVdV1v7+v9/xw5vq8C9k0wMGWe4zzk9px8wzjznztyZe4OxGEEQBEEQBEEQBEEQBEEQBEEQBEEQBEEQBEEQBEEQPihV3x+flFcLm5uF1fLJ8ftqSfaIXjzFyumEk7XtVCrZJmXbdtaZOK0UZY/s5VI9STp2KjkxBLPnJBtV2eN7iZSOU+uQskd168ljWq79rJUdm+Osa852ymuyR/qCWKs5KS9nHVJOjcR1KJX9SuuIO6WlyjgTkdYRdyZ7zNIpFrKee9ogyWxhzM8jFdFQ6wVcRfbIZXK6Lhxq3YBbv5A9dmnUC3YwaS3sQl32+OVQtAMt0B6/fFiWPQMZFIMu0K61P35bGENvRfEMOmAtHl/YkD2LqAnDWjyeHrN4q/Nu7b6txePmkuyZRErhedmgZ415y8meSoSUn3Hy6LMWd/Oy5xIdZ9mwrLFwO5c9m6gofvRU066GM4AtsN8aS6fjkhYm+OkgaWedwmnjrFI5a5QLTra/fjloja3TnOwJRUKDt7ElU07huFp//HS92th0HoNu2Frc3ZI2lQgpOtxAOwFqQmsXWRu1xk5vh9HPInJq+Nkj5TTq8A+VTtoVJtDaWGTTKh5s2Rqn3F2qZRFrLJtORTd+SRSwfJD0Kj1WPiLWGNGMXR5/rmML1PZsSRXzLmLN1P1Ov4rsbKnNuo+fbpqIt+lRj1sua4872+Li4sTlmxaX7P+rdV8/v4V4M/U+816kusour/66tn7tYV3v7md8PQBZp3qf3ertiu7i5d/XzFXiKZZh7N2seD8hh6zSdG7kg5fHP1kWaFfXA8oezd3uez5iaQFepTqfQWqpxSsDdNYzN+8pbhvc3nQ+8tadNzxpHXF7Ox5PGbtVWvzXQ1pH3C7/KctguJnb0cwhenbmvaW1MOb5AZeHdzdN65V3huVPGwu4O96DNuDDm5nPRTSTKHlr+JTWDri3vEchdyzXfRfVZCJjV8Qa88bb4M4xb9r1/wSt8b0dYlfTuKlXvAmt0K43fJ3mUG2uVo2FO3FrzBueF9AKklbH3p0g1hJWAn3gPapNp3PIvN+TR5+1ebwmMoWuUo36psLpwMsaclHordPoZjZKAi1RrjVOKm0t0/vIpjZK9gIsUb612FKaoy2e1uEUsh8g2DyseWjTotQbIB94WcNqlRqFGy/YLMMw2v8ErcXe5fNpEz+EuOofQm6xYLOMxMN+q3uwsv+QMISstTk8N/E7Vm60kxo5K1iwWYmnl4C7hCVojZG7x7Y45TsLN4i2oZv6gSFqjbEUR/p/zVAnET2f4DVq3Ax9snPbF7LGAm4a9qb4Ks3AwQZY63gTtMa8IdrUvmHBedQ6AD98awlbw84irtoNGbjOZsEfzhji1pBSr+L1owNoawOXaIubANZiOTCdms8ZtXTAK4IR7u/YgsJN7W4ztEaRnS0wYBVJ6WYMmEj5TVBxwM6C0qkUvCMYXi95iAJqU/m1VFibj9fYhJiGtKl8vSJtgYhGG5RJNVyk3q9MCqFfSoAzKXbaDQjYjzGV/h4WdNq19sL9HWCvWe26ONi1Cnlzg1+uDPVXRM0uGG6hXhPgDr3aX4uB35kJ88AL3+QVb8LAHXkrEaTUAdME65RKH9sYkDXm7VNYzz+Hu1dqZwSk4NbKpuHEG/bVNbW3Nry7bFkhHHoPkQaMBl9SgK218sLnmec9ebmJvgmi+hqNxR6Qrrz1+6vJyS9fZzhMcdjeMvG3GZRvk6JteWatxSSH2TkTx8XfANHj75OBSaFrjcvsHMcMD8XbVh2gcPNjLbg2HYINenXXl7XA2jTY2VpkBlepP2uBtamfRjsMnN18WguqTf0zW48DI4C1gNq0yAddnjTnfVsLqE3tdnw/K/+/nuvfWjBtC0oXwwfpFZAErAXSptsfMO6kBRFrQbQtKF5mG2afrVMhawG0pTWLtRY7lpg1YW2uHreDQTKfJ0epzY1rcswd4oeQNzFtaR2+aIXw7aeAOBFtptIvL3hz9Mq3OP/azLQ2FyqUmdc+xfnU5prmfU72pKLg6PukH3N+tLlmOq/dWQ0lc/S9XQ/30MYrfLssytJuc0rX9Inx7ejH1y8/X+PMzk3j5Jvn2xsqvw1OEARBEARBEARBEARBEARBEARBEARBEARBEARBEOHzH7i4qvbg2+HjAAAAAElFTkSuQmCC;" parent="SebLCp3GhaZY8X3QrVbp-109" vertex="1">
          <mxGeometry x="32.82999999999993" y="11" width="129.33" height="68" as="geometry" />
        </mxCell>
        <mxCell id="SebLCp3GhaZY8X3QrVbp-112" value="" style="group" parent="SebLCp3GhaZY8X3QrVbp-1" vertex="1" connectable="0">
          <mxGeometry x="1429" y="600.5" width="195" height="90" as="geometry" />
        </mxCell>
        <mxCell id="SebLCp3GhaZY8X3QrVbp-113" value="" style="whiteSpace=wrap;html=1;shape=mxgraph.basic.cloud_rect" parent="SebLCp3GhaZY8X3QrVbp-112" vertex="1">
          <mxGeometry width="195" height="90" as="geometry" />
        </mxCell>
        <mxCell id="SebLCp3GhaZY8X3QrVbp-114" value="" style="shape=image;verticalLabelPosition=bottom;labelBackgroundColor=default;verticalAlign=top;aspect=fixed;imageAspect=0;image=data:image/jpeg,/9j/4AAQSkZJRgABAQAAAQABAAD/2wCEAAkGBxASEhUREBASFRAVFRUWFxgQGB4VGBsYFxgXFxUWFhUYHikgGR0lGxgVITEhJykrLi4uFx81ODMsNygtLisBCgoKDg0OGxAQGy0mICUtLS0tLS0tLS0tLS8tLS0tLS0tLS0tLS0tLS0tLS0tLS0tLS0tLS0tLS0tLS0tLS0tLf/AABEIAKsBJgMBIgACEQEDEQH/xAAcAAEAAgMBAQEAAAAAAAAAAAAABQYBBAcDCAL/xABLEAABAwIBBwYJCgQEBgMAAAABAAIDBBEFBhIhMUFRYQcTInGBkhUWMkJUVZGhsRQjUmJygpTB0dQzk6KyU3PT8CQ0Q2PS4SWzwv/EABsBAQACAwEBAAAAAAAAAAAAAAAEBQIDBgEH/8QANhEAAQMCAwQIBgICAwEAAAAAAQACAwQREiExBUFRYSJScYGRscHRBhMUkqHwMuFCYnKisiP/2gAMAwEAAhEDEQA/AO4oiIiIiIiIiIiIiIiIiIiItHFcSip4zLM8NYPaTsDRtPBcoyny2nqSWRExwarNNnOH13D4DR1rVJK2PVT6HZs1Y7oZN3k6f2eQV+xvLWjp7tzuckGjNi02O5ztQ6tfBUrEuUarfcQtZEOAzj3naPcqZZFCfUPdyXW0uxKWEdJuI8Xe2nmpGqx6sl/iVEzuGe4DuggKPc8nXc9ZuvakoJpTaKKST7DXO+A0KViyPxF2qkf22Z/c4LT0nc1PL6eHIlre9o87KGjme3yXO+6SPgpSlyoro/JqpCNz3Z49j7r0kyPxFuulf90h3uaSVGVeHzRaJYpI/ttLfeQvek3iPELwGmqMhgd9rldsM5S5W2FRCHDfH0Xew3B9yvGC5Q0tUPmZQXWuWO6Lx93b1i4XCVlkhaQ5pIINwWmxB3gjUtzKl41zCravYNNKLxjAeWnh7W7F9HIuY5K8oDgRFWdLYJBrH2xtH1h2710iGVrgHNcC0gEEG4IOogqdHI14uFyVZRTUr8Eg7DuPZ7ajevZERZqIiIiIiIiIiIiIiIiIiIiIiIiIiIiIiIiIiIiIiIiIiIiIi0MXxOOmidNKbMaO0nY1o2krdK4vl1lEaqXMYf8Ah4yQ0DU7Y5569nDrWqaX5beasNm0DqyXD/iMyfTtP9rQyjx6arlz3mzRfNaNTR+Z3lRCK55EZHmptPOCIAejsLyPgzjtVcA6R3NdxLLBRQXPRaMgB5Dif0lQ2T+TFRVn5ttowbGR3RaN4G1x4D3LpOC5CUkFi9vPSb5fJ7I9XtueKs1PA1jQxjQ1rRYBosABqAAXup0dOxuuZXHVu2aioJDThbwGved/lyXlHEGizQABsaLD2BeqIpCqFgrzljDhZwBB1gi49i9URLKp41kLRz3LGcy87YdDb/Wj1eyx4rm+UGS1RSHptDor2D29JvAO2g8D7Su6Lwnha9pa9oc0ixDhcEHWCDrWiSnY7TIq2ots1FOQHHE3gde47vLkvnZW7InK11M4QzEmncbadJYT5zfq7x29fvlvkaYLz04JgPlN1ln6s47OrVSlB6cT+a64Gn2jT8WnxB9CP24K+i4pA4Aggg6QRqIOoheq5tyaZRn/AJOV2nSYi7h5UfsuR27l0gKyjeHtuFwtZSPpZjE/uPEbj+6HJZREWaioiIiIiIiIiIiIiIiIiIiIiIiIiIiIiIiIi8ZZmtaXOIa0ay42A6yVXcQy5oItHOmQ7oBnf1GzfevHODdStsMEsxtE0uPIXVoWLrns/KfF/wBOme77Tg34ArxZyo6elS6Pqv8A1atX1EfFTxsWutf5f5b7qa5RsY5imMbTaSa7OIZ/1D7LD7y48p3K/H/lsokDS1jWBrQ4gkbXHRvPwCg9tlBmkxvuNF1myKM01OGuHSOZ7dw7h5lWDIrJ81k1nX5plnPPDY0He6x7AeC7TFC1oDWgBrQAANAAGoBQeRWD/JqVjSLSP+cfvznAaOwADsViU2njwN5lcntauNVObHotyb6nv8rIiIt6q0RERERERERFrVlXHEwySuDGNFy52gBEGZsF6SxhwLXAFpBBB0gg6wQuK5bYD8kqCGfwpLuZvtpu09R1HaCOKm8pOUKR946S8bNXOOHTPV9Dt09So80r3uLpHZzzrJJcT1k6SoFRK12Q8V2GxdnVNO4ySHCCM27+RPAjvO6yzS1Dontew2e3NII2EG4V8dyoSbKVna8/ABc+WST/ALCjskczQq5noIakgysxW019CP266BFyoSX6VI231XkfEKVouUuldoljlj4izx+vuXKR/vQi2CpkG9Q5NhURH8LdhPqSu/YZjNNUD5iZjyNYBs4dbTpCkl84se4EFpII1FpsRxBGkK75OcoUsdmVV5WfTH8QdZ1P+PWpEdUDk5UtX8PSMGKA4uRyPdx/HYurotShropmCSJ4ew6i34HceBW2pa50gg2KIiIvERERERERERERERFgoiXVLyoy7ip7xwWlm1E3+badxI8o8B2kKDy4y0zi6npXWZpD5G63Ha1pGpu87fjQRxUOWptkzxXT7M2GHgS1I7G+rt/d4qQxbG6ipdnTSvcNg1AdTRoHxUd2IBfUrZgeQVVOA+S0LDteOmRwZr9pChhrnnLMrpJJYKWMYyGt3bvAW8gqmh7V2HDOT+ijsXh8rt8hsO42w9t1JYhhlNDTzGOnhbmxSEZrGjUwnXZSBSutcqnf8RQB2GNjj4D3P4XDFK5LUXP1cMZ8lzw49Tbud7m27VFW+JVw5LIr1pJ82KRw67tb8HFaIxicAreukMVPI4bmn2C6+FlEVuvmqIiIiIiIiIiIiLmnKFhWIyuLmjPpm+S2G5Ld7nx63O4i/YulrFlhIwPbYqVR1TqWUStAJHEeXA8186xU73ODGseXE2DWgk33Zo0q64HycSvAdVO5pp81tnSdptmt966W2hiEhlEbBIRYvDRnEbi7WtpR2UgH8s1b1XxDLIMMLcHE5E924Duuq5QZFUEWqAPP/eOf7jo9ylo8Kp2izYIQODGj8lvIpIY0aBUclRLKbveT2krQlwmmd5dPC77TGn8lC4jkLQyjRGYzviNh3XXb7laUXhY06hZQ1U8JvG8jsK4/jvJ/Uw3fCRMwbGC0gHFm3sPYqg9uxw0jUvo6yqmVuR0VWC+MBlRscNT+Elv7tY46lGkpd7PBdBQ/EBuGVOnWG7tHtpwK5pk1lFNRyXb0o3HpxnUeI3O3FdpwvEY542yxG7HDRvG8EbCNVlwStpJInujlaQ8GxB/3pHFWTIHKI00wie75iQgOvqa46GvG7cfbsWuCbCcJ08lN2xs1tRH8+L+QF8v8h6kDMHu4LsqL83WVYLi1lFgFZREREREREREVA5ScpObb8licRI8dNzdYYfNB2F3w61b8axFtPBJO7UxpNt51Nb2mw7VwWuqXyvdLIbueS5x4n8tnYo1TJhbhG9X2wqETymZ46LdOZ/rXwXkF74fQyTSNjiYS9xsAPeSdgG9eUMTnODWXJcQABrJOgALtGR2TTKOLpAGd4vI7XbV0GncPedKiRRGQ23Lo9p7RbRx31cdB6nkPyvDJXI2GlAfIBJUa87zW/wCWDq+1r6tStdkAWVZNaGiwXCTzyTvMkhuT+9yLSxePOgmb9KKQe1pC3VghZHNagbG6+cDvI3q48lbrVp4wPHbnMP5FX/FckqKouXwNa8+dF0HdZtoPaCofCch/ktUyeGfOYC7ObI3pWc0jQ5ujaNmxQG072OB1XWz7bpqqmkYbtcQcjmL66jwzAV4RYCyp65FERERERERERERERERERERERERERERFiyyiIqhl9k0KmLnY2/8AERgkW89o05p3naOOjauPnQepfRy5xjXJ2+WeSSKSJkbnZwBvcE6XDQNV7ntUOohLjiaul2JtRkLTDO6wGbSb5cR6jgucl7jpJdfrW1S4rURm8c8rfsPcPdeyt0nJjUjyZ4CeOc335pUPiGRFfEL8wXgbYbP/AKBZx9iimN7dxV+3aFHN0fmNPI2H/qwW7hXKFWRWEubKPrjNPY4fndX3AMsKWrs0OzJT5kmgn7J1O+PBcVkY4Egghw1gixHAg6lgHcs2VD2659qj1exKacXaMLuLdPDTy7V9HArK5jkXlyQW09W+7ToZI7WNwkO0fW9u9dNBVhHIHi4XHVlHLSyYJB2HceY/bjesoiLNRFzjlYxMgR0zTrvK73sYPbnHsC5srBl5Wc7XT31NOYOpgzT7872qAYCSABck2A47AqqZ2J5K+h7Lg+TSsZyue05+w7l0DkuwK7nVcg0NJbHf6XnO7B0R1u3Lp6jsCoBT08UP0GAHi7W49pJUirGJmBgC4naFWaqodJu0HYNPfvRERbFCREREREWvVztjY6R5sxjS5x4AXKJ2L3Rc5o5MSxJzpYpzTUwcQ3NuCc3qILjvN7bNi3/FHEPW839f+otIlJzDTZWTqCOM4ZZmtcNRZxtyJAIurvdFzrEWYnhwE7qo1MFwHh99F94cSRfVnA6NGhZyqxSWaWhFNPJE2oaPJJGl72i5DSLkXPsQzWBuM+C9Zswve0Me0tN+kL2GEXIItcG3LNdERUjxRxH1vL/X/qKOqpK/DZYXS1ZqIZXZrmvud2dYOJINjcEHZpCGUjNzcl42gjkOGKZrnZ2FnC9s7XItddJWF4VdSyNjpJHZrGNLnE7ANJXMJsfxBz3YgwvFIyQMDLm2buLNR0WBdsc4bllJKGLVR0L6q+EgWsM95OjRzPguroo+lxOKSEVDXfNFmffcALkHcRY36lSaapxDE3vkgn+TUrXZrbXuevNILjv0gC9tKOkAtbO6xgpHSYi4hrW6l18idBbUnsXRUuqP4o4h62m/r/1Fr5WR1FHQtAq5nzGZudJnuBN2u6I0mw0DRdYmUgElunYtzaGKR7Y4pg4uIH8XDXfmAugotXDnExRkm5LGEk/ZC9JpA1pc42a0Ek8BpK3KuIsbL2WFzqnqsQxN73wTmmpWnNaQDffpsQSbWvpAF7aVu+KWIet5f6/9Rafmk/xaSO5WRoI4zhmma128WcbcjYWurxdZVagwWobTiP5U982fnOe9zm3Gxo0ktAFtHWrBA0hoDjcgAE7zbSVsaSdQoUjGN/i4HM8d2/PjuXqiIslqRYssoiKIxjAKapbaeJpdseNDx1O19mpcryryRmozntvJATocB5O4PGzr1HhqXa14VEDXtLHtDmuBBDhcEHWCFplha/tVlQbTmpDYG7d7fbgf2y+drrpvJtlLnt+SSu6TReIna0a2cSNnDqVUy0ycNHL0bmF9ywnZvaTtI37RbioOjqHxva9hs5rg5p4g3CgMc6J67Cohi2jS9E65tPA+nAr6KRaOC1zaiGOZup7Qbbj5w7DcdiK0BvmF8+LS0kOFiFwXEps+aST6Ujnd4k/mt/JGnD62Bp1c409y7j/aohysfJ2B4Qgv/wB3/wCp6qWZvHb6r6TVHBTPI3Ndb7Su2BZRFbr5qiIiIiIiIij8bpTLTzRN8p8b2jrIsFIIvCLiy9a4tcHDcqFkFjsTIvks5bFLE54tJ0QbuLj0jouCSCFbRjVJ6VT/AMxv6rWxTJukqDnSwtL/AKTbtcestIv2qP8AELDv8F3fd+q1NEjRbI+Ks5ZKGd5lfjaXG5ADSLnWxuDa/ELRy3yipzTugie2SWUBoEZzs0EjSbbdw13KhayjfDPhUb/LGZnDcXTMcR2Xt2K6YZkrRU7g6KEZ41OeS8j7OcdHYtjEMEgnlimkaTJCbsIcRY3DtIGg6QFi6Jzs3WvktsNfBBaOMEtGIkm1ySwtGQ0AvzKrOWdPiMIdNS1Mhh1uYLFzOLbC7m+8cVoZMYU6uMdTVVvPiIgiO2kO1gPFgALgHQNNta6UoKnyapY5ufja6OS5J5t7mtN9YLAc2x12svXQ3dfdwJP73LXFtINpzHYNdbJzWtuRpYnIjtBuq5lnXSVU7MNpzrIMrhqFtNjwA6R45oWZsXdBG6i8FzOiYDH0c5zXNI8rODNN736yrPheAU9O98sTDzj/ACnOcXE3NzpcdFzpKmE+W4kkmxPlwXhrYWtbE2PExovmSCXnV2R7hwC5NkpWyM53D52vYyoY8Rc6C0te4Frb3A0O3jaBvUxkBjUUEbqSoIhlZI8/OdEG50i52g37LK1YzgVPVZvPMJLCc0tcWkX16WkHYPYvxiWTdJUaZYs59gM8EtfYaruaQT2rFsL2aHTyW+baFNOCHtIx2LrWycL2IvrcHpA2zzuTdbXhqk9Kp/5jf1VT5S6uKWiBjkY8CZoJjcHWOZJoNlJ+IWH/AOC7+Y/9VtnJaj5j5NzXzWdn2ub530s69720dWhZObI5pabLRDLR08zJYy82cCQQ0ZfcfBeuH4xSiKMGpgBDGXBkb9EcVjEa+mlikiFVBd7HMHzjdbgQNvFaHiFh/wDgu/mP/VetFkXQRPbIyJ2c05wznucL7Dmk2WX/ANDkQPysCKEdJrn31HRbrr1iuf5O4VSOc+Csmlp6hjiLFzWs4i72nTfjpBBCsPinhnrJ/wDOi/8AFWvFcnaSpOdNC1z7Wzhdrrbi5pBI61HeIOHf4Lu+79VpFORlYHx/tWLtrtlOMySMJ3ANI7rkG3L8qTwGKCOIRU8jJGMFiWuDySdJLi3adallH4ThcNNHzcLM1tydJJJJ1kk6T/6UgpTb2zVDM4Okc4EkE6nU8zzRERerWiIiIiIiIoPK7CRU0z4wOmAXs+20aPbq7VwvXdfR5XBcqqUQ1k7Ngkc4dTrOA9hChVbNHdy6r4bnJxwn/kPI+ivnJRiGdDJAT5Dg5vU4WP8AU0+1FWuTfERBO9zj0TE4doey35osopyGALRtPZj5Kp72aGx7yBffxuq9i1Pzc8sZ82R7e6SPyUhkTPmV9OTtfm98Zn/7Wzyg0PNV0h2SWkH3hc/1Byr9PKWPa9usPBHW03HvChnoP7CuljtU0ot/mzzbZfRiLUw+qbLGyVvkvY1w+8LrbVuDdfOCCDYoiIi8RERERa9ayQxuET2skLSGue3PAOwllxnDhcLYREVY8HYz6ypPwTv3CeDsZ9ZUn4N37hWdERVjwdjPrKk/Bu/cJ4Oxn1lSfg3fuFZ0RFWPB2M+sqT8G79wng7GfWVJ+Dd+4U3iOIQ08bpp5GxxMF3OebADV8dFlC5PZdYdWyGGmqM6XNzg17HRlzfpMzwM4dSIseDsZ9ZUn4N37hPB2M+sqT8G79wt3BcpqSrlnhp5C+SmfmTAtc3Ndd7bXcAHaWO1X1LxyjywoaEsbVTZsj/IYxrpHkb8xgJA16TuRF4eDsZ9ZUn4N37hPB2M+sqT8G79wtrDcqqKopn1kE4fTxtc57mg3bmDOcHMtnA202ttXictKD5F4R54/I75ufmPvfP5vyLZ3laNSIvPwdjPrKk/Bu/cJ4Oxn1lSfg3fuF6ZR5bUFA9kdXK5j5GlzA2N77gG3mNK28n8pKOuYX0k7ZWtNnWu1zTszmOAc3tCItDwdjPrKk/Bu/cJ4Oxn1lSfg3fuFZ0RFWPB2M+sqT8G79wng7GfWVJ+Dd+4VnREUVg9NWMzvlVRDNe2bzUJhtrzr3kfnX0brW2qVRERERERERERERERYK4vyjj/AOQl4tj/ALGrtBXDcuKjnK+d2xrs0fcDWH3tKi1Z6I7V0Hw4D9S4/wCp8wozD3HOJG78wiksksNNRK6Ma2scfY5g/NYUIXsulmnYx5BH7ZXXlWwvOjZUNGmM5jvsuvmnsdo+8uXr6ExKiZPE+GQXY9pae3aOI1rg+LYe+nmfFIOk11usea4cCLFb6plnYhvVZ8PVYkhMB1bmOwn0J/K6JyW4yHRupX+Uy72X2sJGcOxxv1OCv4XzzhtdJBKyaI2c03H5g8CLg9a7hgGLxVcLZozwcDra4a2n/ekWW6mku3DvCq9u0Jil+e0dF2vI/wB6jvUuiIpSoURERERERERERERERFzTl8o5pMLvECWxzMfKG6egA8XPAOLStnDMo8Iqq2jbTQ89VcySyWJv/Lsa3yZCSM3W5trHSbbV0AgHQdXFa9LQwxX5qKNl9J5tobfrsNKIuM8nuU9FQ4jjPyyobFzlWczOBN8yWozrZoOrOb7Vv12Iw0uUgq6x4bSzUg+TyyAhg6Lb2cdWp/fG9dTdhVOSSaeEkm5JY0kk6ydC9aijikbmSRRvYPNe0OHsIsiLjuQNLJOzHZ6djvktSZmwWFg93z56A6nN7wGxVyLHaeTJ1mGMeXV7qgMEIac8k1BkGzVYjTv0L6Jiia0BrWhrRqDRYDqAXizDoA8yiGISnW8MAcet1roi5dyjVsUGOYVLO9rI2MeXOebADpC5PWvxydvFRjmIV1GD4PdHmZwBax8nzWloI0m7ZHb+lxXVZ6KGQ3kijeRoBe0O+IXsyNrRZrQANQaLD2BEXoiIiIiIiIiIiIiIiIiIiIiLBRFpYtXNghkmd5MbHO67DQO02HauATSOc4ucbuJLnHe5xu4+0ldB5T8fBtRxm4aQ6W2/W1n5nsXPANir6p+J1huXa/D9IYoDK4ZvtbsGnic10TkjoiDNPbdGO2znfBqK3ZH4X8mpI4yLPID3/acNI7BYdiKVFG0MFxmuZ2lVumqnvY4gXsLG2Qyv32up1U7L/Jn5VHzsTb1EY1Dz26y3rGsdo2q4rFlse0OFio1PUPp5RKzUL5xI3qTyexyajl5yM6DYOYfJI3HjrsdntV+y4yME2dUUw+e1vjGgP+s3c74/Hl8jSCQbgg2IIsQdxB1FVj2Ojcu+paqCvhNswcnNO793HvyOndsAx2CrZnxO6Q8pjtDmniN3EaCpe6+d6OrkieJInuY8aiw2P/scDoV/wLlJGhtWw/5kQ97m3+HsUuOpBFnLnK7YEkZLqfpN4f5D38+S6Uii8Ox2lnF4p43Hdezh1sdYj2KTCkgg6KgexzDhcCDwIt5rKLCL1YrKLCIiyiwiIsosIiLKLCIiyiwiIsosIiLKLCIiyiwiIsosIiLKLCIiyiwo3E8apqcXnmYzgTdx6mC7j2BeEgarJjHPOFoJPAZ+Skrqo5Z5WspGmOIh1SR1hgPnO47m/kq5lHyiuddlI0sbq5x3lfdGpnWdPAKhyPJJJJLr3JJubnWSTrKiS1I0Z4ro9nbCc4iSpFh1d57eA5a8bBZlkLiXOJvckk6SSdJJO+6tfJ5k+Z5hM9vzMRB06nPGlrezQT2b1EZN4BNVy5jBZotnOOpo/M7gu14Vh0dPE2GIWY0dpO0k7SVrp4cRxHQflWG2tpCCP5Mf83f9R6HcB38luhFlFYLikRERFiyrmUeSVPVjOIzJraJGAXPB484e/irIi8c0OFitkU0kLw+MkHkuIY3kbV09yWF8Y86IF47Rrb7LcVXyDtBX0aoytyfpJ9M1PG530rZru82x96hvpOqV0dN8SEdGdl+bcvxp4W7FwTqJ7Fv02NVUf8OeZvAPfb2XspnLPCYKdxELM0XGtznf3Eqt2UQjCV0cUsdRGHWuOf6VKeNFf6XN3ynjTX+lzd8qKslkxu4r36eHqN+0eylfGmv9Lm75Txpr/S5u+VFWSyY3cU+nh6jftHspXxpr/S5u+U8aa/0ubvlRVksmN3FPp4eo37R7KV8aa/0ubvlPGmv9Lm75UVZLJjdxT6eHqN+0eylfGmv9Lm75Txpr/S5u+VFWSyY3cU+nh6jftHspXxpr/S5u+U8aa/0ubvlRVksmN3FPp4eo37R7KV8aa/0ubvlPGmv9Lm75UVZLJjdxT6eHqN+0eylfGmv9Lm75Txpr/S5u+VFWSyY3cU+nh6jftHspXxpr/S5u+U8aa/0ubvlRVksmN3FPp4eo37R7KV8aa/0ubvlPGmv9Lm75UVZLJjdxT6eHqN+0eylfGmv9Lm75Txpr/S5u+VFWSyY3cU+nh6jftHst+fHqx+h9TMR/mPHwKji7Tc3061+rK1ZFYNTzyWmjzh9pzf7SEAxFYzTRUsZfaw/1A/pVRrHEgAOJOoDST1Aa1csneT+eUh9ReKPcf4jhwZ5vWdPBdLw/BaWAfMQRsO9o6Xa46St8KaykAzcbrmav4ikeMMDcPM5nu3D8rUwzDoqeMRwsDGDYNp2knaTvW6sBZUtc6SXEkm5KIiIvF//Z;" parent="SebLCp3GhaZY8X3QrVbp-112" vertex="1">
          <mxGeometry x="52.8599999999999" y="17.75" width="102.3" height="59.5" as="geometry" />
        </mxCell>
        <mxCell id="SebLCp3GhaZY8X3QrVbp-115" value="" style="group" parent="SebLCp3GhaZY8X3QrVbp-1" vertex="1" connectable="0">
          <mxGeometry x="1260" y="640" width="21" height="26" as="geometry" />
        </mxCell>
        <mxCell id="SebLCp3GhaZY8X3QrVbp-116" value="" style="rounded=0;whiteSpace=wrap;html=1;labelBackgroundColor=#ffffff;fontSize=14;align=center;strokeColor=none;" parent="SebLCp3GhaZY8X3QrVbp-115" vertex="1">
          <mxGeometry width="21" height="26" as="geometry" />
        </mxCell>
        <mxCell id="SebLCp3GhaZY8X3QrVbp-117" value="" style="outlineConnect=0;fontColor=#232F3E;gradientColor=none;fillColor=#B3B3B3;strokeColor=none;dashed=0;verticalLabelPosition=bottom;verticalAlign=top;align=center;html=1;fontSize=12;fontStyle=0;aspect=fixed;pointerEvents=1;shape=mxgraph.aws4.encrypted_data;labelBackgroundColor=#ffffff;" parent="SebLCp3GhaZY8X3QrVbp-115" vertex="1">
          <mxGeometry width="21" height="26" as="geometry" />
        </mxCell>
        <mxCell id="SebLCp3GhaZY8X3QrVbp-118" value="" style="group" parent="SebLCp3GhaZY8X3QrVbp-1" vertex="1" connectable="0">
          <mxGeometry x="250.00000000000006" y="763" width="21" height="26" as="geometry" />
        </mxCell>
        <mxCell id="SebLCp3GhaZY8X3QrVbp-119" value="" style="rounded=0;whiteSpace=wrap;html=1;labelBackgroundColor=#ffffff;fontSize=14;align=center;strokeColor=none;" parent="SebLCp3GhaZY8X3QrVbp-118" vertex="1">
          <mxGeometry width="21" height="26" as="geometry" />
        </mxCell>
        <mxCell id="SebLCp3GhaZY8X3QrVbp-120" value="" style="outlineConnect=0;fontColor=#232F3E;gradientColor=none;fillColor=#B3B3B3;strokeColor=none;dashed=0;verticalLabelPosition=bottom;verticalAlign=top;align=center;html=1;fontSize=12;fontStyle=0;aspect=fixed;pointerEvents=1;shape=mxgraph.aws4.encrypted_data;labelBackgroundColor=#ffffff;" parent="SebLCp3GhaZY8X3QrVbp-118" vertex="1">
          <mxGeometry width="21" height="26" as="geometry" />
        </mxCell>
      </root>
    </mxGraphModel>
  </diagram>
  <diagram id="Ht1M8jgEwFfnCIfOTk4-" name="HD Architecture">
    <mxGraphModel dx="1687" dy="936" grid="1" gridSize="10" guides="1" tooltips="1" connect="1" arrows="1" fold="1" page="1" pageScale="1" pageWidth="827" pageHeight="1169" math="0" shadow="0">
      <root>
        <mxCell id="0" />
        <mxCell id="1" parent="0" />
        <mxCell id="NAjnkQoBKiI45VPRzEIK-150" style="edgeStyle=orthogonalEdgeStyle;rounded=0;orthogonalLoop=1;jettySize=auto;html=1;entryX=1;entryY=0.56;entryDx=0;entryDy=0;entryPerimeter=0;" parent="1" source="NAjnkQoBKiI45VPRzEIK-72" target="NAjnkQoBKiI45VPRzEIK-68" edge="1">
          <mxGeometry relative="1" as="geometry" />
        </mxCell>
        <mxCell id="NAjnkQoBKiI45VPRzEIK-149" style="edgeStyle=orthogonalEdgeStyle;rounded=0;orthogonalLoop=1;jettySize=auto;html=1;entryX=1;entryY=0.56;entryDx=0;entryDy=0;entryPerimeter=0;" parent="1" source="NAjnkQoBKiI45VPRzEIK-55" target="NAjnkQoBKiI45VPRzEIK-68" edge="1">
          <mxGeometry relative="1" as="geometry">
            <Array as="points">
              <mxPoint x="1360" y="213" />
              <mxPoint x="1360" y="391" />
            </Array>
          </mxGeometry>
        </mxCell>
        <mxCell id="NAjnkQoBKiI45VPRzEIK-152" style="edgeStyle=orthogonalEdgeStyle;rounded=0;orthogonalLoop=1;jettySize=auto;html=1;entryX=1;entryY=0.56;entryDx=0;entryDy=0;entryPerimeter=0;" parent="1" source="NAjnkQoBKiI45VPRzEIK-77" target="NAjnkQoBKiI45VPRzEIK-68" edge="1">
          <mxGeometry relative="1" as="geometry">
            <Array as="points">
              <mxPoint x="1360" y="646" />
              <mxPoint x="1360" y="391" />
            </Array>
          </mxGeometry>
        </mxCell>
        <mxCell id="NAjnkQoBKiI45VPRzEIK-151" style="edgeStyle=orthogonalEdgeStyle;rounded=0;orthogonalLoop=1;jettySize=auto;html=1;entryX=1;entryY=0.56;entryDx=0;entryDy=0;entryPerimeter=0;" parent="1" source="NAjnkQoBKiI45VPRzEIK-73" target="NAjnkQoBKiI45VPRzEIK-68" edge="1">
          <mxGeometry relative="1" as="geometry">
            <Array as="points">
              <mxPoint x="1360" y="519" />
              <mxPoint x="1360" y="391" />
            </Array>
          </mxGeometry>
        </mxCell>
        <mxCell id="jZVaUwOg5UY3L9NAnvdq-71" value="AWS Cloud" style="points=[[0,0],[0.25,0],[0.5,0],[0.75,0],[1,0],[1,0.25],[1,0.5],[1,0.75],[1,1],[0.75,1],[0.5,1],[0.25,1],[0,1],[0,0.75],[0,0.5],[0,0.25]];outlineConnect=0;gradientColor=none;html=1;whiteSpace=wrap;fontSize=12;fontStyle=0;shape=mxgraph.aws4.group;grIcon=mxgraph.aws4.group_aws_cloud_alt;strokeColor=#232F3E;fillColor=none;verticalAlign=top;align=left;spacingLeft=30;fontColor=#232F3E;dashed=0;labelBackgroundColor=none;container=1;pointerEvents=0;collapsible=0;recursiveResize=0;" parent="1" vertex="1">
          <mxGeometry x="263" y="125" width="1067" height="757" as="geometry" />
        </mxCell>
        <mxCell id="NAjnkQoBKiI45VPRzEIK-9" value="" style="edgeStyle=orthogonalEdgeStyle;rounded=0;orthogonalLoop=1;jettySize=auto;html=1;" parent="jZVaUwOg5UY3L9NAnvdq-71" source="NAjnkQoBKiI45VPRzEIK-4" target="NAjnkQoBKiI45VPRzEIK-8" edge="1">
          <mxGeometry relative="1" as="geometry" />
        </mxCell>
        <mxCell id="NAjnkQoBKiI45VPRzEIK-4" value="MVC" style="swimlane;fillColor=#d5e8d4;strokeColor=#82b366;startSize=23;" parent="jZVaUwOg5UY3L9NAnvdq-71" vertex="1">
          <mxGeometry x="231" y="231" width="105" height="105" as="geometry">
            <mxRectangle x="387" y="278" width="130" height="30" as="alternateBounds" />
          </mxGeometry>
        </mxCell>
        <mxCell id="NAjnkQoBKiI45VPRzEIK-3" value="" style="aspect=fixed;html=1;points=[];align=center;image;fontSize=12;image=img/lib/azure2/containers/Kubernetes_Services.svg;" parent="NAjnkQoBKiI45VPRzEIK-4" vertex="1">
          <mxGeometry x="18.5" y="32" width="68" height="60" as="geometry" />
        </mxCell>
        <mxCell id="NAjnkQoBKiI45VPRzEIK-14" value="" style="edgeStyle=orthogonalEdgeStyle;rounded=0;orthogonalLoop=1;jettySize=auto;html=1;" parent="jZVaUwOg5UY3L9NAnvdq-71" source="NAjnkQoBKiI45VPRzEIK-8" target="NAjnkQoBKiI45VPRzEIK-11" edge="1">
          <mxGeometry relative="1" as="geometry" />
        </mxCell>
        <mxCell id="NAjnkQoBKiI45VPRzEIK-8" value="Amazon API&lt;br&gt;Gateway&lt;br&gt;" style="outlineConnect=0;fontColor=#232F3E;gradientColor=#945DF2;gradientDirection=north;fillColor=#5A30B5;strokeColor=#ffffff;dashed=0;verticalLabelPosition=bottom;verticalAlign=top;align=center;html=1;fontSize=12;fontStyle=0;aspect=fixed;shape=mxgraph.aws4.resourceIcon;resIcon=mxgraph.aws4.api_gateway;labelBackgroundColor=none;" parent="jZVaUwOg5UY3L9NAnvdq-71" vertex="1">
          <mxGeometry x="407" y="244.99999999999994" width="78" height="78" as="geometry" />
        </mxCell>
        <mxCell id="NAjnkQoBKiI45VPRzEIK-13" value="" style="edgeStyle=orthogonalEdgeStyle;rounded=0;orthogonalLoop=1;jettySize=auto;html=1;" parent="jZVaUwOg5UY3L9NAnvdq-71" source="NAjnkQoBKiI45VPRzEIK-10" target="NAjnkQoBKiI45VPRzEIK-12" edge="1">
          <mxGeometry relative="1" as="geometry" />
        </mxCell>
        <mxCell id="NAjnkQoBKiI45VPRzEIK-10" value="APIs" style="swimlane;fillColor=#d5e8d4;strokeColor=#82b366;startSize=23;" parent="jZVaUwOg5UY3L9NAnvdq-71" vertex="1">
          <mxGeometry x="554" y="222.5" width="105" height="105" as="geometry">
            <mxRectangle x="387" y="278" width="130" height="30" as="alternateBounds" />
          </mxGeometry>
        </mxCell>
        <mxCell id="NAjnkQoBKiI45VPRzEIK-11" value="" style="aspect=fixed;html=1;points=[];align=center;image;fontSize=12;image=img/lib/azure2/containers/Kubernetes_Services.svg;" parent="NAjnkQoBKiI45VPRzEIK-10" vertex="1">
          <mxGeometry x="18.5" y="32" width="68" height="60" as="geometry" />
        </mxCell>
        <mxCell id="NAjnkQoBKiI45VPRzEIK-12" value="Database" style="sketch=0;points=[[0,0,0],[0.25,0,0],[0.5,0,0],[0.75,0,0],[1,0,0],[0,1,0],[0.25,1,0],[0.5,1,0],[0.75,1,0],[1,1,0],[0,0.25,0],[0,0.5,0],[0,0.75,0],[1,0.25,0],[1,0.5,0],[1,0.75,0]];outlineConnect=0;fontColor=#232F3E;gradientColor=#4D72F3;gradientDirection=north;fillColor=#3334B9;strokeColor=#ffffff;dashed=0;verticalLabelPosition=bottom;verticalAlign=top;align=center;html=1;fontSize=12;fontStyle=0;aspect=fixed;shape=mxgraph.aws4.resourceIcon;resIcon=mxgraph.aws4.rds;" parent="jZVaUwOg5UY3L9NAnvdq-71" vertex="1">
          <mxGeometry x="763" y="236" width="78" height="78" as="geometry" />
        </mxCell>
        <mxCell id="NAjnkQoBKiI45VPRzEIK-45" value="" style="edgeStyle=orthogonalEdgeStyle;rounded=0;orthogonalLoop=1;jettySize=auto;html=1;" parent="jZVaUwOg5UY3L9NAnvdq-71" source="NAjnkQoBKiI45VPRzEIK-15" target="NAjnkQoBKiI45VPRzEIK-43" edge="1">
          <mxGeometry relative="1" as="geometry" />
        </mxCell>
        <mxCell id="NAjnkQoBKiI45VPRzEIK-15" value="" style="outlineConnect=0;dashed=0;verticalLabelPosition=bottom;verticalAlign=top;align=center;html=1;shape=mxgraph.aws3.queue;fillColor=#D9A741;gradientColor=none;" parent="jZVaUwOg5UY3L9NAnvdq-71" vertex="1">
          <mxGeometry x="564" y="429" width="73.5" height="48" as="geometry" />
        </mxCell>
        <mxCell id="NAjnkQoBKiI45VPRzEIK-32" value="" style="edgeStyle=orthogonalEdgeStyle;rounded=0;orthogonalLoop=1;jettySize=auto;html=1;" parent="jZVaUwOg5UY3L9NAnvdq-71" source="NAjnkQoBKiI45VPRzEIK-27" target="NAjnkQoBKiI45VPRzEIK-31" edge="1">
          <mxGeometry relative="1" as="geometry" />
        </mxCell>
        <mxCell id="NAjnkQoBKiI45VPRzEIK-27" value="Amazon API&lt;br&gt;Gateway&lt;br&gt;" style="outlineConnect=0;fontColor=#232F3E;gradientColor=#945DF2;gradientDirection=north;fillColor=#5A30B5;strokeColor=#ffffff;dashed=0;verticalLabelPosition=bottom;verticalAlign=top;align=center;html=1;fontSize=12;fontStyle=0;aspect=fixed;shape=mxgraph.aws4.resourceIcon;resIcon=mxgraph.aws4.api_gateway;labelBackgroundColor=none;" parent="jZVaUwOg5UY3L9NAnvdq-71" vertex="1">
          <mxGeometry x="85" y="616" width="78" height="78" as="geometry" />
        </mxCell>
        <mxCell id="NAjnkQoBKiI45VPRzEIK-35" value="" style="edgeStyle=orthogonalEdgeStyle;rounded=0;orthogonalLoop=1;jettySize=auto;html=1;" parent="jZVaUwOg5UY3L9NAnvdq-71" source="NAjnkQoBKiI45VPRzEIK-30" target="NAjnkQoBKiI45VPRzEIK-34" edge="1">
          <mxGeometry relative="1" as="geometry" />
        </mxCell>
        <mxCell id="NAjnkQoBKiI45VPRzEIK-30" value="API" style="swimlane;fillColor=#d5e8d4;strokeColor=#82b366;" parent="jZVaUwOg5UY3L9NAnvdq-71" vertex="1">
          <mxGeometry x="231" y="593.5" width="105" height="105" as="geometry">
            <mxRectangle x="387" y="278" width="130" height="30" as="alternateBounds" />
          </mxGeometry>
        </mxCell>
        <mxCell id="NAjnkQoBKiI45VPRzEIK-31" value="" style="aspect=fixed;html=1;points=[];align=center;image;fontSize=12;image=img/lib/azure2/containers/Kubernetes_Services.svg;" parent="NAjnkQoBKiI45VPRzEIK-30" vertex="1">
          <mxGeometry x="18.5" y="32" width="68" height="60" as="geometry" />
        </mxCell>
        <mxCell id="NAjnkQoBKiI45VPRzEIK-37" value="" style="edgeStyle=orthogonalEdgeStyle;rounded=0;orthogonalLoop=1;jettySize=auto;html=1;" parent="jZVaUwOg5UY3L9NAnvdq-71" source="NAjnkQoBKiI45VPRzEIK-34" target="NAjnkQoBKiI45VPRzEIK-36" edge="1">
          <mxGeometry relative="1" as="geometry" />
        </mxCell>
        <mxCell id="NAjnkQoBKiI45VPRzEIK-34" value="Queue" style="outlineConnect=0;dashed=0;verticalLabelPosition=bottom;verticalAlign=top;align=center;html=1;shape=mxgraph.aws3.queue;fillColor=#D9A741;gradientColor=none;" parent="jZVaUwOg5UY3L9NAnvdq-71" vertex="1">
          <mxGeometry x="411" y="622" width="73.5" height="48" as="geometry" />
        </mxCell>
        <mxCell id="NAjnkQoBKiI45VPRzEIK-139" style="edgeStyle=orthogonalEdgeStyle;rounded=0;orthogonalLoop=1;jettySize=auto;html=1;exitX=1;exitY=0.5;exitDx=0;exitDy=0;exitPerimeter=0;entryX=1;entryY=0.5;entryDx=0;entryDy=0;entryPerimeter=0;" parent="jZVaUwOg5UY3L9NAnvdq-71" source="NAjnkQoBKiI45VPRzEIK-36" target="NAjnkQoBKiI45VPRzEIK-12" edge="1">
          <mxGeometry relative="1" as="geometry">
            <Array as="points">
              <mxPoint x="867" y="646" />
              <mxPoint x="867" y="275" />
            </Array>
          </mxGeometry>
        </mxCell>
        <mxCell id="NAjnkQoBKiI45VPRzEIK-36" value="" style="outlineConnect=0;dashed=0;verticalLabelPosition=bottom;verticalAlign=top;align=center;html=1;shape=mxgraph.aws3.lambda_function;fillColor=#5294CF;gradientColor=none;" parent="jZVaUwOg5UY3L9NAnvdq-71" vertex="1">
          <mxGeometry x="576.5" y="614.5" width="60" height="63" as="geometry" />
        </mxCell>
        <mxCell id="NAjnkQoBKiI45VPRzEIK-41" value="" style="edgeStyle=orthogonalEdgeStyle;rounded=0;orthogonalLoop=1;jettySize=auto;html=1;" parent="jZVaUwOg5UY3L9NAnvdq-71" target="NAjnkQoBKiI45VPRzEIK-12" edge="1">
          <mxGeometry relative="1" as="geometry">
            <mxPoint x="753" y="453" as="sourcePoint" />
          </mxGeometry>
        </mxCell>
        <mxCell id="NAjnkQoBKiI45VPRzEIK-42" value="" style="edgeStyle=orthogonalEdgeStyle;rounded=0;orthogonalLoop=1;jettySize=auto;html=1;" parent="jZVaUwOg5UY3L9NAnvdq-71" source="NAjnkQoBKiI45VPRzEIK-39" target="NAjnkQoBKiI45VPRzEIK-15" edge="1">
          <mxGeometry relative="1" as="geometry" />
        </mxCell>
        <mxCell id="NAjnkQoBKiI45VPRzEIK-39" value="" style="outlineConnect=0;dashed=0;verticalLabelPosition=bottom;verticalAlign=top;align=center;html=1;shape=mxgraph.aws3.lambda_function;fillColor=#5294CF;gradientColor=none;" parent="jZVaUwOg5UY3L9NAnvdq-71" vertex="1">
          <mxGeometry x="692" y="421.5" width="60" height="63" as="geometry" />
        </mxCell>
        <mxCell id="NAjnkQoBKiI45VPRzEIK-43" value="" style="outlineConnect=0;dashed=0;verticalLabelPosition=bottom;verticalAlign=top;align=center;html=1;shape=mxgraph.aws3.lambda_function;fillColor=#5294CF;gradientColor=none;" parent="jZVaUwOg5UY3L9NAnvdq-71" vertex="1">
          <mxGeometry x="411" y="421.5" width="60" height="63" as="geometry" />
        </mxCell>
        <mxCell id="NAjnkQoBKiI45VPRzEIK-85" value="" style="edgeStyle=orthogonalEdgeStyle;rounded=0;orthogonalLoop=1;jettySize=auto;html=1;" parent="jZVaUwOg5UY3L9NAnvdq-71" source="NAjnkQoBKiI45VPRzEIK-62" target="NAjnkQoBKiI45VPRzEIK-84" edge="1">
          <mxGeometry relative="1" as="geometry" />
        </mxCell>
        <mxCell id="NAjnkQoBKiI45VPRzEIK-62" value="" style="outlineConnect=0;dashed=0;verticalLabelPosition=bottom;verticalAlign=top;align=center;html=1;shape=mxgraph.aws3.queue;fillColor=#D9A741;gradientColor=none;" parent="jZVaUwOg5UY3L9NAnvdq-71" vertex="1">
          <mxGeometry x="766.5" y="11" width="73.5" height="48" as="geometry" />
        </mxCell>
        <mxCell id="NAjnkQoBKiI45VPRzEIK-155" value="" style="edgeStyle=orthogonalEdgeStyle;rounded=0;orthogonalLoop=1;jettySize=auto;html=1;" parent="jZVaUwOg5UY3L9NAnvdq-71" source="NAjnkQoBKiI45VPRzEIK-68" target="NAjnkQoBKiI45VPRzEIK-154" edge="1">
          <mxGeometry relative="1" as="geometry" />
        </mxCell>
        <mxCell id="NAjnkQoBKiI45VPRzEIK-68" value="" style="outlineConnect=0;dashed=0;verticalLabelPosition=bottom;verticalAlign=top;align=center;html=1;shape=mxgraph.aws3.waf;fillColor=#759C3E;gradientColor=none;" parent="jZVaUwOg5UY3L9NAnvdq-71" vertex="1">
          <mxGeometry x="952" y="213.5" width="76.5" height="93" as="geometry" />
        </mxCell>
        <mxCell id="NAjnkQoBKiI45VPRzEIK-86" value="" style="edgeStyle=orthogonalEdgeStyle;rounded=0;orthogonalLoop=1;jettySize=auto;html=1;" parent="jZVaUwOg5UY3L9NAnvdq-71" source="NAjnkQoBKiI45VPRzEIK-84" target="NAjnkQoBKiI45VPRzEIK-12" edge="1">
          <mxGeometry relative="1" as="geometry" />
        </mxCell>
        <mxCell id="NAjnkQoBKiI45VPRzEIK-84" value="" style="outlineConnect=0;dashed=0;verticalLabelPosition=bottom;verticalAlign=top;align=center;html=1;shape=mxgraph.aws3.lambda_function;fillColor=#5294CF;gradientColor=none;" parent="jZVaUwOg5UY3L9NAnvdq-71" vertex="1">
          <mxGeometry x="773.25" y="121" width="60" height="63" as="geometry" />
        </mxCell>
        <mxCell id="NAjnkQoBKiI45VPRzEIK-92" value="" style="group" parent="jZVaUwOg5UY3L9NAnvdq-71" vertex="1" connectable="0">
          <mxGeometry x="1050" y="249" width="21" height="26" as="geometry" />
        </mxCell>
        <mxCell id="NAjnkQoBKiI45VPRzEIK-93" value="" style="rounded=0;whiteSpace=wrap;html=1;labelBackgroundColor=#ffffff;fontSize=14;align=center;strokeColor=none;" parent="NAjnkQoBKiI45VPRzEIK-92" vertex="1">
          <mxGeometry width="21" height="26" as="geometry" />
        </mxCell>
        <mxCell id="NAjnkQoBKiI45VPRzEIK-94" value="" style="outlineConnect=0;fontColor=#232F3E;gradientColor=none;fillColor=#B3B3B3;strokeColor=none;dashed=0;verticalLabelPosition=bottom;verticalAlign=top;align=center;html=1;fontSize=12;fontStyle=0;aspect=fixed;pointerEvents=1;shape=mxgraph.aws4.encrypted_data;labelBackgroundColor=#ffffff;" parent="NAjnkQoBKiI45VPRzEIK-92" vertex="1">
          <mxGeometry width="21" height="26" as="geometry" />
        </mxCell>
        <mxCell id="NAjnkQoBKiI45VPRzEIK-104" value="2" style="rounded=1;whiteSpace=wrap;html=1;fillColor=#007CBD;strokeColor=none;fontColor=#FFFFFF;fontStyle=1;fontSize=22;labelBackgroundColor=none;" parent="jZVaUwOg5UY3L9NAnvdq-71" vertex="1">
          <mxGeometry x="263.5" y="175" width="40" height="38" as="geometry" />
        </mxCell>
        <mxCell id="NAjnkQoBKiI45VPRzEIK-131" value="3" style="rounded=1;whiteSpace=wrap;html=1;fillColor=#007CBD;strokeColor=none;fontColor=#FFFFFF;fontStyle=1;fontSize=22;labelBackgroundColor=none;" parent="jZVaUwOg5UY3L9NAnvdq-71" vertex="1">
          <mxGeometry x="586.5" y="175" width="40" height="38" as="geometry" />
        </mxCell>
        <mxCell id="NAjnkQoBKiI45VPRzEIK-132" value="4" style="rounded=1;whiteSpace=wrap;html=1;fillColor=#007CBD;strokeColor=none;fontColor=#FFFFFF;fontStyle=1;fontSize=22;labelBackgroundColor=none;" parent="jZVaUwOg5UY3L9NAnvdq-71" vertex="1">
          <mxGeometry x="717" y="222.5" width="40" height="38" as="geometry" />
        </mxCell>
        <mxCell id="NAjnkQoBKiI45VPRzEIK-134" value="5" style="rounded=1;whiteSpace=wrap;html=1;fillColor=#007CBD;strokeColor=none;fontColor=#FFFFFF;fontStyle=1;fontSize=22;labelBackgroundColor=none;" parent="jZVaUwOg5UY3L9NAnvdq-71" vertex="1">
          <mxGeometry x="702" y="375" width="40" height="38" as="geometry" />
        </mxCell>
        <mxCell id="NAjnkQoBKiI45VPRzEIK-135" value="6" style="rounded=1;whiteSpace=wrap;html=1;fillColor=#007CBD;strokeColor=none;fontColor=#FFFFFF;fontStyle=1;fontSize=22;labelBackgroundColor=none;" parent="jZVaUwOg5UY3L9NAnvdq-71" vertex="1">
          <mxGeometry x="580.75" y="375" width="40" height="38" as="geometry" />
        </mxCell>
        <mxCell id="NAjnkQoBKiI45VPRzEIK-136" value="7" style="rounded=1;whiteSpace=wrap;html=1;fillColor=#007CBD;strokeColor=none;fontColor=#FFFFFF;fontStyle=1;fontSize=22;labelBackgroundColor=none;" parent="jZVaUwOg5UY3L9NAnvdq-71" vertex="1">
          <mxGeometry x="421" y="375" width="40" height="38" as="geometry" />
        </mxCell>
        <mxCell id="NAjnkQoBKiI45VPRzEIK-142" value="9" style="rounded=1;whiteSpace=wrap;html=1;fillColor=#007CBD;strokeColor=none;fontColor=#FFFFFF;fontStyle=1;fontSize=22;labelBackgroundColor=none;" parent="jZVaUwOg5UY3L9NAnvdq-71" vertex="1">
          <mxGeometry x="426" y="534.9962962962964" width="40" height="39.407407407407405" as="geometry" />
        </mxCell>
        <mxCell id="NAjnkQoBKiI45VPRzEIK-144" value="8" style="rounded=1;whiteSpace=wrap;html=1;fillColor=#007CBD;strokeColor=none;fontColor=#FFFFFF;fontStyle=1;fontSize=22;labelBackgroundColor=none;" parent="jZVaUwOg5UY3L9NAnvdq-71" vertex="1">
          <mxGeometry x="263.5" y="534.9962962962964" width="40" height="39.407407407407405" as="geometry" />
        </mxCell>
        <mxCell id="NAjnkQoBKiI45VPRzEIK-147" value="10" style="rounded=1;whiteSpace=wrap;html=1;fillColor=#007CBD;strokeColor=none;fontColor=#FFFFFF;fontStyle=1;fontSize=22;labelBackgroundColor=none;" parent="jZVaUwOg5UY3L9NAnvdq-71" vertex="1">
          <mxGeometry x="586.5" y="534.9962962962964" width="40" height="39.407407407407405" as="geometry" />
        </mxCell>
        <mxCell id="NAjnkQoBKiI45VPRzEIK-156" value="" style="edgeStyle=orthogonalEdgeStyle;rounded=0;orthogonalLoop=1;jettySize=auto;html=1;" parent="jZVaUwOg5UY3L9NAnvdq-71" source="NAjnkQoBKiI45VPRzEIK-153" target="NAjnkQoBKiI45VPRzEIK-62" edge="1">
          <mxGeometry relative="1" as="geometry">
            <Array as="points">
              <mxPoint x="917" y="35" />
              <mxPoint x="917" y="35" />
            </Array>
          </mxGeometry>
        </mxCell>
        <mxCell id="NAjnkQoBKiI45VPRzEIK-153" value="APIs" style="swimlane;fillColor=#d5e8d4;strokeColor=#82b366;startSize=23;" parent="jZVaUwOg5UY3L9NAnvdq-71" vertex="1">
          <mxGeometry x="936.75" y="12" width="105" height="105" as="geometry">
            <mxRectangle x="387" y="278" width="130" height="30" as="alternateBounds" />
          </mxGeometry>
        </mxCell>
        <mxCell id="NAjnkQoBKiI45VPRzEIK-154" value="" style="aspect=fixed;html=1;points=[];align=center;image;fontSize=12;image=img/lib/azure2/containers/Kubernetes_Services.svg;" parent="NAjnkQoBKiI45VPRzEIK-153" vertex="1">
          <mxGeometry x="18.5" y="32" width="68" height="60" as="geometry" />
        </mxCell>
        <mxCell id="NAjnkQoBKiI45VPRzEIK-161" value="11" style="rounded=1;whiteSpace=wrap;html=1;fillColor=#007CBD;strokeColor=none;fontColor=#FFFFFF;fontStyle=1;fontSize=22;labelBackgroundColor=none;" parent="jZVaUwOg5UY3L9NAnvdq-71" vertex="1">
          <mxGeometry x="941.75" y="135.99629629629635" width="40" height="39.407407407407405" as="geometry" />
        </mxCell>
        <mxCell id="NAjnkQoBKiI45VPRzEIK-162" value="12" style="rounded=1;whiteSpace=wrap;html=1;fillColor=#007CBD;strokeColor=none;fontColor=#FFFFFF;fontStyle=1;fontSize=22;labelBackgroundColor=none;" parent="jZVaUwOg5UY3L9NAnvdq-71" vertex="1">
          <mxGeometry x="717" y="11.99629629629635" width="40" height="39.407407407407405" as="geometry" />
        </mxCell>
        <mxCell id="NAjnkQoBKiI45VPRzEIK-165" style="edgeStyle=orthogonalEdgeStyle;rounded=0;orthogonalLoop=1;jettySize=auto;html=1;entryX=1;entryY=0.5;entryDx=0;entryDy=0;entryPerimeter=0;" parent="jZVaUwOg5UY3L9NAnvdq-71" source="NAjnkQoBKiI45VPRzEIK-154" target="NAjnkQoBKiI45VPRzEIK-12" edge="1">
          <mxGeometry relative="1" as="geometry">
            <Array as="points">
              <mxPoint x="867" y="74" />
              <mxPoint x="867" y="275" />
            </Array>
          </mxGeometry>
        </mxCell>
        <mxCell id="NAjnkQoBKiI45VPRzEIK-166" value="13" style="rounded=1;whiteSpace=wrap;html=1;fillColor=#007CBD;strokeColor=none;fontColor=#FFFFFF;fontStyle=1;fontSize=22;labelBackgroundColor=none;" parent="jZVaUwOg5UY3L9NAnvdq-71" vertex="1">
          <mxGeometry x="733.25" y="104.99629629629635" width="40" height="39.407407407407405" as="geometry" />
        </mxCell>
        <mxCell id="MrBBZEzTHturiJteFByd-1" value="" style="sketch=0;outlineConnect=0;fontColor=#232F3E;gradientColor=none;fillColor=#4D27AA;strokeColor=none;dashed=0;verticalLabelPosition=bottom;verticalAlign=top;align=center;html=1;fontSize=12;fontStyle=0;aspect=fixed;pointerEvents=1;shape=mxgraph.aws4.internet_gateway;" parent="jZVaUwOg5UY3L9NAnvdq-71" vertex="1">
          <mxGeometry x="73" y="142" width="78" height="78" as="geometry" />
        </mxCell>
        <mxCell id="NAjnkQoBKiI45VPRzEIK-52" style="edgeStyle=orthogonalEdgeStyle;rounded=0;orthogonalLoop=1;jettySize=auto;html=1;exitX=0;exitY=0.5;exitDx=0;exitDy=0;exitPerimeter=0;entryX=0.5;entryY=0;entryDx=0;entryDy=0;entryPerimeter=0;" parent="1" source="NAjnkQoBKiI45VPRzEIK-43" target="NAjnkQoBKiI45VPRzEIK-26" edge="1">
          <mxGeometry relative="1" as="geometry">
            <Array as="points">
              <mxPoint x="135" y="578" />
            </Array>
          </mxGeometry>
        </mxCell>
        <mxCell id="jZVaUwOg5UY3L9NAnvdq-110" style="edgeStyle=elbowEdgeStyle;rounded=0;orthogonalLoop=1;jettySize=auto;html=1;endArrow=open;endFill=0;strokeColor=#545B64;strokeWidth=2;fontSize=14;" parent="1" target="jZVaUwOg5UY3L9NAnvdq-74" edge="1">
          <mxGeometry relative="1" as="geometry">
            <mxPoint x="240" y="418" as="sourcePoint" />
          </mxGeometry>
        </mxCell>
        <mxCell id="-QjtrjUzRDEMRZ5MF8oH-47" value="Whats AT&amp;amp;T Manager" style="text;html=1;resizable=0;points=[];autosize=1;align=left;verticalAlign=top;spacingTop=-4;fontSize=30;fontStyle=1;labelBackgroundColor=none;" parent="1" vertex="1">
          <mxGeometry x="36.5" y="26.5" width="330" height="40" as="geometry" />
        </mxCell>
        <mxCell id="-QjtrjUzRDEMRZ5MF8oH-48" value="Arquitectura V 1.0" style="text;html=1;resizable=0;points=[];autosize=1;align=left;verticalAlign=top;spacingTop=-4;fontSize=16;labelBackgroundColor=none;" parent="1" vertex="1">
          <mxGeometry x="36.5" y="76.5" width="150" height="30" as="geometry" />
        </mxCell>
        <mxCell id="SCVMTBWpLvtzJIhz15lM-1" value="" style="line;strokeWidth=2;html=1;fontSize=14;labelBackgroundColor=none;" parent="1" vertex="1">
          <mxGeometry x="32.5" y="101.5" width="1517.5" height="14.32" as="geometry" />
        </mxCell>
        <mxCell id="jZVaUwOg5UY3L9NAnvdq-59" value="Manager" style="swimlane;fontSize=14;align=center;swimlaneFillColor=#f4f4f4;fillColor=#f4f4f4;startSize=33;container=1;pointerEvents=0;collapsible=0;recursiveResize=0;" parent="1" vertex="1">
          <mxGeometry x="30" y="125" width="210" height="135" as="geometry" />
        </mxCell>
        <mxCell id="jZVaUwOg5UY3L9NAnvdq-60" value="Business Manager" style="outlineConnect=0;fontColor=#232F3E;gradientColor=none;fillColor=#232F3E;strokeColor=none;dashed=0;verticalLabelPosition=bottom;verticalAlign=top;align=center;html=1;fontSize=12;fontStyle=0;aspect=fixed;pointerEvents=1;shape=mxgraph.aws4.user;labelBackgroundColor=none;" parent="jZVaUwOg5UY3L9NAnvdq-59" vertex="1">
          <mxGeometry x="78.5" y="47" width="46" height="46" as="geometry" />
        </mxCell>
        <mxCell id="jZVaUwOg5UY3L9NAnvdq-62" value="Channels" style="swimlane;fontSize=14;align=center;swimlaneFillColor=#f4f4f4;fillColor=#f4f4f4;startSize=33;container=1;pointerEvents=0;collapsible=0;recursiveResize=0;" parent="1" vertex="1">
          <mxGeometry x="30" y="260" width="210" height="180" as="geometry" />
        </mxCell>
        <mxCell id="jZVaUwOg5UY3L9NAnvdq-65" value="Mobile / Web" style="outlineConnect=0;fontColor=#232F3E;gradientColor=none;strokeColor=none;fillColor=#277116;dashed=0;verticalLabelPosition=bottom;verticalAlign=top;align=center;html=1;fontSize=12;fontStyle=0;shape=mxgraph.aws4.mobile_client;labelBackgroundColor=none;" parent="jZVaUwOg5UY3L9NAnvdq-62" vertex="1">
          <mxGeometry x="85.78999999999999" y="61" width="38.43" height="72.5" as="geometry" />
        </mxCell>
        <mxCell id="jZVaUwOg5UY3L9NAnvdq-101" value="1" style="rounded=1;whiteSpace=wrap;html=1;fillColor=#007CBD;strokeColor=none;fontColor=#FFFFFF;fontStyle=1;fontSize=22;labelBackgroundColor=none;" parent="jZVaUwOg5UY3L9NAnvdq-62" vertex="1">
          <mxGeometry x="143" y="61" width="40" height="38" as="geometry" />
        </mxCell>
        <mxCell id="NAjnkQoBKiI45VPRzEIK-7" value="" style="edgeStyle=orthogonalEdgeStyle;rounded=0;orthogonalLoop=1;jettySize=auto;html=1;" parent="1" source="jZVaUwOg5UY3L9NAnvdq-74" target="NAjnkQoBKiI45VPRzEIK-3" edge="1">
          <mxGeometry relative="1" as="geometry" />
        </mxCell>
        <mxCell id="jZVaUwOg5UY3L9NAnvdq-74" value="Amazon API&lt;br&gt;Gateway&lt;br&gt;" style="outlineConnect=0;fontColor=#232F3E;gradientColor=#945DF2;gradientDirection=north;fillColor=#5A30B5;strokeColor=#ffffff;dashed=0;verticalLabelPosition=bottom;verticalAlign=top;align=center;html=1;fontSize=12;fontStyle=0;aspect=fixed;shape=mxgraph.aws4.resourceIcon;resIcon=mxgraph.aws4.api_gateway;labelBackgroundColor=none;" parent="1" vertex="1">
          <mxGeometry x="350" y="378.99999999999994" width="78" height="78" as="geometry" />
        </mxCell>
        <mxCell id="jZVaUwOg5UY3L9NAnvdq-173" value="" style="group" parent="1" vertex="1" connectable="0">
          <mxGeometry x="252.50000000000006" y="404.5" width="21" height="26" as="geometry" />
        </mxCell>
        <mxCell id="jZVaUwOg5UY3L9NAnvdq-174" value="" style="rounded=0;whiteSpace=wrap;html=1;labelBackgroundColor=#ffffff;fontSize=14;align=center;strokeColor=none;" parent="jZVaUwOg5UY3L9NAnvdq-173" vertex="1">
          <mxGeometry width="21" height="26" as="geometry" />
        </mxCell>
        <mxCell id="jZVaUwOg5UY3L9NAnvdq-175" value="" style="outlineConnect=0;fontColor=#232F3E;gradientColor=none;fillColor=#B3B3B3;strokeColor=none;dashed=0;verticalLabelPosition=bottom;verticalAlign=top;align=center;html=1;fontSize=12;fontStyle=0;aspect=fixed;pointerEvents=1;shape=mxgraph.aws4.encrypted_data;labelBackgroundColor=#ffffff;" parent="jZVaUwOg5UY3L9NAnvdq-173" vertex="1">
          <mxGeometry width="21" height="26" as="geometry" />
        </mxCell>
        <mxCell id="NAjnkQoBKiI45VPRzEIK-105" style="edgeStyle=orthogonalEdgeStyle;rounded=0;orthogonalLoop=1;jettySize=auto;html=1;exitX=0.5;exitY=1;exitDx=0;exitDy=0;exitPerimeter=0;" parent="1" source="NAjnkQoBKiI45VPRzEIK-26" target="NAjnkQoBKiI45VPRzEIK-27" edge="1">
          <mxGeometry relative="1" as="geometry">
            <Array as="points">
              <mxPoint x="135" y="780" />
            </Array>
          </mxGeometry>
        </mxCell>
        <mxCell id="NAjnkQoBKiI45VPRzEIK-26" value="WhasApp Cloud API" style="html=1;strokeColor=#82b366;fillColor=#d5e8d4;labelPosition=center;verticalLabelPosition=middle;verticalAlign=top;align=center;fontSize=12;outlineConnect=0;spacingTop=-6;sketch=0;shape=mxgraph.sitemap.cloud;" parent="1" vertex="1">
          <mxGeometry x="30" y="600.5" width="210" height="127" as="geometry" />
        </mxCell>
        <mxCell id="NAjnkQoBKiI45VPRzEIK-48" value="" style="group" parent="1" vertex="1" connectable="0">
          <mxGeometry x="251.00000000000006" y="559" width="21" height="26" as="geometry" />
        </mxCell>
        <mxCell id="NAjnkQoBKiI45VPRzEIK-49" value="" style="rounded=0;whiteSpace=wrap;html=1;labelBackgroundColor=#ffffff;fontSize=14;align=center;strokeColor=none;" parent="NAjnkQoBKiI45VPRzEIK-48" vertex="1">
          <mxGeometry width="21" height="26" as="geometry" />
        </mxCell>
        <mxCell id="NAjnkQoBKiI45VPRzEIK-50" value="" style="outlineConnect=0;fontColor=#232F3E;gradientColor=none;fillColor=#B3B3B3;strokeColor=none;dashed=0;verticalLabelPosition=bottom;verticalAlign=top;align=center;html=1;fontSize=12;fontStyle=0;aspect=fixed;pointerEvents=1;shape=mxgraph.aws4.encrypted_data;labelBackgroundColor=#ffffff;" parent="NAjnkQoBKiI45VPRzEIK-48" vertex="1">
          <mxGeometry width="21" height="26" as="geometry" />
        </mxCell>
        <mxCell id="NAjnkQoBKiI45VPRzEIK-53" value="" style="group" parent="1" vertex="1" connectable="0">
          <mxGeometry x="1648" y="110" width="539" height="1150" as="geometry" />
        </mxCell>
        <mxCell id="-QjtrjUzRDEMRZ5MF8oH-46" value="" style="rounded=0;whiteSpace=wrap;html=1;fillColor=#EAEDED;fontSize=22;fontColor=#FFFFFF;strokeColor=none;labelBackgroundColor=none;" parent="NAjnkQoBKiI45VPRzEIK-53" vertex="1">
          <mxGeometry width="539" height="1150" as="geometry" />
        </mxCell>
        <mxCell id="-QjtrjUzRDEMRZ5MF8oH-36" value="1" style="rounded=1;whiteSpace=wrap;html=1;fillColor=#007CBD;strokeColor=none;fontColor=#FFFFFF;fontStyle=1;fontSize=22;labelBackgroundColor=none;" parent="NAjnkQoBKiI45VPRzEIK-53" vertex="1">
          <mxGeometry x="19.5" y="12.962962962962962" width="40" height="39.407407407407405" as="geometry" />
        </mxCell>
        <mxCell id="-QjtrjUzRDEMRZ5MF8oH-37" value="2" style="rounded=1;whiteSpace=wrap;html=1;fillColor=#007CBD;strokeColor=none;fontColor=#FFFFFF;fontStyle=1;fontSize=22;labelBackgroundColor=none;" parent="NAjnkQoBKiI45VPRzEIK-53" vertex="1">
          <mxGeometry x="18" y="139.48148148148147" width="40" height="39.407407407407405" as="geometry" />
        </mxCell>
        <mxCell id="-QjtrjUzRDEMRZ5MF8oH-38" value="3" style="rounded=1;whiteSpace=wrap;html=1;fillColor=#007CBD;strokeColor=none;fontColor=#FFFFFF;fontStyle=1;fontSize=22;labelBackgroundColor=none;" parent="NAjnkQoBKiI45VPRzEIK-53" vertex="1">
          <mxGeometry x="18" y="263.9259259259259" width="40" height="39.407407407407405" as="geometry" />
        </mxCell>
        <mxCell id="-QjtrjUzRDEMRZ5MF8oH-39" value="4" style="rounded=1;whiteSpace=wrap;html=1;fillColor=#007CBD;strokeColor=none;fontColor=#FFFFFF;fontStyle=1;fontSize=22;labelBackgroundColor=none;" parent="NAjnkQoBKiI45VPRzEIK-53" vertex="1">
          <mxGeometry x="18" y="382.14814814814815" width="40" height="39.407407407407405" as="geometry" />
        </mxCell>
        <mxCell id="-QjtrjUzRDEMRZ5MF8oH-40" value="5" style="rounded=1;whiteSpace=wrap;html=1;fillColor=#007CBD;strokeColor=none;fontColor=#FFFFFF;fontStyle=1;fontSize=22;labelBackgroundColor=none;" parent="NAjnkQoBKiI45VPRzEIK-53" vertex="1">
          <mxGeometry x="19.5" y="503.48148148148147" width="40" height="39.407407407407405" as="geometry" />
        </mxCell>
        <mxCell id="-QjtrjUzRDEMRZ5MF8oH-41" value="6" style="rounded=1;whiteSpace=wrap;html=1;fillColor=#007CBD;strokeColor=none;fontColor=#FFFFFF;fontStyle=1;fontSize=22;labelBackgroundColor=none;" parent="NAjnkQoBKiI45VPRzEIK-53" vertex="1">
          <mxGeometry x="20.5" y="578.1481481481482" width="40" height="39.407407407407405" as="geometry" />
        </mxCell>
        <mxCell id="-QjtrjUzRDEMRZ5MF8oH-42" value="7" style="rounded=1;whiteSpace=wrap;html=1;fillColor=#007CBD;strokeColor=none;fontColor=#FFFFFF;fontStyle=1;fontSize=22;labelBackgroundColor=none;" parent="NAjnkQoBKiI45VPRzEIK-53" vertex="1">
          <mxGeometry x="20" y="658" width="40" height="39.407407407407405" as="geometry" />
        </mxCell>
        <mxCell id="-QjtrjUzRDEMRZ5MF8oH-43" value="8" style="rounded=1;whiteSpace=wrap;html=1;fillColor=#007CBD;strokeColor=none;fontColor=#FFFFFF;fontStyle=1;fontSize=22;labelBackgroundColor=none;" parent="NAjnkQoBKiI45VPRzEIK-53" vertex="1">
          <mxGeometry x="20.5" y="722.2962962962963" width="40" height="39.407407407407405" as="geometry" />
        </mxCell>
        <mxCell id="SCVMTBWpLvtzJIhz15lM-6" value="&lt;span&gt;Aplicación Web responsiva que permite al administrador:&lt;br&gt;&lt;ul&gt;&lt;li&gt;Configurar las plantillas para los mensjaes.&lt;/li&gt;&lt;li&gt;Programar el broadcast de mensajes&amp;nbsp;&lt;/li&gt;&lt;li&gt;Visualizar el resultado del broadcast.&lt;/li&gt;&lt;/ul&gt;&lt;/span&gt;" style="text;html=1;align=left;verticalAlign=top;spacingTop=-4;fontSize=14;labelBackgroundColor=none;whiteSpace=wrap;" parent="NAjnkQoBKiI45VPRzEIK-53" vertex="1">
          <mxGeometry x="71" y="12.444444444444443" width="449" height="122.37037037037037" as="geometry" />
        </mxCell>
        <mxCell id="SCVMTBWpLvtzJIhz15lM-7" value="Micro aplicaciones REACT para soportar:&lt;br&gt;&lt;ul style=&quot;border-color: var(--border-color);&quot;&gt;&lt;li style=&quot;border-color: var(--border-color);&quot;&gt;Configurar las plantillas para los mensjaes.&lt;/li&gt;&lt;li style=&quot;border-color: var(--border-color);&quot;&gt;Programar el broadcast de mensajes&amp;nbsp;&lt;/li&gt;&lt;li style=&quot;border-color: var(--border-color);&quot;&gt;Visualizar el resultado del broadcast.&lt;/li&gt;&lt;/ul&gt;" style="text;html=1;align=left;verticalAlign=top;spacingTop=-4;fontSize=14;labelBackgroundColor=none;whiteSpace=wrap;" parent="NAjnkQoBKiI45VPRzEIK-53" vertex="1">
          <mxGeometry x="70" y="140" width="450" height="119.25925925925925" as="geometry" />
        </mxCell>
        <mxCell id="SCVMTBWpLvtzJIhz15lM-9" value="&lt;span&gt;Micro servicios Java Springboot para las APIs:&lt;br&gt;&lt;ul&gt;&lt;li&gt;&lt;span&gt;ConfigurarPlantillas&lt;/span&gt;&lt;/li&gt;&lt;li&gt;&lt;span&gt;Programar Broadcast&lt;/span&gt;&lt;/li&gt;&lt;li&gt;&lt;span&gt;Consultar estadus.&lt;/span&gt;&lt;/li&gt;&lt;/ul&gt;&lt;/span&gt;" style="text;html=1;align=left;verticalAlign=top;spacingTop=-4;fontSize=14;labelBackgroundColor=none;whiteSpace=wrap;" parent="NAjnkQoBKiI45VPRzEIK-53" vertex="1">
          <mxGeometry x="70" y="262.3703703703704" width="450" height="121.33333333333333" as="geometry" />
        </mxCell>
        <mxCell id="SCVMTBWpLvtzJIhz15lM-10" value="&lt;span&gt;Base de datos para:&lt;br&gt;&lt;ul&gt;&lt;li&gt;Plantillas&lt;/li&gt;&lt;li&gt;Broadcast List&lt;/li&gt;&lt;li&gt;Broadcast status&lt;/li&gt;&lt;li&gt;Programación de broadcast&lt;/li&gt;&lt;/ul&gt;&lt;/span&gt;" style="text;html=1;align=left;verticalAlign=top;spacingTop=-4;fontSize=14;labelBackgroundColor=none;whiteSpace=wrap;" parent="NAjnkQoBKiI45VPRzEIK-53" vertex="1">
          <mxGeometry x="70" y="382.66666666666663" width="450" height="125.48148148148148" as="geometry" />
        </mxCell>
        <mxCell id="SCVMTBWpLvtzJIhz15lM-11" value="&lt;span&gt;Función Serverless para identificar lista de broadcast hacia WhastApp APi y enviarlas a la Queue&lt;/span&gt;" style="text;html=1;align=left;verticalAlign=top;spacingTop=-4;fontSize=14;labelBackgroundColor=none;whiteSpace=wrap;" parent="NAjnkQoBKiI45VPRzEIK-53" vertex="1">
          <mxGeometry x="71" y="504" width="449" height="118.22222222222221" as="geometry" />
        </mxCell>
        <mxCell id="SCVMTBWpLvtzJIhz15lM-12" value="&lt;span&gt;Queue para controlar la cantidad de mensajes por segundo hacia WhatsApp API&lt;/span&gt;" style="text;html=1;align=left;verticalAlign=top;spacingTop=-4;fontSize=14;labelBackgroundColor=none;whiteSpace=wrap;" parent="NAjnkQoBKiI45VPRzEIK-53" vertex="1">
          <mxGeometry x="71" y="579.7037037037037" width="450" height="49.77777777777777" as="geometry" />
        </mxCell>
        <mxCell id="SCVMTBWpLvtzJIhz15lM-13" value="&lt;span&gt;Función serverless para el envío de mensajes hacia WhastApp API&lt;/span&gt;" style="text;html=1;align=left;verticalAlign=top;spacingTop=-4;fontSize=14;labelBackgroundColor=none;whiteSpace=wrap;" parent="NAjnkQoBKiI45VPRzEIK-53" vertex="1">
          <mxGeometry x="71" y="658.5185185185185" width="449" height="44.59259259259259" as="geometry" />
        </mxCell>
        <mxCell id="SCVMTBWpLvtzJIhz15lM-14" value="&lt;span&gt;Micro servicio para recibir las notificaciones Webhook de WhatsApp API&lt;br&gt;&lt;/span&gt;Se implementan las reglas de negocio para filtrar, organizar y almacenar en la queue." style="text;html=1;align=left;verticalAlign=top;spacingTop=-4;fontSize=14;labelBackgroundColor=none;whiteSpace=wrap;" parent="NAjnkQoBKiI45VPRzEIK-53" vertex="1">
          <mxGeometry x="71" y="723.85" width="449" height="66.15" as="geometry" />
        </mxCell>
        <mxCell id="NAjnkQoBKiI45VPRzEIK-140" value="9" style="rounded=1;whiteSpace=wrap;html=1;fillColor=#007CBD;strokeColor=none;fontColor=#FFFFFF;fontStyle=1;fontSize=22;labelBackgroundColor=none;" parent="NAjnkQoBKiI45VPRzEIK-53" vertex="1">
          <mxGeometry x="19.5" y="789.9962962962964" width="40" height="39.407407407407405" as="geometry" />
        </mxCell>
        <mxCell id="NAjnkQoBKiI45VPRzEIK-141" value="Queue para la organización y priorización de mensajes." style="text;html=1;align=left;verticalAlign=top;spacingTop=-4;fontSize=14;labelBackgroundColor=none;whiteSpace=wrap;" parent="NAjnkQoBKiI45VPRzEIK-53" vertex="1">
          <mxGeometry x="70" y="791.55" width="449" height="48.45" as="geometry" />
        </mxCell>
        <mxCell id="NAjnkQoBKiI45VPRzEIK-145" value="10" style="rounded=1;whiteSpace=wrap;html=1;fillColor=#007CBD;strokeColor=none;fontColor=#FFFFFF;fontStyle=1;fontSize=22;labelBackgroundColor=none;" parent="NAjnkQoBKiI45VPRzEIK-53" vertex="1">
          <mxGeometry x="21.5" y="859.9962962962964" width="40" height="39.407407407407405" as="geometry" />
        </mxCell>
        <mxCell id="NAjnkQoBKiI45VPRzEIK-146" value="Funcion serverless para actualizar y priorizar mensajes a la base de datos." style="text;html=1;align=left;verticalAlign=top;spacingTop=-4;fontSize=14;labelBackgroundColor=none;whiteSpace=wrap;" parent="NAjnkQoBKiI45VPRzEIK-53" vertex="1">
          <mxGeometry x="72" y="861.55" width="449" height="48.45" as="geometry" />
        </mxCell>
        <mxCell id="NAjnkQoBKiI45VPRzEIK-157" value="11" style="rounded=1;whiteSpace=wrap;html=1;fillColor=#007CBD;strokeColor=none;fontColor=#FFFFFF;fontStyle=1;fontSize=22;labelBackgroundColor=none;" parent="NAjnkQoBKiI45VPRzEIK-53" vertex="1">
          <mxGeometry x="21.5" y="929.9962962962964" width="40" height="39.407407407407405" as="geometry" />
        </mxCell>
        <mxCell id="NAjnkQoBKiI45VPRzEIK-158" value="Micro servicios para aplicaciones de AT&amp;amp;T:&lt;br&gt;&lt;ul&gt;&lt;li&gt;Enviar&amp;nbsp; broadcast de mensajes&lt;/li&gt;&lt;li&gt;Consulta de estatus de mensajes o broadcast list&lt;/li&gt;&lt;/ul&gt;" style="text;html=1;align=left;verticalAlign=top;spacingTop=-4;fontSize=14;labelBackgroundColor=none;whiteSpace=wrap;" parent="NAjnkQoBKiI45VPRzEIK-53" vertex="1">
          <mxGeometry x="72" y="931.55" width="449" height="48.45" as="geometry" />
        </mxCell>
        <mxCell id="NAjnkQoBKiI45VPRzEIK-159" value="12" style="rounded=1;whiteSpace=wrap;html=1;fillColor=#007CBD;strokeColor=none;fontColor=#FFFFFF;fontStyle=1;fontSize=22;labelBackgroundColor=none;" parent="NAjnkQoBKiI45VPRzEIK-53" vertex="1">
          <mxGeometry x="21.5" y="1012.9962962962964" width="40" height="39.407407407407405" as="geometry" />
        </mxCell>
        <mxCell id="NAjnkQoBKiI45VPRzEIK-160" value="Queue para registrar y priorizar los mensajes de aplicaciones de AT&amp;amp;T" style="text;html=1;align=left;verticalAlign=top;spacingTop=-4;fontSize=14;labelBackgroundColor=none;whiteSpace=wrap;" parent="NAjnkQoBKiI45VPRzEIK-53" vertex="1">
          <mxGeometry x="72" y="1014.55" width="449" height="48.45" as="geometry" />
        </mxCell>
        <mxCell id="NAjnkQoBKiI45VPRzEIK-163" value="13" style="rounded=1;whiteSpace=wrap;html=1;fillColor=#007CBD;strokeColor=none;fontColor=#FFFFFF;fontStyle=1;fontSize=22;labelBackgroundColor=none;" parent="NAjnkQoBKiI45VPRzEIK-53" vertex="1">
          <mxGeometry x="21.5" y="1069.9962962962964" width="40" height="39.407407407407405" as="geometry" />
        </mxCell>
        <mxCell id="NAjnkQoBKiI45VPRzEIK-164" value="Función Serverless para el registro en base de datos de mensajes de aplicaciones de AT&amp;amp;T." style="text;html=1;align=left;verticalAlign=top;spacingTop=-4;fontSize=14;labelBackgroundColor=none;whiteSpace=wrap;" parent="NAjnkQoBKiI45VPRzEIK-53" vertex="1">
          <mxGeometry x="72" y="1071.55" width="449" height="48.45" as="geometry" />
        </mxCell>
        <mxCell id="NAjnkQoBKiI45VPRzEIK-55" value="On-Premise" style="sketch=0;outlineConnect=0;gradientColor=none;html=1;whiteSpace=wrap;fontSize=12;fontStyle=0;shape=mxgraph.aws4.group;grIcon=mxgraph.aws4.group_on_premise;strokeColor=#858B94;fillColor=none;verticalAlign=top;align=left;spacingLeft=30;fontColor=#858B94;dashed=0;" parent="1" vertex="1">
          <mxGeometry x="1428" y="125" width="194" height="175" as="geometry" />
        </mxCell>
        <mxCell id="NAjnkQoBKiI45VPRzEIK-71" value="" style="sketch=0;pointerEvents=1;shadow=0;dashed=0;html=1;strokeColor=none;fillColor=#505050;labelPosition=center;verticalLabelPosition=bottom;verticalAlign=top;outlineConnect=0;align=center;shape=mxgraph.office.servers.datacenter;" parent="1" vertex="1">
          <mxGeometry x="1500" y="181.5" width="53" height="53" as="geometry" />
        </mxCell>
        <mxCell id="NAjnkQoBKiI45VPRzEIK-80" value="" style="group" parent="1" vertex="1" connectable="0">
          <mxGeometry x="1428" y="344.5" width="195" height="90" as="geometry" />
        </mxCell>
        <mxCell id="NAjnkQoBKiI45VPRzEIK-72" value="" style="whiteSpace=wrap;html=1;shape=mxgraph.basic.cloud_rect" parent="NAjnkQoBKiI45VPRzEIK-80" vertex="1">
          <mxGeometry width="195" height="90" as="geometry" />
        </mxCell>
        <mxCell id="NAjnkQoBKiI45VPRzEIK-75" value="" style="shape=image;verticalLabelPosition=bottom;labelBackgroundColor=default;verticalAlign=top;aspect=fixed;imageAspect=0;image=data:image/jpeg,/9j/4AAQSkZJRgABAQAAAQABAAD/2wCEAAoGBxMHBhYREhMRFhIWGRgTFBEZDhAYExgXFhMaFxYdFhYcHyoiGR00HRkaMDUjJysuMTEzGSE2OzYvOioxMS4BCwsLDg4PHRERHDAnIiguLi4wLjA6MjAwLi4zMDA6MC4wMDA6MDAwMDIzMDowMDAwMDAwMTAxMDAwMDAwMDAwMP/AABEIAKgBLAMBIgACEQEDEQH/xAAcAAEAAQUBAQAAAAAAAAAAAAAABwECAwUGBAj/xAA/EAACAQICBAoIBQMEAwAAAAAAAQIDEQQFBhIhMQcTFCJBUWFxgZEVMlOCkqGx0VJyk6LhI0LSQ2KDwRZjc//EABoBAQACAwEAAAAAAAAAAAAAAAAEBQIDBgH/xAAwEQACAQIEAQwCAwEBAAAAAAAAAQIDEQQSIVFBBRMUMWFxgZGhseHwwdEiMlJCI//aAAwDAQACEQMRAD8AmYAAAAAAAAAAAAAAAAAAA5/T/NfQ+idaonaco8VT27dapzbrtSbfunsYuTSR42krsi7TXTivnOZTjRrTp4aLcacKc5R10nbXnKO2V99tyVtl7t6fKtKMTlmJTdapOnfn05VJy2dOrd7H3eJrbWRjqIuVTjFWiiqlLPfNxJbhjZTgmpSaaunfenu6Ryuf4pef8mg0MxvK8jin61O9F9y2x/a15G5NqSetijm5xk43ehm5VP8AFLz/AJHKp/il5/yYQe2WxjnnuzNyqf4pef8AI5XP8UvP+TCBZbDPPdnop4+pTldTmn1638nWaPZm8xwr1ra8XaXanudujp8jizbaK4vk+aqL3VE437VtX0sRsTSUqbaWq1JuAxEoVkm9Hp59T8/Rs7QAFQdOAAAAAAAAAAAAAAAAAAAAAAAAAAAAAAAAAAAACLOGrNeMxVHCp7Ip1pr/AHSvCHikp/EiUm7Hz1pPmnprSCtX6Jzep+SPNp/tSJeDhmqZtvfgRsVPLC25rGiya2GQtaLRorkbnQbGcRmkqTeycdn5oXa/a5eSO1uRhh67weLhVjvhJSt12e1eK2eJJtOoqtNSjtTSafWmroQ2IGNhaalv7r4sXXFxcXMiHYXFxcXAsLl1Oo6VRSjvTTT7U7otuLgEjYausRh4zW6STXijMaDQ7Fcdlzp9NP6S2r53N+UNSGSbjsdfQq87TjPdevH1uAAYG4AAAAAAAAAAAAAAAAAAAAAAAAAAAAAAAAA5zhFzT0VolWknadRcRDbZ61TY2n1qOs/dILJC4Z8047MKWFT2Qi6k10a09kb9qin8ZHpb4OGWlffUrMVK9S2wKNFQyURjFUR2mh2L5Tkyi/Wpt0n3b4/J28DjprYbbQzF8nzV03uqRt70btfLWMOqRrxEc9J9mp2gKA2lWVBQAFQUABt9FcVybN4p7qicW+17V81Y7kjCM3TmpLY000+pp3RI+DxCxWEjUW6STt1XW1FXj4Wkpb6ffvAveSat4Spvhr5/fU9AAIBbgAAAAAAAAAAAAAAAAAAAAAAAAAAAAAAslJRjd7EtrfQXnM8I+aei9EqrTtOp/Rh/yX1rduopPwMoRcpKK4nkpKKbfAh/SLMnnOe1sR0VJtx69Rc2mn7iieArYHQKKSsijbbd2UBUCwLGiylVeFxMakd8WpLwd7GVoxVEYSRlEkWlVVakpR2xklJPsaui+5pdEcXx+U6j3024eD2x+tvA3FzYtVcqZwyycdi64uW3FwYl1xctuLgF1zsNCsXxuXul003s7p7frfzRxtzbaK4zk2cxTfNnzH7275peZoxVPPSa8fL4uS8DV5uvF76Px+bXO+ABRnUAAAAAAAAAAAAAAAAAAAAAAAAAAAAAAAijhkzTlGbUsNF7Kcdeav8A31Nya61FL4yVKk1Tg5N2STbfQktrPnzPMxeb5xVru/8AUm5JPeo3tBeEUl4E3AwvUctvz9ZExk7QUd/weEFwLYq7loLgBco0Y5rYZCjR4z1M2ehjks2lCKbjKDcrLdqbVJ9m1r3jrDNwN5IquGxGJmtk1yaP5bKVTwd4fCzFiKTw9eUJetFtPvi7GqlUUpShtb1+TTjaOVRqf6/H7RQFtxc3kEuBbcXALhGTjK6dmtqfU1uLbi4PCTcuxKxuCjUX9yTa6n0rzueo5nQbF8ZgpUnvg7rul/KfmdMc/WhkqOP23D0Otw9XnaUZ7rXv4+oABrNwAAAAAAAAAAAAAAAAAAAAAAAAAABy/CZmno3ROol69W1GPdO+v+xS80QsdxwwZnyjO4YdPm0oa0lf++pZ7V+RR+JnDl1g6eWknvr+vQqMXPNUttoAASiMAAAC2WxFxu9Bcq9L6VUoNXhGXGT6tWnztvY5aq94xlJRi5PgZQi5SSXEl7RDKvQ2jlGi1aUYKVT/AOk+fP8Ac35I5zTbCcnzXjFuqq/jFar+VvM7s0OmeD5Tk7kvWptSXde0vk7+BT4Wq1WTfHR+JZY2jnw7iuGq8Pi5wtxctuLl2c0XXFy24uAXXFy24uAbfRXGckzqF/VnzJePq/NRJDIlTs9js+hknZXi+XZfCp+JJvv3SXmmVfKENVPw+/eBdclVf4yp7ar2f3tPYACuLcAAAAAAAAAAAAAAAAAAAAAAAAGOtVVCi5yaUYpyk+hJK7ZkOU4Ts09HaKzinz6zVJdz21PDUTXvIzhBzkoriYzkoRcnwIkzfHvNM0q15XvUnKdupN81eCsvA8oB0VktEUDberABWMdZ2PbHhQGbk0uzzKcml2eZ7lexjzkdzESZwNZXqYaripLbJqlB226sedOz6m3H4COOTS7PNkl6N6aYPJMjpYfVxDcI85qnCzm+dNq8r21myNi6dWVPLBN3JOEqUlUzSklYkAxVqSr0nCSvGScWutNWZyj4S8Iv9PE/p0/8zHPhPwkf9PE/BS/zKroeIX/LLPpVD/a8znMXQeExUqct8G0+2ztcxGbMs8o59mM6tGNSGyOvGaine1rrVb2WS8mYC7g24pta8e/j6nNVIKM3FO6vp3cPQqCgMzAqCgAKnZaBY3Xws6L3wetH8st6XivmcYbXRbGPBZ3Bv1ZPUl3S2L52fgR8VTz0mvHyJODqc3Xi99PP5sSQACgOnAAAAAAAAAAAAAAAAAAAAAAAABEvC5mXK8/jQT5tGG389S0n+1Q82Spia8cLh5VJu0YRc5PqjFXb8kfP+ZYyWZZhUrT9ac5VGr3trO9u5LZ4E/k+nebnt+fi5Bx1S0FHf8fUeYFbCxcFSULoS1JXKWFgD2Qmpq6KnkhJwd0emnPXX/RuhO+hGnDL1FwAMzWUe4smroyFskeMyRfktbiMxS6Jc3x3r5/U6G5ylS8JXW9O6fatx09Crx9FTW6ST8yO1qZy1szJcXKAGBW4uUABW4uUAFiUsmxnpDLKdTpklfvWyXzTPccjwfYzWoTov+1qce57JW8UvM6456vT5uo4nUYarztKM+PHv4gAGk3gAAAAAAAAAAAAAAAAAAAAHJcKOZcg0YcE7TrSVNder60/Cyt7xEB2PCxmfLNIlRT5tGGr79S0pfLU8mccXuCp5KK7dSkxlTPVfZoAASyKAAACsL62y7e5Jb2+qxQ6Hg8yz0npXTurwp/1p91O2r+9x+ZhOahFyfDUyhDPJR3Mmk2jFbR+UXLnU5JWqJc3WttjLqe+3WtvWlpSecXhoY3DSp1IqUJK0ovc0RVpjolPIa2vC8sO3sl0xb3Rn/0+nvNGCxyq/wAJ/wBvf9Ps8jbjMDzf86f9fb4ObEgUZZFYYaq2G0yCtrYZw6YvZ3S2/W5rpq6L8qq8RmC6pc1+O75/U0zVmbo6o6EFtxcxMLFwLbi4Fi4FtxcCxtNGMbyHPKcm+a3qS/LLZt7L2fgSeQ29qJUyHG+kcop1Olxs/wA0ea/mmVXKNP8ArPw++pccl1NJU33r2f4NgACsLYAAAAAAAAAAAAAAAAAAGDGYmODws6s3aEIynJ9Sirv5IznJcKWPeD0WcY76s402+qO2cvNQt4mdOHOTUN2YVJ5IOWyuRPjsVLH42dWfrTlKpLvlJuy7NphAOlsl1HOXb1YAAPLgAAXBJ/BDlvE5XUxDW2pLUh+Snva95te6iMYQdSajFNybSS6W3sSRPeR5esqyilQVv6cFFvrlbnPxld+JA5RnlpqO/svmxP5PhmqOW3uz3mKtRjiKLhOKlGSalFpNNPemukygpi4Iq010Nlk83WoJyw7e1bXKnfol1rql4PrfJk/VIqcGmk09jTV00990RrpvoW8BrYjDpulvnTW1w62uuP07t13gsfntTqdfB79/b28e/rpMbgMv/pS6uK/XZ2cPbiZI89Xmu63raj0yMNVbCymitgzoMPV4+hGS6Un9y81uRVb4dx/C9nc9v1ubC5qR61ZlwLbi4PC4FtxcAuOz4OsdrQqUG91qke52UvD1fNnFXNporinhNIKMluk1BrrU3q/Vp+BpxNPPSlHs9iRhanN1ovtt4P7fwJTABzp0oAAAAAAAAAAAAAAAAAANFpjkX/kOSSoppVE1Uptp6uvG629jTa7L322Kg9jNwakutGMoqSyvqZEOKyDFYOs4VKFVSX/rm0+6UU1JdqZi9E1/Y1v0qn2KAu44qbSdkVTwcE2rv0/Q9E1/Y1v0qn2Homv7Gt+lU+wBl0mWyHRIbseia/sa36VT7FfRNf2Nb9Kp9igHSZbIdEhuzrNAdDq1XNYYivTlCnTanGM4uM5zXq2i9qinZ3e+ytfbaVACoxFaVWd5cNCxoUY0o2j3gAGg3AAAEeaZ6CtzdbBw37Z0FZeMOz/b5dS4ueTYjWtxNa/VxVS/0KAuMHiqko5Za2KvFYKlmzLS+3Ue/L8mq4WjZ06ms9r5j8FuPTyCr7Op8D+wBIdaXYRejQfFjkFX2dT4H9hyCr7Op8D+wA5+WyHRYbscgq+zqfA/sOQVfZ1Pgf2AHPy2Q6LDdjkFX2dT4H9joNENG6s8fCtWhKEKb1opxacmvVtF7Uk9t31K1+gCNisTOMLK2uhvw+Ep57u+mpIAAKgtwAAAAAAAAD//2Q==;" parent="NAjnkQoBKiI45VPRzEIK-80" vertex="1">
          <mxGeometry x="53.86000000000013" y="20" width="89.29" height="50" as="geometry" />
        </mxCell>
        <mxCell id="NAjnkQoBKiI45VPRzEIK-81" value="" style="group" parent="1" vertex="1" connectable="0">
          <mxGeometry x="1428" y="474" width="202.16000000000008" height="90" as="geometry" />
        </mxCell>
        <mxCell id="NAjnkQoBKiI45VPRzEIK-73" value="" style="whiteSpace=wrap;html=1;shape=mxgraph.basic.cloud_rect" parent="NAjnkQoBKiI45VPRzEIK-81" vertex="1">
          <mxGeometry width="195" height="90" as="geometry" />
        </mxCell>
        <mxCell id="NAjnkQoBKiI45VPRzEIK-76" value="" style="shape=image;verticalLabelPosition=bottom;labelBackgroundColor=default;verticalAlign=top;aspect=fixed;imageAspect=0;image=data:image/png,iVBORw0KGgoAAAANSUhEUgAAATYAAACjCAMAAAA3vsLfAAABF1BMVEX///9ChfT7vAXqQzU0qFP7uAA1f/QkpEixyfo7qlhIiPSx2rr7ugAzqkNBiOjqQTPqPi/yPh78wQAuif3pOSnpLxsre/M9gvT7vxf//PPsuhDpMiCuYJEqevPpODfZ5f3w9f7F1/tTj/X/9+bsWU7rUEP73Nr86ej619XucGf0qaXpMB280PvrSj3uYixwn/aYuPj+8tf92o7j7P391Hf8xTn+6bz8z2TQ3vy73sP1s6/ympTwgnvvc2r5zMntYVb+9POnWJHzoZuErPfxj4jwf3jtIwD4xMBrnPbsWDDwdif1lBz4qhDziiD93pv2uLT8yU/3oBb+5K+Qs/j8x0TpxET914RdtnOOypzk8udtvICg0qxRs2ppvczkAAAGbElEQVR4nO2cbVfaSBSAAZtoNQq7mxBZVkUUENSqra9VgSp20XVdV1v7+v9/xw5vq8C9k0wMGWe4zzk9px8wzjznztyZe4OxGEEQBEEQBEEQBEEQBEEQBEEQBEEQBEEQBEEQBEEQPihV3x+flFcLm5uF1fLJ8ftqSfaIXjzFyumEk7XtVCrZJmXbdtaZOK0UZY/s5VI9STp2KjkxBLPnJBtV2eN7iZSOU+uQskd168ljWq79rJUdm+Osa852ymuyR/qCWKs5KS9nHVJOjcR1KJX9SuuIO6WlyjgTkdYRdyZ7zNIpFrKee9ogyWxhzM8jFdFQ6wVcRfbIZXK6Lhxq3YBbv5A9dmnUC3YwaS3sQl32+OVQtAMt0B6/fFiWPQMZFIMu0K61P35bGENvRfEMOmAtHl/YkD2LqAnDWjyeHrN4q/Nu7b6txePmkuyZRErhedmgZ415y8meSoSUn3Hy6LMWd/Oy5xIdZ9mwrLFwO5c9m6gofvRU066GM4AtsN8aS6fjkhYm+OkgaWedwmnjrFI5a5QLTra/fjloja3TnOwJRUKDt7ElU07huFp//HS92th0HoNu2Frc3ZI2lQgpOtxAOwFqQmsXWRu1xk5vh9HPInJq+Nkj5TTq8A+VTtoVJtDaWGTTKh5s2Rqn3F2qZRFrLJtORTd+SRSwfJD0Kj1WPiLWGNGMXR5/rmML1PZsSRXzLmLN1P1Ov4rsbKnNuo+fbpqIt+lRj1sua4872+Li4sTlmxaX7P+rdV8/v4V4M/U+816kusour/66tn7tYV3v7md8PQBZp3qf3ertiu7i5d/XzFXiKZZh7N2seD8hh6zSdG7kg5fHP1kWaFfXA8oezd3uez5iaQFepTqfQWqpxSsDdNYzN+8pbhvc3nQ+8tadNzxpHXF7Ox5PGbtVWvzXQ1pH3C7/KctguJnb0cwhenbmvaW1MOb5AZeHdzdN65V3huVPGwu4O96DNuDDm5nPRTSTKHlr+JTWDri3vEchdyzXfRfVZCJjV8Qa88bb4M4xb9r1/wSt8b0dYlfTuKlXvAmt0K43fJ3mUG2uVo2FO3FrzBueF9AKklbH3p0g1hJWAn3gPapNp3PIvN+TR5+1ebwmMoWuUo36psLpwMsaclHordPoZjZKAi1RrjVOKm0t0/vIpjZK9gIsUb612FKaoy2e1uEUsh8g2DyseWjTotQbIB94WcNqlRqFGy/YLMMw2v8ErcXe5fNpEz+EuOofQm6xYLOMxMN+q3uwsv+QMISstTk8N/E7Vm60kxo5K1iwWYmnl4C7hCVojZG7x7Y45TsLN4i2oZv6gSFqjbEUR/p/zVAnET2f4DVq3Ax9snPbF7LGAm4a9qb4Ks3AwQZY63gTtMa8IdrUvmHBedQ6AD98awlbw84irtoNGbjOZsEfzhji1pBSr+L1owNoawOXaIubANZiOTCdms8ZtXTAK4IR7u/YgsJN7W4ztEaRnS0wYBVJ6WYMmEj5TVBxwM6C0qkUvCMYXi95iAJqU/m1VFibj9fYhJiGtKl8vSJtgYhGG5RJNVyk3q9MCqFfSoAzKXbaDQjYjzGV/h4WdNq19sL9HWCvWe26ONi1Cnlzg1+uDPVXRM0uGG6hXhPgDr3aX4uB35kJ88AL3+QVb8LAHXkrEaTUAdME65RKH9sYkDXm7VNYzz+Hu1dqZwSk4NbKpuHEG/bVNbW3Nry7bFkhHHoPkQaMBl9SgK218sLnmec9ebmJvgmi+hqNxR6Qrrz1+6vJyS9fZzhMcdjeMvG3GZRvk6JteWatxSSH2TkTx8XfANHj75OBSaFrjcvsHMcMD8XbVh2gcPNjLbg2HYINenXXl7XA2jTY2VpkBlepP2uBtamfRjsMnN18WguqTf0zW48DI4C1gNq0yAddnjTnfVsLqE3tdnw/K/+/nuvfWjBtC0oXwwfpFZAErAXSptsfMO6kBRFrQbQtKF5mG2afrVMhawG0pTWLtRY7lpg1YW2uHreDQTKfJ0epzY1rcswd4oeQNzFtaR2+aIXw7aeAOBFtptIvL3hz9Mq3OP/azLQ2FyqUmdc+xfnU5prmfU72pKLg6PukH3N+tLlmOq/dWQ0lc/S9XQ/30MYrfLssytJuc0rX9Inx7ejH1y8/X+PMzk3j5Jvn2xsqvw1OEARBEARBEARBEARBEARBEARBEARBEARBEARBEOHzH7i4qvbg2+HjAAAAAElFTkSuQmCC;" parent="NAjnkQoBKiI45VPRzEIK-81" vertex="1">
          <mxGeometry x="32.82999999999993" y="11" width="129.33" height="68" as="geometry" />
        </mxCell>
        <mxCell id="NAjnkQoBKiI45VPRzEIK-82" value="" style="group" parent="1" vertex="1" connectable="0">
          <mxGeometry x="1429" y="600.5" width="195" height="90" as="geometry" />
        </mxCell>
        <mxCell id="NAjnkQoBKiI45VPRzEIK-77" value="" style="whiteSpace=wrap;html=1;shape=mxgraph.basic.cloud_rect" parent="NAjnkQoBKiI45VPRzEIK-82" vertex="1">
          <mxGeometry width="195" height="90" as="geometry" />
        </mxCell>
        <mxCell id="NAjnkQoBKiI45VPRzEIK-79" value="" style="shape=image;verticalLabelPosition=bottom;labelBackgroundColor=default;verticalAlign=top;aspect=fixed;imageAspect=0;image=data:image/jpeg,/9j/4AAQSkZJRgABAQAAAQABAAD/2wCEAAkGBxASEhUREBASFRAVFRUWFxgQGB4VGBsYFxgXFxUWFhUYHikgGR0lGxgVITEhJykrLi4uFx81ODMsNygtLisBCgoKDg0OGxAQGy0mICUtLS0tLS0tLS0tLS8tLS0tLS0tLS0tLS0tLS0tLS0tLS0tLS0tLS0tLS0tLS0tLS0tLf/AABEIAKsBJgMBIgACEQEDEQH/xAAcAAEAAgMBAQEAAAAAAAAAAAAABQYBBAcDCAL/xABLEAABAwIBBwYJCgQEBgMAAAABAAIDBBEFBhIhMUFRYQcTInGBkhUWMkJUVZGhsRQjUmJygpTB0dQzk6KyU3PT8CQ0Q2PS4SWzwv/EABsBAQACAwEBAAAAAAAAAAAAAAAEBQIDBgEH/8QANhEAAQMCAwQIBgICAwEAAAAAAQACAwQREiExBUFRYSJScYGRscHRBhMUkqHwMuFCYnKisiP/2gAMAwEAAhEDEQA/AO4oiIiIiIiIiIiIiIiIiIiItHFcSip4zLM8NYPaTsDRtPBcoyny2nqSWRExwarNNnOH13D4DR1rVJK2PVT6HZs1Y7oZN3k6f2eQV+xvLWjp7tzuckGjNi02O5ztQ6tfBUrEuUarfcQtZEOAzj3naPcqZZFCfUPdyXW0uxKWEdJuI8Xe2nmpGqx6sl/iVEzuGe4DuggKPc8nXc9ZuvakoJpTaKKST7DXO+A0KViyPxF2qkf22Z/c4LT0nc1PL6eHIlre9o87KGjme3yXO+6SPgpSlyoro/JqpCNz3Z49j7r0kyPxFuulf90h3uaSVGVeHzRaJYpI/ttLfeQvek3iPELwGmqMhgd9rldsM5S5W2FRCHDfH0Xew3B9yvGC5Q0tUPmZQXWuWO6Lx93b1i4XCVlkhaQ5pIINwWmxB3gjUtzKl41zCravYNNKLxjAeWnh7W7F9HIuY5K8oDgRFWdLYJBrH2xtH1h2710iGVrgHNcC0gEEG4IOogqdHI14uFyVZRTUr8Eg7DuPZ7ajevZERZqIiIiIiIiIiIiIiIiIiIiIiIiIiIiIiIiIiIiIiIiIiIiIi0MXxOOmidNKbMaO0nY1o2krdK4vl1lEaqXMYf8Ah4yQ0DU7Y5569nDrWqaX5beasNm0DqyXD/iMyfTtP9rQyjx6arlz3mzRfNaNTR+Z3lRCK55EZHmptPOCIAejsLyPgzjtVcA6R3NdxLLBRQXPRaMgB5Dif0lQ2T+TFRVn5ttowbGR3RaN4G1x4D3LpOC5CUkFi9vPSb5fJ7I9XtueKs1PA1jQxjQ1rRYBosABqAAXup0dOxuuZXHVu2aioJDThbwGved/lyXlHEGizQABsaLD2BeqIpCqFgrzljDhZwBB1gi49i9URLKp41kLRz3LGcy87YdDb/Wj1eyx4rm+UGS1RSHptDor2D29JvAO2g8D7Su6Lwnha9pa9oc0ixDhcEHWCDrWiSnY7TIq2ots1FOQHHE3gde47vLkvnZW7InK11M4QzEmncbadJYT5zfq7x29fvlvkaYLz04JgPlN1ln6s47OrVSlB6cT+a64Gn2jT8WnxB9CP24K+i4pA4Aggg6QRqIOoheq5tyaZRn/AJOV2nSYi7h5UfsuR27l0gKyjeHtuFwtZSPpZjE/uPEbj+6HJZREWaioiIiIiIiIiIiIiIiIiIiIiIiIiIiIiIiIi8ZZmtaXOIa0ay42A6yVXcQy5oItHOmQ7oBnf1GzfevHODdStsMEsxtE0uPIXVoWLrns/KfF/wBOme77Tg34ArxZyo6elS6Pqv8A1atX1EfFTxsWutf5f5b7qa5RsY5imMbTaSa7OIZ/1D7LD7y48p3K/H/lsokDS1jWBrQ4gkbXHRvPwCg9tlBmkxvuNF1myKM01OGuHSOZ7dw7h5lWDIrJ81k1nX5plnPPDY0He6x7AeC7TFC1oDWgBrQAANAAGoBQeRWD/JqVjSLSP+cfvznAaOwADsViU2njwN5lcntauNVObHotyb6nv8rIiIt6q0RERERERERFrVlXHEwySuDGNFy52gBEGZsF6SxhwLXAFpBBB0gg6wQuK5bYD8kqCGfwpLuZvtpu09R1HaCOKm8pOUKR946S8bNXOOHTPV9Dt09So80r3uLpHZzzrJJcT1k6SoFRK12Q8V2GxdnVNO4ySHCCM27+RPAjvO6yzS1Dontew2e3NII2EG4V8dyoSbKVna8/ABc+WST/ALCjskczQq5noIakgysxW019CP266BFyoSX6VI231XkfEKVouUuldoljlj4izx+vuXKR/vQi2CpkG9Q5NhURH8LdhPqSu/YZjNNUD5iZjyNYBs4dbTpCkl84se4EFpII1FpsRxBGkK75OcoUsdmVV5WfTH8QdZ1P+PWpEdUDk5UtX8PSMGKA4uRyPdx/HYurotShropmCSJ4ew6i34HceBW2pa50gg2KIiIvERERERERERERERFgoiXVLyoy7ip7xwWlm1E3+badxI8o8B2kKDy4y0zi6npXWZpD5G63Ha1pGpu87fjQRxUOWptkzxXT7M2GHgS1I7G+rt/d4qQxbG6ipdnTSvcNg1AdTRoHxUd2IBfUrZgeQVVOA+S0LDteOmRwZr9pChhrnnLMrpJJYKWMYyGt3bvAW8gqmh7V2HDOT+ijsXh8rt8hsO42w9t1JYhhlNDTzGOnhbmxSEZrGjUwnXZSBSutcqnf8RQB2GNjj4D3P4XDFK5LUXP1cMZ8lzw49Tbud7m27VFW+JVw5LIr1pJ82KRw67tb8HFaIxicAreukMVPI4bmn2C6+FlEVuvmqIiIiIiIiIiIiLmnKFhWIyuLmjPpm+S2G5Ld7nx63O4i/YulrFlhIwPbYqVR1TqWUStAJHEeXA8186xU73ODGseXE2DWgk33Zo0q64HycSvAdVO5pp81tnSdptmt966W2hiEhlEbBIRYvDRnEbi7WtpR2UgH8s1b1XxDLIMMLcHE5E924Duuq5QZFUEWqAPP/eOf7jo9ylo8Kp2izYIQODGj8lvIpIY0aBUclRLKbveT2krQlwmmd5dPC77TGn8lC4jkLQyjRGYzviNh3XXb7laUXhY06hZQ1U8JvG8jsK4/jvJ/Uw3fCRMwbGC0gHFm3sPYqg9uxw0jUvo6yqmVuR0VWC+MBlRscNT+Elv7tY46lGkpd7PBdBQ/EBuGVOnWG7tHtpwK5pk1lFNRyXb0o3HpxnUeI3O3FdpwvEY542yxG7HDRvG8EbCNVlwStpJInujlaQ8GxB/3pHFWTIHKI00wie75iQgOvqa46GvG7cfbsWuCbCcJ08lN2xs1tRH8+L+QF8v8h6kDMHu4LsqL83WVYLi1lFgFZREREREREREVA5ScpObb8licRI8dNzdYYfNB2F3w61b8axFtPBJO7UxpNt51Nb2mw7VwWuqXyvdLIbueS5x4n8tnYo1TJhbhG9X2wqETymZ46LdOZ/rXwXkF74fQyTSNjiYS9xsAPeSdgG9eUMTnODWXJcQABrJOgALtGR2TTKOLpAGd4vI7XbV0GncPedKiRRGQ23Lo9p7RbRx31cdB6nkPyvDJXI2GlAfIBJUa87zW/wCWDq+1r6tStdkAWVZNaGiwXCTzyTvMkhuT+9yLSxePOgmb9KKQe1pC3VghZHNagbG6+cDvI3q48lbrVp4wPHbnMP5FX/FckqKouXwNa8+dF0HdZtoPaCofCch/ktUyeGfOYC7ObI3pWc0jQ5ujaNmxQG072OB1XWz7bpqqmkYbtcQcjmL66jwzAV4RYCyp65FERERERERERERERERERERERERERERFiyyiIqhl9k0KmLnY2/8AERgkW89o05p3naOOjauPnQepfRy5xjXJ2+WeSSKSJkbnZwBvcE6XDQNV7ntUOohLjiaul2JtRkLTDO6wGbSb5cR6jgucl7jpJdfrW1S4rURm8c8rfsPcPdeyt0nJjUjyZ4CeOc335pUPiGRFfEL8wXgbYbP/AKBZx9iimN7dxV+3aFHN0fmNPI2H/qwW7hXKFWRWEubKPrjNPY4fndX3AMsKWrs0OzJT5kmgn7J1O+PBcVkY4Egghw1gixHAg6lgHcs2VD2659qj1exKacXaMLuLdPDTy7V9HArK5jkXlyQW09W+7ToZI7WNwkO0fW9u9dNBVhHIHi4XHVlHLSyYJB2HceY/bjesoiLNRFzjlYxMgR0zTrvK73sYPbnHsC5srBl5Wc7XT31NOYOpgzT7872qAYCSABck2A47AqqZ2J5K+h7Lg+TSsZyue05+w7l0DkuwK7nVcg0NJbHf6XnO7B0R1u3Lp6jsCoBT08UP0GAHi7W49pJUirGJmBgC4naFWaqodJu0HYNPfvRERbFCREREREWvVztjY6R5sxjS5x4AXKJ2L3Rc5o5MSxJzpYpzTUwcQ3NuCc3qILjvN7bNi3/FHEPW839f+otIlJzDTZWTqCOM4ZZmtcNRZxtyJAIurvdFzrEWYnhwE7qo1MFwHh99F94cSRfVnA6NGhZyqxSWaWhFNPJE2oaPJJGl72i5DSLkXPsQzWBuM+C9Zswve0Me0tN+kL2GEXIItcG3LNdERUjxRxH1vL/X/qKOqpK/DZYXS1ZqIZXZrmvud2dYOJINjcEHZpCGUjNzcl42gjkOGKZrnZ2FnC9s7XItddJWF4VdSyNjpJHZrGNLnE7ANJXMJsfxBz3YgwvFIyQMDLm2buLNR0WBdsc4bllJKGLVR0L6q+EgWsM95OjRzPguroo+lxOKSEVDXfNFmffcALkHcRY36lSaapxDE3vkgn+TUrXZrbXuevNILjv0gC9tKOkAtbO6xgpHSYi4hrW6l18idBbUnsXRUuqP4o4h62m/r/1Fr5WR1FHQtAq5nzGZudJnuBN2u6I0mw0DRdYmUgElunYtzaGKR7Y4pg4uIH8XDXfmAugotXDnExRkm5LGEk/ZC9JpA1pc42a0Ek8BpK3KuIsbL2WFzqnqsQxN73wTmmpWnNaQDffpsQSbWvpAF7aVu+KWIet5f6/9Rafmk/xaSO5WRoI4zhmma128WcbcjYWurxdZVagwWobTiP5U982fnOe9zm3Gxo0ktAFtHWrBA0hoDjcgAE7zbSVsaSdQoUjGN/i4HM8d2/PjuXqiIslqRYssoiKIxjAKapbaeJpdseNDx1O19mpcryryRmozntvJATocB5O4PGzr1HhqXa14VEDXtLHtDmuBBDhcEHWCFplha/tVlQbTmpDYG7d7fbgf2y+drrpvJtlLnt+SSu6TReIna0a2cSNnDqVUy0ycNHL0bmF9ywnZvaTtI37RbioOjqHxva9hs5rg5p4g3CgMc6J67Cohi2jS9E65tPA+nAr6KRaOC1zaiGOZup7Qbbj5w7DcdiK0BvmF8+LS0kOFiFwXEps+aST6Ujnd4k/mt/JGnD62Bp1c409y7j/aohysfJ2B4Qgv/wB3/wCp6qWZvHb6r6TVHBTPI3Ndb7Su2BZRFbr5qiIiIiIiIij8bpTLTzRN8p8b2jrIsFIIvCLiy9a4tcHDcqFkFjsTIvks5bFLE54tJ0QbuLj0jouCSCFbRjVJ6VT/AMxv6rWxTJukqDnSwtL/AKTbtcestIv2qP8AELDv8F3fd+q1NEjRbI+Ks5ZKGd5lfjaXG5ADSLnWxuDa/ELRy3yipzTugie2SWUBoEZzs0EjSbbdw13KhayjfDPhUb/LGZnDcXTMcR2Xt2K6YZkrRU7g6KEZ41OeS8j7OcdHYtjEMEgnlimkaTJCbsIcRY3DtIGg6QFi6Jzs3WvktsNfBBaOMEtGIkm1ySwtGQ0AvzKrOWdPiMIdNS1Mhh1uYLFzOLbC7m+8cVoZMYU6uMdTVVvPiIgiO2kO1gPFgALgHQNNta6UoKnyapY5ufja6OS5J5t7mtN9YLAc2x12svXQ3dfdwJP73LXFtINpzHYNdbJzWtuRpYnIjtBuq5lnXSVU7MNpzrIMrhqFtNjwA6R45oWZsXdBG6i8FzOiYDH0c5zXNI8rODNN736yrPheAU9O98sTDzj/ACnOcXE3NzpcdFzpKmE+W4kkmxPlwXhrYWtbE2PExovmSCXnV2R7hwC5NkpWyM53D52vYyoY8Rc6C0te4Frb3A0O3jaBvUxkBjUUEbqSoIhlZI8/OdEG50i52g37LK1YzgVPVZvPMJLCc0tcWkX16WkHYPYvxiWTdJUaZYs59gM8EtfYaruaQT2rFsL2aHTyW+baFNOCHtIx2LrWycL2IvrcHpA2zzuTdbXhqk9Kp/5jf1VT5S6uKWiBjkY8CZoJjcHWOZJoNlJ+IWH/AOC7+Y/9VtnJaj5j5NzXzWdn2ub530s69720dWhZObI5pabLRDLR08zJYy82cCQQ0ZfcfBeuH4xSiKMGpgBDGXBkb9EcVjEa+mlikiFVBd7HMHzjdbgQNvFaHiFh/wDgu/mP/VetFkXQRPbIyJ2c05wznucL7Dmk2WX/ANDkQPysCKEdJrn31HRbrr1iuf5O4VSOc+Csmlp6hjiLFzWs4i72nTfjpBBCsPinhnrJ/wDOi/8AFWvFcnaSpOdNC1z7Wzhdrrbi5pBI61HeIOHf4Lu+79VpFORlYHx/tWLtrtlOMySMJ3ANI7rkG3L8qTwGKCOIRU8jJGMFiWuDySdJLi3adallH4ThcNNHzcLM1tydJJJJ1kk6T/6UgpTb2zVDM4Okc4EkE6nU8zzRERerWiIiIiIiIoPK7CRU0z4wOmAXs+20aPbq7VwvXdfR5XBcqqUQ1k7Ngkc4dTrOA9hChVbNHdy6r4bnJxwn/kPI+ivnJRiGdDJAT5Dg5vU4WP8AU0+1FWuTfERBO9zj0TE4doey35osopyGALRtPZj5Kp72aGx7yBffxuq9i1Pzc8sZ82R7e6SPyUhkTPmV9OTtfm98Zn/7Wzyg0PNV0h2SWkH3hc/1Byr9PKWPa9usPBHW03HvChnoP7CuljtU0ot/mzzbZfRiLUw+qbLGyVvkvY1w+8LrbVuDdfOCCDYoiIi8RERERa9ayQxuET2skLSGue3PAOwllxnDhcLYREVY8HYz6ypPwTv3CeDsZ9ZUn4N37hWdERVjwdjPrKk/Bu/cJ4Oxn1lSfg3fuFZ0RFWPB2M+sqT8G79wng7GfWVJ+Dd+4U3iOIQ08bpp5GxxMF3OebADV8dFlC5PZdYdWyGGmqM6XNzg17HRlzfpMzwM4dSIseDsZ9ZUn4N37hPB2M+sqT8G79wt3BcpqSrlnhp5C+SmfmTAtc3Ndd7bXcAHaWO1X1LxyjywoaEsbVTZsj/IYxrpHkb8xgJA16TuRF4eDsZ9ZUn4N37hPB2M+sqT8G79wtrDcqqKopn1kE4fTxtc57mg3bmDOcHMtnA202ttXictKD5F4R54/I75ufmPvfP5vyLZ3laNSIvPwdjPrKk/Bu/cJ4Oxn1lSfg3fuF6ZR5bUFA9kdXK5j5GlzA2N77gG3mNK28n8pKOuYX0k7ZWtNnWu1zTszmOAc3tCItDwdjPrKk/Bu/cJ4Oxn1lSfg3fuFZ0RFWPB2M+sqT8G79wng7GfWVJ+Dd+4VnREUVg9NWMzvlVRDNe2bzUJhtrzr3kfnX0brW2qVRERERERERERERERYK4vyjj/AOQl4tj/ALGrtBXDcuKjnK+d2xrs0fcDWH3tKi1Z6I7V0Hw4D9S4/wCp8wozD3HOJG78wiksksNNRK6Ma2scfY5g/NYUIXsulmnYx5BH7ZXXlWwvOjZUNGmM5jvsuvmnsdo+8uXr6ExKiZPE+GQXY9pae3aOI1rg+LYe+nmfFIOk11usea4cCLFb6plnYhvVZ8PVYkhMB1bmOwn0J/K6JyW4yHRupX+Uy72X2sJGcOxxv1OCv4XzzhtdJBKyaI2c03H5g8CLg9a7hgGLxVcLZozwcDra4a2n/ekWW6mku3DvCq9u0Jil+e0dF2vI/wB6jvUuiIpSoURERERERERERERERFzTl8o5pMLvECWxzMfKG6egA8XPAOLStnDMo8Iqq2jbTQ89VcySyWJv/Lsa3yZCSM3W5trHSbbV0AgHQdXFa9LQwxX5qKNl9J5tobfrsNKIuM8nuU9FQ4jjPyyobFzlWczOBN8yWozrZoOrOb7Vv12Iw0uUgq6x4bSzUg+TyyAhg6Lb2cdWp/fG9dTdhVOSSaeEkm5JY0kk6ydC9aijikbmSRRvYPNe0OHsIsiLjuQNLJOzHZ6djvktSZmwWFg93z56A6nN7wGxVyLHaeTJ1mGMeXV7qgMEIac8k1BkGzVYjTv0L6Jiia0BrWhrRqDRYDqAXizDoA8yiGISnW8MAcet1roi5dyjVsUGOYVLO9rI2MeXOebADpC5PWvxydvFRjmIV1GD4PdHmZwBax8nzWloI0m7ZHb+lxXVZ6KGQ3kijeRoBe0O+IXsyNrRZrQANQaLD2BEXoiIiIiIiIiIiIiIiIiIiIiLBRFpYtXNghkmd5MbHO67DQO02HauATSOc4ucbuJLnHe5xu4+0ldB5T8fBtRxm4aQ6W2/W1n5nsXPANir6p+J1huXa/D9IYoDK4ZvtbsGnic10TkjoiDNPbdGO2znfBqK3ZH4X8mpI4yLPID3/acNI7BYdiKVFG0MFxmuZ2lVumqnvY4gXsLG2Qyv32up1U7L/Jn5VHzsTb1EY1Dz26y3rGsdo2q4rFlse0OFio1PUPp5RKzUL5xI3qTyexyajl5yM6DYOYfJI3HjrsdntV+y4yME2dUUw+e1vjGgP+s3c74/Hl8jSCQbgg2IIsQdxB1FVj2Ojcu+paqCvhNswcnNO793HvyOndsAx2CrZnxO6Q8pjtDmniN3EaCpe6+d6OrkieJInuY8aiw2P/scDoV/wLlJGhtWw/5kQ97m3+HsUuOpBFnLnK7YEkZLqfpN4f5D38+S6Uii8Ox2lnF4p43Hdezh1sdYj2KTCkgg6KgexzDhcCDwIt5rKLCL1YrKLCIiyiwiIsosIiLKLCIiyiwiIsosIiLKLCIiyiwiIsosIiLKLCIiyiwo3E8apqcXnmYzgTdx6mC7j2BeEgarJjHPOFoJPAZ+Skrqo5Z5WspGmOIh1SR1hgPnO47m/kq5lHyiuddlI0sbq5x3lfdGpnWdPAKhyPJJJJLr3JJubnWSTrKiS1I0Z4ro9nbCc4iSpFh1d57eA5a8bBZlkLiXOJvckk6SSdJJO+6tfJ5k+Z5hM9vzMRB06nPGlrezQT2b1EZN4BNVy5jBZotnOOpo/M7gu14Vh0dPE2GIWY0dpO0k7SVrp4cRxHQflWG2tpCCP5Mf83f9R6HcB38luhFlFYLikRERFiyrmUeSVPVjOIzJraJGAXPB484e/irIi8c0OFitkU0kLw+MkHkuIY3kbV09yWF8Y86IF47Rrb7LcVXyDtBX0aoytyfpJ9M1PG530rZru82x96hvpOqV0dN8SEdGdl+bcvxp4W7FwTqJ7Fv02NVUf8OeZvAPfb2XspnLPCYKdxELM0XGtznf3Eqt2UQjCV0cUsdRGHWuOf6VKeNFf6XN3ynjTX+lzd8qKslkxu4r36eHqN+0eylfGmv9Lm75Txpr/S5u+VFWSyY3cU+nh6jftHspXxpr/S5u+U8aa/0ubvlRVksmN3FPp4eo37R7KV8aa/0ubvlPGmv9Lm75UVZLJjdxT6eHqN+0eylfGmv9Lm75Txpr/S5u+VFWSyY3cU+nh6jftHspXxpr/S5u+U8aa/0ubvlRVksmN3FPp4eo37R7KV8aa/0ubvlPGmv9Lm75UVZLJjdxT6eHqN+0eylfGmv9Lm75Txpr/S5u+VFWSyY3cU+nh6jftHspXxpr/S5u+U8aa/0ubvlRVksmN3FPp4eo37R7KV8aa/0ubvlPGmv9Lm75UVZLJjdxT6eHqN+0eylfGmv9Lm75Txpr/S5u+VFWSyY3cU+nh6jftHst+fHqx+h9TMR/mPHwKji7Tc3061+rK1ZFYNTzyWmjzh9pzf7SEAxFYzTRUsZfaw/1A/pVRrHEgAOJOoDST1Aa1csneT+eUh9ReKPcf4jhwZ5vWdPBdLw/BaWAfMQRsO9o6Xa46St8KaykAzcbrmav4ikeMMDcPM5nu3D8rUwzDoqeMRwsDGDYNp2knaTvW6sBZUtc6SXEkm5KIiIvF//Z;" parent="NAjnkQoBKiI45VPRzEIK-82" vertex="1">
          <mxGeometry x="52.8599999999999" y="17.75" width="102.3" height="59.5" as="geometry" />
        </mxCell>
        <mxCell id="NAjnkQoBKiI45VPRzEIK-101" value="" style="group" parent="1" vertex="1" connectable="0">
          <mxGeometry x="1260" y="640" width="21" height="26" as="geometry" />
        </mxCell>
        <mxCell id="NAjnkQoBKiI45VPRzEIK-102" value="" style="rounded=0;whiteSpace=wrap;html=1;labelBackgroundColor=#ffffff;fontSize=14;align=center;strokeColor=none;" parent="NAjnkQoBKiI45VPRzEIK-101" vertex="1">
          <mxGeometry width="21" height="26" as="geometry" />
        </mxCell>
        <mxCell id="NAjnkQoBKiI45VPRzEIK-103" value="" style="outlineConnect=0;fontColor=#232F3E;gradientColor=none;fillColor=#B3B3B3;strokeColor=none;dashed=0;verticalLabelPosition=bottom;verticalAlign=top;align=center;html=1;fontSize=12;fontStyle=0;aspect=fixed;pointerEvents=1;shape=mxgraph.aws4.encrypted_data;labelBackgroundColor=#ffffff;" parent="NAjnkQoBKiI45VPRzEIK-101" vertex="1">
          <mxGeometry width="21" height="26" as="geometry" />
        </mxCell>
        <mxCell id="NAjnkQoBKiI45VPRzEIK-106" value="" style="group" parent="1" vertex="1" connectable="0">
          <mxGeometry x="250.00000000000006" y="763" width="21" height="26" as="geometry" />
        </mxCell>
        <mxCell id="NAjnkQoBKiI45VPRzEIK-107" value="" style="rounded=0;whiteSpace=wrap;html=1;labelBackgroundColor=#ffffff;fontSize=14;align=center;strokeColor=none;" parent="NAjnkQoBKiI45VPRzEIK-106" vertex="1">
          <mxGeometry width="21" height="26" as="geometry" />
        </mxCell>
        <mxCell id="NAjnkQoBKiI45VPRzEIK-108" value="" style="outlineConnect=0;fontColor=#232F3E;gradientColor=none;fillColor=#B3B3B3;strokeColor=none;dashed=0;verticalLabelPosition=bottom;verticalAlign=top;align=center;html=1;fontSize=12;fontStyle=0;aspect=fixed;pointerEvents=1;shape=mxgraph.aws4.encrypted_data;labelBackgroundColor=#ffffff;" parent="NAjnkQoBKiI45VPRzEIK-106" vertex="1">
          <mxGeometry width="21" height="26" as="geometry" />
        </mxCell>
      </root>
    </mxGraphModel>
  </diagram>
</mxfile>
